<mxfile host="app.diagrams.net" modified="2024-05-19T19:21:51.935Z" agent="Mozilla/5.0 (Windows NT 10.0; Win64; x64) AppleWebKit/537.36 (KHTML, like Gecko) Chrome/125.0.0.0 Safari/537.36 Edg/125.0.0.0" etag="kMa9wradw0vqJ1TTnVm-" version="24.4.4" type="device">
  <diagram name="tech-challenge-001" id="5c1IUxOrMJ8YjdJ0wXTu">
    <mxGraphModel dx="936" dy="588" grid="1" gridSize="10" guides="1" tooltips="1" connect="1" arrows="1" fold="1" page="1" pageScale="1" pageWidth="1169" pageHeight="827" math="0" shadow="0">
      <root>
        <mxCell id="0" />
        <mxCell id="1" parent="0" />
        <mxCell id="iN45Id6dDKSgF8Y3VdJW-50" value="" style="rounded=0;whiteSpace=wrap;html=1;fillColor=none;dashed=1;dashPattern=1 2;" vertex="1" parent="1">
          <mxGeometry x="181" y="280" width="599" height="320" as="geometry" />
        </mxCell>
        <mxCell id="iN45Id6dDKSgF8Y3VdJW-39" value="" style="rounded=0;whiteSpace=wrap;html=1;fillColor=none;dashed=1;" vertex="1" parent="1">
          <mxGeometry x="321" y="300" width="299" height="280" as="geometry" />
        </mxCell>
        <mxCell id="iN45Id6dDKSgF8Y3VdJW-2" value="" style="shape=image;imageAspect=0;aspect=fixed;verticalLabelPosition=bottom;verticalAlign=top;image=data:image/png,iVBORw0KGgoAAAANSUhEUgAAAoAAAAK9CAYAAAC0Kd1QAAAABGdBTUEAALGPC/xhBQAAACBjSFJNAAB6JgAAgIQAAPoAAACA6AAAdTAAAOpgAAA6mAAAF3CculE8AAAABmJLR0QA/wD/AP+gvaeTAACAAElEQVR42u2dd5wlVZm/v6dud08esiRFUVFgSAomRAVBkKjozkhQ1rCCohjAtCZaBcmgsiZ09acrusLqrgkUwRlghlEBSQ5Bch4Y4sDE7lvv749hsKfnhlNVp+6t8Dyfj7tM9+2695731DlPnTrvW04AAAHZ+btXDa776BPTndM60sp1omZjmiJNtziepkjTI7N1ZZoeO01wctNMGpLTFJkmOIsnm7lJitxEWTxFckOrjmpOcus+89+SSZImmDS5/SexlZKWPPPasSw2qSlp1ElPSSYzWyLnVjoplulJM7fEnC2LZIvl3NNmbplz8VOx6SmTljYsXtKMBh5vxHp8VCOPzRk++AkiDwBlwtEEANCJvU/7w5SBkcbmTY1u7Fy0iWQbmdwGUryByW3gZBvEpg2dtJGkDSRNW+1pWvM/Wmvamv+nO2bye7W1fJG1+5d1Ppa1P8jqnzwu2eNOetykx1f9W4+auUXO2SLFekiRHhodbS4abOrhS05626P0LgBAAAGgp8w877zG03dO3VTNgeeb0xZmep5cvJnkNpG0mWQbS25zSVPWlh5TRx8qhfyN+Uk2+Wt/dOvwOqcRmRbJuUUyu99JD8Tm7pPi+xRF97umu7excvl9F58y60l6KwAggADgzb6nzH6uxaMvNtmLJXuBk9vCnJ7vpC1k2lzSYBvN6eA2dZK/ce1iXb+Rn/x1+fG4WCyRdI9M98vpbsV2p3PRnRY372jYwJ2XfPUtD9HTAQABBKgZ+5z4+02jyG1jrrGVZC+W3ItW/X+9WNIkH+mw7hbkJ3+eUmedLamt1HnJX0uh6vjl/eSv42sTrv4FjYUtkbk7zekO53SnxXZ7FNk/mvHQPy4b+NvdGh6OOUsAAAEEKCn7n3T5ek23fIaL3LbO4hkyt605bS9p42zC0dWCWv6j6vKX263f3sZipUz3ydmNTm6BOd3hYnfjyEjjunmnvuUpzioABBAACsLw8HD012m7vThuup2d4pebuZ2d9DJJ6xZfODofL638eWtl75I+VPZYxNLdzulvLo6vMqerRgbsqvnDsx7jDARAAAGgB7J35aTXvjSWe7lzbmeTXi7Zy2SaXjXhePa3wff9IX/pRXyt493upKskuyqSmzNn8O9/4xYyAAIIABnZfXj21ElT49fJ9IZI7rWS7WRmU8siHC3/ql7lXuoWi4ed00UWxxdGQ6MXzRk+7BHOYgAEEAC6Cd83Z0+dvKS5m+TeINnukttF0kBb5eiBcLTQnIrL35ifBMn4rW0sYklXybnfy9yvLv/q2//GGQ6AAAKApAOHfzM5njrldWbxG0xudye9Qram8HWc/DNJh59IkPFLLALF4kZn9l+KmudeduKh93L2AyCAALVi79P+8JyGDb7ZRe4AZ7avyab6eECxbzfWS/6IRaZYxJLmW6wfWzzhZ2QXAyCAAJVlvzMufonMzXLm3m7STtUSjjX/URb566hKxKJXsVgq03nOdOZlp8y6gZECAAEEKD0HnnbplrHiwySbKWnHegtH5+NZAjkZKxzeKoP8FT0W5qQ/xk6nz/vqrD8yegAggAClYuaZV0xaassOUOyOlLTn2HMG4ehySMq9EAuZJHe9TN8cmLjkx3OG37OcUQUAAQQoLPudOnunKNKHTHaITFM9lKBSwtHyryqV8Uss8o/FWl/+fmd2ymOTou8uGJ61klEGAAEEKAQ7f/eqwU0WP/V2OX1I0m6UGKmq/BGLfsbCSbfFps/NO2XW+ZIzRh4ABBCgL+z7jQsmNEYmvsPMfV7SVp0mr2KUGPGTDsq99CIWlN5JGwsnXWmKPzX35EPnMAoBIIAAPeOgU+ZOG22MfNRJH5W0YV7CQYmR4sgfsShkLH4Tuegzl58060ZGJQAEECA3Zg6fN7R06obvltyXJG3iM8l1nJ7JMu2pcNQ7FpUtvTNq5s5YZ9m04y88e78VjFIACCBAUA44Y/Y7zHSKpOcjHJR7IRaFi8WNMr1v3qmH/JnRCgABBMjMQaf86aXNhvu6pH18JkSEw+tLUu6FWOQRi9jMvj80uXHcnOFZTzN6ASCAAInZ9xsXTBgYmfSl2HSc1P6ZvJQYKYpwEAti8ewv7pBF/zbv1HfMZiQDQAABvDnotIt3iF3jR2s+qi3vSY4SI8URDmJRgViYmU7d/M7G584/f1aTUQ0AAQRoy/CwRVdOnf0ZJ/cl67jq137yotyLz+HqVO6FWPQzFs7ZxVE0cNjlJ81axAgHgAACrMWBp8/e0CL9WLH2pcSIKDFCLKoTC6f7TZo1/5RDr2CkA8hORBNAVdjvrNk7WaRrssifxwxfQuHw+LGHQ/SjxAixIBZjXrK5M5u966d+9hFGO4DssAIIleDAM2YfYNLPVj+3lyzT1v+g3AuxqEIsnNlPpy9f773UDARAAKHW8nfpUSb7pswaflMi5V6SCMeartGPRANiQSxa/vByGxl46/yzZj3GKAiQHG4BQ6nZ/4zZHzPZt8PKn88vyiUcKq1wEAti0TYWr3MDo/Ne/ZmfvYCREAABhBpxwJlzPunkzpKZCzvJ+Za18J/fQwhH1zeqdYkRYlHTWGwdNe3y1xz3060ZEQEQQKgBB54+510yneKxDtNxIrFkSxvt1jgSv28a0r6npfxslvg7EAti0ZdYPFeRXbrrJ8/diZERwB/2AELp2P+MSw9ysl9K1qDESKtD+Ow1o8QIsahcLB5XM9pz/pmHXsMoCYAAQsU46LTLdoij+ArJppBlmlY4Oh+vHyVGiAWxCBELJz0ia+5xxelH/J3REqAz3AKG0nDwf1y8QRzF/ycJ+ctdOBIExhK8iFjkGAurfSxM2tBc9MdXHvvfL2HEBEAAoQqYudEVAz+RtKX/5naEI5VN5JJoQCzyj4WIhSSZ26QRNX//ik+etwkDJwACCCVn/zMu/bBJb+5PWQv1fJLr+qFqW2JElHspTCwKLeJbDtjK3+1+9HlTGT0BEEAoKQd97U8vdU4nFz+z0e9oYd+TLNPgsbB0ny1oLCj3EuKi6OUrJq88b+bM8xqMogAIIJQQa0bflmxyvzIb/eYf31WO7n/u/xhWD+GoWJZpT2KRRDjzigXlXkK95773PH/lSYyiAAgglIz9z5j9TpPtUfoH2XuuciS73Vg++StfLEQschfxfGPhpE+++pPnvpvRFGBNKAMDhWXmN2dPXbZct8q0iff0SaLBeJsILhzEgliUMBZLI8WvojwMwD9hBRAKy7IV+hjyl49wKMFLPJqZWBCLosdicmzRz3ce/u5kRlYABBAKzFvPmr2uYh3rPS/WI7NRxc8yradwEItSxGLbwcWTvsboCoAAQoEZjfVRSesVM7OxGOVerHDCUd/SO8SiJLFw7v2vOe6/3soIC8AeQCgguw/Pnjh1qu4yaWOvaSlQlqkF3dzuN3n1Lcu04Bm/xIJY5BYLp0WDK0ZmXH72excx2kKdGaAJoGhMmWpHmFxP5a/H5V6WSnrApCcl95RkkZymSlpPps0lDdVZOCi9QyxyjYVpo5GhwbMkvZPRFuoMK4BQOPY/ffY1knZKOsl1nBL6t79pVNJfJfcnSXOj0ejmCz73xnvkXMu/nHneeY3Ft0/fUk4zFOv1kttTsh1Wn6tlKjFS36QPYlGGWDjZm+efccQfGHEBAQQohPz9aWfJXVWBSe5GZ/qxbPQHF352v0y3mg444Tebj7jBfzGn90rawWc1pP1LfKSDEiPphYNYlCgWt62/8vHtLjz7IysYeaGOcAsYCnZJ4t7ddbIp8iTn7Peu6U648LN7zwvVJL/9/IH3S/q6zL7xppN+f6CTviC5XZKXGPFNNEA48hAOYlG4WLz40aH1jpP0VQZeqOV0SxNAUZh53nmNpfdsdL/aJn+EzPgNPMlZfL0zd3RI8evEPif8/u3m9DXJnuvnGkV+rmy5SoyUN+OXWLSIxZK40Xzxlae9ZyEjMNQNysBAYVh+34a79Ub+gpa1WOnMPrNo/Q126ZX8SdIfPv/mX0wcWLGtpLPVdQtUkYWDci/Eoq+xmBLFA19g9IU6wgogFIYDzpjzdTP7iDwnr76XtTDdbVE06w+f3vOv/Wy3vb96wVtl0Q8lW3ftubBOJUb8pINyL8Ri3AceicxtO/+sd93GKAx1ghVAKAxmtm/ek1y4shZ2xYi5nfstf5J00Wf3+z8X6RWS7iiTcKgvwuH3FSn3UqtYDMayLzICQ91gBRAKwX6nX/J8p+gun0mu45TQk/1N7k9DbuJbf/3p3Z4qVBue+rtNRkYaF0q2EyVG2n2cfmT8Eov8Y5FZxJuNRvzSK0579+2MxlAXWAGEonTFN5VF/tzklfsVTf4k6YJP7b8wdgN7yXRzEuHweh3CkVL+fKNHLLLFQllj0RhtRscxDgMCCNBzbFefwb3P8nedW77y4As/sl9h64Zd8tm9Hm00tK+kBzO4hIofi+LK35qvDVnuhVjkGQsnvWfXT/z4OYzFgAAC9LYr7txtNSTdg+yDTXKPxqPNAy8c3m9x0Vvy9/++710utoMljbRvltBZptUSDmUQjv5n/BKLlLGY2GzqvYzFgAAC9IgDh38z2cm2TTbJhSxroW6TnJn0vos+v8+9ZWnTi764/1+cc5/rjXD0NBbewtH1jSj30jP5K0ssnOyDM2ee12BUBgQQoAfYlGk7ShpoN1BbsqWNdmscvtPh2jh97w+fedOvytauF332zadLmtPqu1rKNul7LJL0q5TvaSk/myX+DkWPhWoXi1ja4u7Nl76ZURkQQIBeTA5OuxS4rMVjg42Bz5WyYZ2zONKH9OytYEqMJDjEuB9S7qU2pXecO4JRGRBAgJ7QfHniWbtH+5vM7HO/+cQej5S1ZS/57H43OumbIUqM9DsWyYSjH1mmvSv3Us1YqCixOPBVx/xkOuMyIIAAueN2KmRmo9O901c88YPS67UbOVmmZd7TJ1mm423CQzh8o0G5lxLEYlI8GL+NcRkQQIC8MW1ZxEnOzM44f3jWyrI37yWfe8tD5vRDSoyEFY41X0u5lyrFwpn+hYEZEECAHNn/pMvXk7ROyvnJZ05JO8ktmeCW/aAq7WyRvt619Sgxkkg4KPdS5VjYG3c+8ruTGaEBAQTIiXgofkGXacjzYj5dZmPbSc7c//360295qirtfMln9/+Hk/6aTTgo91Ic+SMWOcdiUjRlaE9GaEAAAXLCxc0tvOQvp8zGtp/LxedWTradzvVtE8q9+BylKuVeiEWr1zlz+zJCAwIIkJcAyrbsOvD3/hbXiqlD0+ZU7mS3+MKWbRIwy1ThY5H+4/gdYtwPKfdCLGz14PQGRmhAAAHy64LP77ge0J/9TfPPP3bXZVVr6T9+4cBbnXRfN/mrd6JBceSvYBdF9YuFaRueDQwIIEBuxM8tnnC4uVVtbZMuQ/7a2kQC81Cg1xKLpLGw3sXCNUfi1zFGAwIIkIuQuPWLNsmZdFOF2/vmugpHFpvIL+kD+Usv4vnHwpxeySgNCCBALkKidZNerec9yZnFt1S1vZ3ZLeFKjKjnwtH1Q1Uy47d6sVBpYmE7MkoDAgiQi5CsFsB+PMi+9bGa1rirusLdvNNDCQoTi/TvScYvsQgh4m4nRmlAAAFyMUCt27/MxtY8scG6i6va3LEbXOwtHAWIRbosUw/hIOM3YyysWrFo/9ONX/XR723MQA0IIEBIzJxk6/hOcj26xbXi6qN2Galqkw80Vz6V3baKvtesfPJXvlioNrFousEXM1gDAggQkH3PvnCapEbBJrmRKrf5iKKVrVuBEiNrC4f3lQwZv7nHwvoYC3shozUggAABGVg6uG4BJ7nJq1Ymq8lEDUxFOEJnmfocFfnLFgv1MxYIICCAACFpDrqJBZzkot2/NGdKVdt8NIqnpcsypdxL6z8IWe6FWBQnFmt8+ecxWgMCCBBSAEeiQe8xuodlLQYmNKtb/d/Zxi0bgHIvBSj3QiyKE4sxV4ROGzJaAwIIEJBG5AY91zh6wur3bGj0JVVtc5N7qdeknlssKPfSUf6IReFiYYYAAgIIENpGBrwG6l5nNrropdVt8/glnb983rFQslh0fC3lXohFD2Jh2ojBGhBAgJCdL2oOdl1v6MP+JjPbpcLS/UrKvfRPONLbFrHoWyycKrsnGBBAgP64yForgMWY5Jz0xiq292tP+dU0Oe1cDeGg3Aux6FksJjJaAwIIEJDYjd0DWKhJbrM3n3Jh5W4DT1reeL2kwfoIB+VeiEX2WDi5CYzWgAAChOTZFcDiTXIWN2ZVrrmdzaqScCiDcFDuhVj4N48hgIAAAgTtfLFzSeeUEJNc1zdaNRm9q0oFoQ8c/s1kSW+jxAjlXohF0li4yhaGBwQQoG+kLTGR+3uattr7lIteV5V2Xha5QyRNDROL/sefci/EonexiBmoAQEECEvTczzux4PsTYr16Sq08szzzmuY7FO9LTESOBbdjky5F2LRi1gAIIAAgfWvgGUtnGzffU78/cvL3s6P3Tx5pkwv7fTFy19ixNdfKPdCLFLGAgABBAhMcTe3O0lfL/NewNeced4kmX21vMKRPcuUci/EAvkDQAAB+Us0yZnTbnuffNFhZW3eyU9N+ndJW9ZVONZ8bcgSI0L+ah8LAAQQIHcr7GtZC7Mz33TKRZuVrRXfOPybl0v6VNmFQxmEo/9ZptWSP2IBgAAC9E4H+1/W4jlu1H4687zzGmVps92Hz5vqnH4qaULW+b1gsahpuRdiUeRYACCAANl1L+CRQpa1sDcs/sfUr5ahBWeed16j4Sb9WGqd+FHY0jvesfAUjkTfoejlXohFcWIBgAAC5C5/+Ze18PjxMysX5tyn9jnhgo8VvRUfu3HSmZIO9vqGVs5YeB2Oci/EIngsABBAgILLXz4Psjfnztj7xAveW8wmNLfnl37zVTl9xGuNw8odiyIIR3rbIhbliwUAAghQM/mzceeM+/7eJ144XKQWnHneeY09v/y7b0v692oLR8gSI6LcS2FiUfTSOwAIIEDl5C/FDOYkHb/PiRd+7zVnnjep3y24+/BvNnzspkm/k+yougrHmq8NnWiA/OUfC5UqFgAIIEBoHSxRZmMs/dvUpdPm7/3VP2zdr/Z64wm/e33D6RpJ+2TzXkqMtD0y5V6IBUAFGaAJoOBK6PmqvmU27mhx8/o3nfC7b7sJA5+96JP7LOlFq+x20m/XmzBiw4rjD3e6kAub2dhjEU8SC8q9FOKiiHIvAAggQHK9SLl3qwAPsh+U3EdsRfOgvb5ywVfXaz79o/OHZ63Mo41ee8qvpk1cGX1YI3acpA16m2XaYxFPEgvKvRTpoohYACCAAPmucoR/kH2mshYvcE7nPNGY+vm9T/zdd2QDP7no8/vcG6J99hy+YFvn4iNshb1f0vrd56d+3W5UUWLR+i/6lGUqYhE0Fv0ovQOAAAKUUv5ClrXo8kKnLczcV6XRE/Y64XeXOrM/yLlL1n3JkmvOnzWr6dMmM4fPG3pyYMqrm7Ht6aT9TfHORomRzMLhfWSSPnKPRZlK7wAggACVlr/gmY2Rk/YwuT1k0uO3TFm611d+d4uTu0Vm98TOPe1kTztZZHJTLbZpztkLnNzWj0tbWWxDLb8rWabJ52kvl0D+ehmLcos4AAIIEFoJc5vklGGSC7S5fbKkl5nsZXKSk62amJ45rnPSP39abeEoQCy8ux+xIBYAVYQyMFAq+es62lcyszHhnN0j4SAWxKJ+sQBAAAH6pIhkNmZrlwwiTiyIRa1jAYAAAuSidt1+XIByL14rF2XKbCxx6R1iQSxUtDJIAAggQC7yV5hyL8EnufQzfNH3mhELYlGFWAAggAAFl78elnsZN8l5H5ksU2JBLMofCwAEECA/J6zOg+wRDmJBLJA/AAQQILdJLsvyRX/LWvh+HUqMEAtigfwBIIBQQfnrOgDzIPueCQexIBbEAgABBOiRC1LWIlu7EAtiQSwCXYkCIIAAOc5s/sMvZS26vDb07UZiQSzqFAsABBCgT/IXsqyF75xJiRFiQbkXYoERAgIIUHD5y57ZSFkLYlHfWIhYZLJoAAQQIKAHVqGshRAOYkEskD8ABBAgL/nLsnxRjgfZU2KEWFDuBfkDQACh4gqYdJKjrEXHj5tykiMW6WNBuZfqxgIAAQQIrH6UtQjZLsSin7HgvKh3LAAQQIBQI6//jylr0eGrhSwxQiyKEwvKvfQ9FgAIIECe8hcys5GyFq0/jhGL0sVCxKKfsQBAAAGKIH8hS4yIEiOFiQXlXogF8geAAALyl3YG61tmI8KRLRYiFsQC+QNAAKGO8pdl+YISI2GFg1gQi1rHAgABBOid/FHWouPHTTzJdX0jYkEsiAUAAgjQRxOkrEUOExMlRogFscjyngAIIEAeztf5xxV7kL3fXEa5F99YUHqHWOQSCwAEECBP+etfiRHvI5NokHssKDFCLIobCwAEECA7zTSTXJLZLpPXIX99igUiHjYWlEFC/gAQQCgoVXiQffWEg1hUTcSJBfIHgABCQeWvvJmNCf2pR5Nc1w9lxKIMsRCxKO5FEQACCJCUUc85ggfZK/f3JMuUWPSr3Eu6WBRCxAEQQIAcplAyG5N9tSQfZ83GIxbEIlksAol4llikH2t6X2IGAAEEKLH8pZ/hy7O/iVgQi+rHAucDQAChwPLn+Xc8yD6jcBixIBbEImksABBAgPSMZp3Bgj/InkmOWBALYoH8AQII0FtKUWLE5xflmuSIBbHIHoualEECQAABqiZ//XiQPeVeiAWld0oTCwAEECB3C+zy2zqVGFHg96TcS179k1jUIRYA1WGAJoC+XX3E0T/cgH1GsaRV/6cta/zW+Rw9fvaPnO8HGvPCZqcXxN6ftMsHWPMXcdPzeB7Han2IOMGRPVqt9QdO0jKtXxFn6laTJB3fchqn3IsovZMyFgAVxNEEAFAVdh/+33VHl698vBpJH8Ur91LTBJzRa7515CBnF1QNbgEDQMWg3Es7+fM+MvKXsH0BEEAAgD7rXxWEg3IvpYoFAAIIAFBEEyyWcCiDcFB6pzixAEAAAQBqJn9dBYHSO5WOBQACCABQS8ek3Eu2dilvLAAQQACA4pmZ9y+y3W70+QyUe6laLAAQQACAovFEr4TD93ajj3D4+kvvyr2klb9i7/vLHgsABBAAoDSUN8uUci/FiQUAAggAgPz1TjiCl3sR8of8ASCAAID85SUcyiAc/c/4rZb8ZYkFAAIIAFBWHaTci/pT7qUCsQBAAAEASqF7AY9EuZeQ7VLOWAAggAAApZO//EuMePyYci89ikW/Su8AIIAAAH3iicDCETrRoDjyl962ql/uBfkDBBAAoMRQ7oVyL/nHAgABBABA/tLaBOVeyhkLAAQQAKCe8qcMwkG5lxLHAqDEDNAEvWevk/+4zgSnzWLXeE7D2fpNi6fJoumSplhk67jYX8xjj5/4/Kr9a+PUh2h93GRHMN8PGidvKa9XWYjG7PzncfZWHXdcC9AS4/4iDvJVE8Us9v7g//zFiHMTWn9/yr200bNk/pTQjSpdeifNhcnCY18tp7fWYqKLo+WSlimKF8v0mKRH5KJFWj5wr3v+yY9jAghgJRkeHo7+Mvl1Wyqy7Z1FW8nshZJe5Jy2NNPmkiaZJCdTbKv+S27VoOPiZFfWLoVJeV1Zu9YDq2s/anpcfPt+4BSb2123Sc55rXL4L5W4gKscLvHKRSWyTLscz3XtfK2OZ6n37VPuJWy7ZBKlwsciJU4vk7lP12IidKvHBLfmQDlhRLbwuMWS7pHpH5L+LukGNaLrtNFptznH8isCWCbZm7rb1s7cq8zcq51zL/ur4m2dNEXm1phozboMc6XMpiuWcHh8eb8ph1jUMBaqbCyqWe6lX7GAAEyXtJ2ctpP0Nkmr7g49dNyjtlBXyDRXzl2qjade6dxwTHMhgIURvr9OfsMOkbM3mvTGK6XdnGkdSXJOWuM+VS02VPsMrP7X/WQ25h0LIxY1jIWIBfJXDjaQdKCcDpRMeujpRfbgJy6U9Ds5/c5tcvoSmggB7CkHnTJ3WtwY2UdmB10p7etkGxqTnPqT2YhwZIuFiAWxIBai3Es5sI3kdISkIyQ9bQuP+5XMfqpN7v2Dc+c3aR8EMBf2/cYF0xsjE98qc4c0tfKNMk3wHsPJpstxc7vIbCxVLIxYEItCxiLxBSr0m6mSDpfT4XroeQ/ag8eeI41802169iKaBgHMzMzzzmssu/s5+5mzI7RS+5s0qT/ZdOEG1q4fisxGYpFrLEQsiEX5YwEFYI1YbSqn46XBz9jCY38sZye7jc+6gzZCABNzwJmXbG7N6J1L79EH5ez53Qal/LPpQp4yZDbmHwsjFsSCWFQ2FlAw+Rt71TFB0vtleo89+PFzFenLiCAC6MX+p/9pZyd91GJ3qNz4tuDh6W0umT0OV7fMRhELYkEsKhkLKKT8rR3rAUn/qliH2cKP/1Bx9Dm32RmP0Hadqd+TQMzcAafNOfiA02fPl9xVJveutUWYEiNFn+SIBbEgFsQC+au6+FnCWNugzI6Ua95sCz/2XjP/UrkIYPXF78ADzphzpTn7pUmvTjqwUtYi0UV610nO+8jEglgQC2Ihyr3US/5azuOd5G/sPzaQ6T+18GOX2gMf3pr2rLEAHnjmpXsfcMacv8nZr03aOU3fo5SCT5tR7oVYEAtiUeRYQPHFr03nNkv2N6t+9zq5xt/swY8ezWrg2lR6D+D+Z126TRTblyyOZ/qd/zw8PenASrkXYkEsiEWlYgF9lL/250byDv7s7yZJ+qYe/Nhb7OGV/+qe862FtHWFBXD/ky5fLxpqnmixHWlmjbDyR4mR/Cc5YkEsiAWx6EMsoDjy1zVulvRYe2t04Cpb+NG3u02+/hfavIK3gPc/Y85MN9S8yaQPSgnkz2/o8+zKlHtp9xfEglgQi6rFgnIvkKXvJE708Jc/G3ssk6TNFduldv9H30fbV2gFcL/TL3l+pMb3Je019mqZh6eLshbEglgQixxjoQrEAvojf61+HHLVr+XvJsjZ9+3BY7bSJmf/u3P1vUKoxArg/mfMmRm5xjVyYeQv/UhWhVIKvuM0ZS2IBSVGiAXlXiCN+AVN9OjQT6zT+fdpPfiRH9uC4aG6RqLUK4D7fuOyjRoj8f+TtN/4gdV7+iSbrtvVUpKXtJzkiAWxKH8sRCwqGQvovfy1+nHmRI8EHWDs7+ydWu/RDe3ej7/NPe+sZXWLRmlXAA88809vaIzE16wpfwkumBlY042awctaEAtiQSyQvz7FAvorf6YMt3yTyl/bFcE3qzFyoT189FQEsPB9yNz+Z8z5gll0iaTNW41UlHtJcNlcqQfZEwtiQbkXYoH8FU/8eprokUYk36CR6Fd278cnIYAFZeY3Z0894MxLf+GkL0tq5DvJhSyloGADa9c3oqwFsShNLCj3Qiwo91J9+Wt3LqSWtQT9w/N9Vv3nGxWNnGc2PFCX6JRGAA86c/aLly13f5Z0cLtAFreUggU8nShrQSwo90IsiEX6WEBvxC/HRI9Mq34t5W/1Pw7QA4v+n9lwLZ6SVoovud/pl74+NvdXSTPaXS1T1kKlz2wkFsQi31hQ7oVYQG/kr9WPA8hahz7kdzxb8zxrvRp9uO5f9BUEsAAccOacgyNnv5e0XuiBNf1IxsPTiQWxKF8sRCxqHQvoi/wVI9Gjw7nT4m+cPmsPfOhdCGA/5e/0Sz8q0/9o1bP8Ug0SZNMp4QmUspQCsShILCgxQiyIBfRD/Aqf6NGxL6597tr37P6jd0UA+8D+Z1z6aTn7WtvPGDSbjoE12YlLLIobCxELYkEsoMfy125eKFiihyX6mwmSfmF3HbkpAthDDjhj9rCTnZxdOEKWtShXNl3agZUSI2EnOWJBLIhFn2MBOYpfKRM9ksjsJhoaONdsZgMB7In8zTlFcsd3C1DtH56eVymFBJ+Pci85x4LSO8SCWCB/hZW/dp2pFIke/mJqtoce2ODzCGDO7H/GnC9I+lS3AZOHpycYWD2PmGpzex9EXJR7KeFFEbEgFv2IBfRM/sqY6OH72UySuc/bPUe/AgHMiQPOnP3hZwo85yJ/6W2Lh6cTCxGL3C+KiAVlkELGAvIRv4olenR7n3/+ekCR/cjufPdEBDAw+58x+50y941uA6v3lQkbqr0vlNNOcsRClSj3Qiy4KKpeLCAf+Wv149InerSf49bep7CNhiYejwAGZL/TL329k/u+JJdtzGSSS3ZCJRuEiUVxY4H8hY0FZZBKHgsILH6VT/RY88NYx3P3U/bAkbshgAE48PTZW0fO/k+r0q07XGHw8PTqPcjeiAWxKGQsRCwKeFGEAfZH/tr194olerS9OFvrbyLF0fft3o9PQgAzcPB/XLyBOXeBWj7hI+nAysPTiyMc9S29QyyIRVVjQbkX5K/6iR7ef/NSuSWfQwBTMjxs0eiKgZ9I2rJbZ6p9uRe/tYJE71vPB9kTC2JR71hQ7gX8+nRtEz0SfB93nD34gRcggCm4avplJ5r05m5Xy5R7EQ+yJxbEglgEiUV6JaDcS33kr92VQ5USPdKs+q31u4lq2ikIYEIOPH32W2X26bwG1vSzCuVeiAWxIBbEgnIvdRS/oiZ6pFn1k5Kv+qUS01l2z1GvRwA92feU2c+1jhm/lBjp1tGzl1JIMCgQC2JBLIhFz2OB/PVW/lr9uFerflLyVb9UsqZst3xbjQMmOfua2XBU1uj37IMPD1vUGHQ/ktMG2S6YGVhTz2DBH2RPLIgFsSAWfSqDBBnFL3SiR9K4FzrRo4v8PfuPl+ne+49AALtw1fQ5n5Xpje37FeVeOg2sWZYv+ltihFgQC2JRB/nraSwgo/wlvRCqY6JHK/FrcQfAuRPLWhamJwJ4wBl/2tGZ+2L2gZVyL8WZ5IgFsSAW6WMhYoH8FUj+SPToLn9t/2Yz6el/QwBbsPvw7AGp8Z8mDXZq8HKXtVDg96SsBbGg3AuxIBYQMv4keqQSU+v0dJBnf/Epu/WYCQjgOKZO12ck27mTVfPwdFHWglhUMBYiFsQiYCwgqPyT6NH9fcz7b56rScv+FQEcw0Ff+9NLZe7zeQys6UeyKpS18B2nKWtBLCj3QiyqEAtIJ34kegRI9PD7G9PnbMHMIQTwGeI4Okstn/NLKYX2Hd9HOEI+PJ1YEAvKvRCLIscC0slfUjkn0aNtokfXDmuStIWmrXsYAijpwDP+9HaZ9s10wczAmm7UDF7WglgUJxYIB7GoWSwgkPyR6NFd/pStfZx9zmx4oNYCuPdpf5hiis5s3wl7nU1HKQViQbkXYkEsKPdSdfEj0SPHRA+f93mx7rvnwFoL4ITGhOMkbZG/cIQsa6FgA2vXN6LESM8mOWJBLIhFSWMBCeWvXX8m0SNQooefaFt0dG0FcN9vXLaRmY5r15jFLaVQp4enU+6FWBALYlHkWIB/fEj06Fmih5do21529/tn1FIAGyPN4yVNb9XQlBhR6TMbKfdCLIgFscg3FpBp0YJEj+7vkz7Rw0+0o+aRtRPAfU+95EWSe3/IgTX9SMbD00NPctWNhYgFsSAWhYgFZJM/Ej26y5+yt0830Y71Hlv03mm1EsBG1PicpKGkgwTZdEp48lHWglgQC2JRtViAXz8k0aPPiR7dRdtpmpbq0NoI4IFfn7uFnA5vNVJRYiTswOp1BZJ28YJYEAtiQSz6EQtI3gF9ZMRXlEj0CCvaTh+qjQDGoyOf1djVP0qMJLwKEuVeiAWxIBb1jAV0aU0SPYqV6OH1NzvYPe9+ReUF8IAzL9ncyb07wZCTcGCl3EtxJjliQSyIBbFA/nonfx0bOZvckOjhJ8dpRdu5wysvgLLGh/TsI98Sbqj2HVi7Ho1yL+3+glgQC2JBLIoZC0gufyR6dJc/ZW+fMKJ9aJGfDJJZAGeeecUkmY5MJX8Bs+n8+gzlXnxjQekdYkEsRLmXXGMBiWWERA8VJtHDr32eo7vveVNlBXBpPPIuOW1ANp26nhS9LmuRJRYiFoUQDmJBLPKPhfoQC+i5jHSQ/kSy1vLQNU308BFtFxf2NnBmAXTOjvEfM5G/5Cej/0uSzV/EImksLEMsuCgiFsQCOgeFRI8SJnq0l79//sfB9vDRUysngPufcemukraj3EvngTXLqNnfB9kTiw4BIRaFuCgiFpR7qYL8JW1TEj0Kk+jRfZV1spYtPbhyAujM/q0/pRR4eHq2SY5YEAsuivKNBReokEX+SPToLn8BZK1Xom06rFICOPObs6fK2UzvgdVv6PM8ZSz/EzD1e5LZSCwqHAtL99ko95Lo41bzogj8ZIRED5Uq0cPnnHG2p9357nUrI4BLl9lhMk0tfzad38VPmqtlMhuJReVikUQ4k8SiliJOuZf6yl8fZcRH1loemkSPDKI9qEa8T2UE0Dn3TrLpVPqyFsSCWKSPhSobC0rvhIwFdG1QEj1U7FU/ZRft2L2lEgJ40CkXbSZzr007yVHuJdGCSddJzvvIxIJYlDoWlEEqXyyge4OS6BF21a/DAJtfokf3v3HazxbMHCq9ADYbg4eaLGKSSzqw9uNB9sSCWFAGiVhQ7qV48keiR3f5CyBrxRHtdTR10utLL4CSm5VmwCabzsc1+lHWglgUJxaU3iEWFSmDBB18g0SPyiV6+Hw2p0LdBk4sgG8549LnSfaKjh2k59l0lBghFpR7IRbEojCxqBYj4eTPhkj06PI+5U306P4+sQ42kyutAI5a80Cp3RcoclkLBX5PMhuzXQITC2JBLKoZi8qxImCIh1LLmrf8kejRt0SP7qK9ue48YvvSCqDMHZjkKoCHp/scjhIjxIJYEIsqxKKCuIACKJuYWm5I9PCT434meviItrM9SymAq4o/a3f/zpB+YKXESNhJjlgQC2JBLJC/NM7mloeTSTfUdxkh0aO/ou20VykFcMlS21PSRN+BlbIWiS7Su05y3kcmFsSCWBCLnsai0gb4eLhDaRKJHmNOhiomenQX7TcUpRxMIgF0TnsysPqcA5QYIRbEgljUKBbVFsBHAh5rg3Ay4iFrLQ9NokefRXuKJk98TekEUIr29GkTSoz4jKmUeyEWxIJYVCAWFcfJPRrwcBsl66AkelTy0XkF2QfoLYD7nTp7E8m2WdPivYa+ZGNTjwbWrh+Kci/EglgQC2JRe0wKuAKoDQu0EqXqrfpJJcmoflOpBFDO3qhny79Q7iXh0kFNy1oQC2JBLKobi7rg7g4vgFVL9OjyPqkSPTpeoaRvn2KI9ivs7sPWK40AOrnXd7oqoNyLz+F4kD2xIBbEogqxqBV3BTzWxuVc9Usha6v7Uz0TPbp9toZku5VGAOXc6yilkHzxgLIWxIJYEIv+xgL5y4RzQQTQHvroxpJNzV9GUsoaiR7qaUZ1HPVdAAd8XrTPmb9fX3G8dbvvQzZdoov0rpOc9/RJLIgFsSAWotxLnjRt9LZAJvnC1n0vYxHkvpV3aferQEWdu16UhNzr53k8C9A+//zd6/rdt71WABs2YVdJEQNrilEzeFkLjz5OLIhF7WKB/PUkFnXDdN8N3z46TB3Apl4YdCWqtuVdQstf3zKqd7EHjpxceAGMTK+llEKygbUcD7InFsSCci/EAvlri7MbAtrklpUt70KiRxrRHtSKpa8svACa2a4eQ1+ysSnhuENZiyTCQSyIBbGg3AvyF8AA/x7uUJpBoke386JSiR7dRdvivu4D7LoHcN9vXDBBK/RKr4G16zCdrqxBpmsuyloQC2JBLCj3kiEWtRbAK8MF2nZMHq+c9p/19Tm+Ha9I0reP9wWQJTxWxuN1Em3X332AXVcAo5EJO2vM83+rWUrB48eUtSAWtYsF5V6IRb2JB6L5Qdzv3o9PkrRVGPnjiR6VeXSe0642e/eBfvXvrgJosXttuquTDte4lc6mo6wFsaDcC7GoQizqjrv7+rPff1+QQw3E22mtO24ketQg0aPb556qLTfeobACqDH7/8imS3SR7j0vpZnkiEWoWFBihFgQC2hFPC/YoUw7FV5GfN6HRI/wom3R6wsrgM6tWgGs+sCaedTsW2Yjk1y2WIhYEAtiAS0mP/0x3MHstcWQkRSytrqzk+gRULTXiFHfEkE63nve/6yLX6hRbZSulALZdNnkjxIjxIJYEIs+xAIkyVw0elG4w8Wvk5w8O0g2WSPRQ4VK9Oj2c6dd+9XJO68AjjZeWYxsunyzKauf2Zj4T5LHghIjAS+KxEURsehPLGDVnGz6+zX/ccwDQWavez+++aqngCSRPxI9KpPo0f2zbWq3z9yicAJoslf4X6n4WnaaK+sUF06eA2btMhuVUywQ8dzaJZuuEwtigfwljpXTb8PNss3XdRQLEj38fl7lItqu0ZeC0N32AL4qjXDw8PSw8pfefPsVCxGL3C+KiAVlkELGAtbAReeFO5b2KpWMkOjRW9G28a5VAAHcfXj2gLQ6c4kSI1knOe8js7mdWNQoFpR7KUIsYBx3XPutI68NcSAzOSl+c29lJIWsre4vJHoEFO1u8rfGVUKxVgCnTrMZkqaQTZduEE42fyEcxKKesUDEw8aCci8BpM1ZuNW/B47ZSXKbp99/lvTcKPIt3yKv+nnEwQK0T1vRtl36URC6rQDGsXu1/4BNNl37qyDKWhALYkEsei3iGGBaGop/HOxgTvuT6JHws1Uz0aObaE/W8zeeURgBlOwVPDy9F5NcyLIWxIJYEIuyx6JnIg6tmPe3b33opnCHswNKKCPJPhuJHn7v0020nev5PsCow0DtdU+aci/t/6LcD7InFsSCWOQSCytCLKD1tGc/CHasBz70fEmvJNHD43j1SPTo0gbW832ALe85Hzj8m8lNp227jyeUe2l3cpU/s5FYEAtikUss1O9YQBset6lTfh7weIfJxlZ/DrnXL+XxLEAhZq/+FnrVL+mJ16u9ft3kL9HfFGMFcHTa1B0kNSj30ttJLv2sQiyIBbEgFpCR71x/+hFLgh3N3DvykT8SPcqZ6NH1u25jNx80re8C6CzeiVIKSS/nKTFCLIgFsaDcS0kZiQca3wrmfg8es62kHUn0aPM+9Uz06PbZGhqcsGP/BTDWDtUfWPvxIHsmOWJBLIhFn0rvQCd+dv3Z778v2NEsfi+JHt1O6ooleoQQbbe69nIfBdBkLyv7wJpl+aK/ZS18vw6xIBbEglhggAFoxoq/Gsz9FgwPyXREX2WERI+Ci3ab38WuvyuAw8PDkXNuu/TjGGUtkpyQ+T7InlgQC2JR+1hAN869/ttH3xLsaOs+/HZJG2WXkRSyFmolao0Tgyd6hBftNoOes536KoB/nbbbi800tct1dU+grEXWdiEWxIJYpG3lasQCujCqWCeEPUGjoxKLBYke3d+nGoke3UR7+14+EWQtAbSmXuYV1JyvrClrIf8TjFgQC2IROBaqQCygG86571z73Q/cGsz97v3w9nL2em+xINHD70SrTxHtCXruBi/tmwA6px07XuOWspSC7zhNWQtiQYkRYkG5l5rwRDSqL4U1yvhTkhyJHgFkTarno/Mit1P/BNDGbkLk4entJjlvlSGzkVgUNhYiFpWMBfjJmk68+pyjHgl1OLvvmOcqcu8g0SOjrHU5jxJ/tqIlenQTbWc9SwQZWPuzue1XNxBlLTIsXjDJEQtigfz1Ixbgw4KRRet/I+whR4+TucHkJwhP9CjGXr80F7ehRVuS9W4FcA0B3H149lQpfi6lFDqfdL19kD2xIBaUeyEWyF9AYpkdteD8WStDHdAePGYjxc1/S74SlUIseikjPr8LtdfP+xyq/KPzeiaAa9wCnjxJW0tyScaxEANr9yB4rRWUTDhClrUgFsWJBeVeiAXlXgrO96/9zgfnBT2ixZ+RxlfPINEjXXmX0PJXuozqjeyut23acwGU4m3SljXIdO5Q1iJouxCLfsZCxIJY9CEW4IOT7m0q/kzQvnHXkZvK7AMVlZH275PbLV8enadRbd1zAXTOtvaLXz/KWnj8mLIWPYoFJUaIBbEoTizAk9jMjrjh20c/HvSoQwNflDQ5FxlRSBkJIGtrvHXGVcR6lXdJcDxJzvVEANfYA2jObf3sh+bh6aKsRRYRJxbEgljkHwvwxtzp137nA3OCHvLeo7aS9L7uMpJUBESih8/7lDXRo9vvnNum9wJotk255S9kiRFR1qIwsaDECLEgFpCJv4w8ut4Xgh+10ThLpkESPRK8D4ke3X/e7PEt4J2/e9WgpBdRSmHNL0eJkSLEQsSCWBALSMtjLhp9R8isX0my+z/0JpntT6IHiR7BH53n4p6sAD4rgBs9sfiFMg0VdWDNcslMiRFiQSyIRaViAb40FeuQa7754buDyt9VRw5K8dmVlhFv+fM4UUj0SCram9uth0/vmQBK8n7+HGUtkkxylHshFsSCWCB/fcHpuGu/+4E/Bj/upgMfl+mlJHp0+dwkeqQVbadoWe7PBI7++W72whSX58mumihrEbRdiAWxIBZ1iwUkiOb3r/3WB74e/KgLP7ylzL6YXUbUZSUqQZ96VkYKdss3q6zV+dF5cf77AKMxHfEFXkM35V7axjHdly9yWQtiQSyIRXFiAQk07cJ1N37og8GPanIabZ4jaUpqWXv2vAq4ElWb5/imkLWuol3QvZXjy/LlwMAYFXxht6BVvdyL95FrU9aC0jvEglgUIxYg/17751EXz5ozPDwa/OD3ffB9ctors4wk/ZtSlnfJeDwyqnsogKYXlGdgTTLChvI6ylokjQWld4gFsQgUC/DCmW5ouni/Bd/60NPBxfKBDz1fcXxapWQkN/krQG2/Uor22N/ZlnmfL2OTQF5QlIE1y6jZ3wfZV2+SyzyDEYuCXRQRC8q9VJa/j4w23hT8SR+SzIYjxfH/k7QuiR7j/oZEj4CiPfZ37gU9EcADT5+9oaRpPMheiU7edGUteJB9nWNBuZd6XxSR8Zsb1zSabo+/f//9D+Vy9Ace+rxku5Po0emCjkSPwKK9nt351nVzF8CRkWaCpcZ8M/jIbEx0XUosShYLhYoF5V6qf1EEvmfKn5uK97z6nKMeyeX49x31Gpl9IdUqEIkeItEjQ/uMjN2al5MARs629L+yTnhRkOBqmczGpKscxKK2sailiFPuBdbiouUrBvfO47bvKvn70AaS+6nGPTa16+TNEz3EEz0CiHbUAwGMnZ4f6so6/MPTiyUc6Wf4KjzInlgQi/CxUF9ioQLHAnxwzn13q0fW3++WH7zvqVzkz2Y2ZKM/lVpNwjzRgyd6pBVtzzisin+uiSADkhSZNjXX60kuZCmFBMsxZDYSi9rEwohF6WIBHoya9Olrv3XUmdfk+S73rX+SnNs7kSiF2OvX9cIil5IjCa+a6lLeJeHxQou2y3cFcOCZN9mkmANrPx5kzyRHLCiDRCz6FAvoxqNO0SHXfvvIi/N8E7vvA7MkfcI7kBayJEuRa/sVoLxLuWv7JTiWJFP+K4CxtIkTmY1e51KiwZ3MxvxjQekdYkHGb034i8wOueY7R96Vq/zdc/QrpPiHklxxVqIKICNBV/1SHq82RbSf/Uf+AuikTSgx0v5kzjezkXIv2WIhYkEsyh8L6NxTnZ09umiDTy44f9bKfOXvyBcpin8naTIykpf81e6JHllE+/m5C6CkjVOfMJQYydguAQcvYtGDWFB6h1iQ8ds73N0usvdd+80PXpL7+Hnv+9aXi34naaPSyUhu8scTPbI/0SOTaE+z6/ae4na8aEkefT7a9xsXTDDTemmurCkxkvRKIb9VDmLRq1iIWBCLgLGADk15zrIVA9tf880P5C9/Dxw5WW7oV5JeyhM9EvyNt/zV+YkevqLd5m8mT94kr34/MLJ0cOOBNfY6JBGOkGUtfMdpSozkHwvKvRALYoH89QdnuiGO3NHXfeuouT0xzQUzh2TRLyXbjUSPjJ+NRI8UF79d/iaKN5V0ex59Pxp02izfgbUfD0+nrEW2WIhYEAtikWssoAVPyOlj62yy8OU9k7+rjhzUOhv8QqZ9eKJHxs/GEz38RNsS/k0c5bcC2HRuw+jZzk2JESY5YkEsiEXusYCxrDBn340aE0645uz3LurVm9qCmUNaJzpXsgM6ykjWlaOux0ooSiR6eI4HZVz1a/E7Z/kJYBTH6666A0xZi4TzUyknOWJBLIhFn2MBqxk16UcDTfflq8/5wD29fGO79ZgJmrjyvyV7a2lkJDf5I9Gjz4ke3d5n47zOgwFzbl1nlLVoMw0lmyd6NMkRC2JBLEoaC5CkFSZ3niJ3wnXfPPIfvX5ze+DIyYpX/p+kNyWTP57o0fn854keuYi2adPcBDCS1vEZuihrkbVdAg5gxIJYEIsSxqLeOOlemfteFOvbV59z1CP9+Ax27/vWV+x+Lem1yVaPSPQg0SPhZwtXRDu/W8Aym574osGzg1LWIvwqB7EgFsSijLGoLaNOujA2O2erRze48PzzZzX79UHswQ+8QE27UNLWyEhqGQkjf/V7okcG0Xb5CWAsW891qAJDuRfP9YZSlrUgFsSCWCB/wYklzZfT+aMrG//99++//yFJuq6PH8juOWoXxfYbqcVqCokeItGjl6KdRP4kmW2YmwDKRdPX6LSUe6nAJEcsiAWxSB8LBYxFbXhC0h9NurA50rhgtfQVAbv3AwfL2X/JNKXwMlLolaiMIkmiRzrRdrZObgLoFK/zbB3oSpa18Ig9wkEsahcL5K8nsaguD0u6wpxdpljz1tvkob/NGR4eLdIHNJPTfUd9Ss6+Kinykz8SPTqPDyR69EG0p5sNR84Nx8EFUNI6oQbWLJfM5XiQPWUtiAXlXohFbeQvlukB53Snye6Q040W67poYPSGa/7jmAeK/MHt0WOm676VP5LTW3NbiSLRw+992FuZVbQj3faXqZIWhxdAc1MpaxGyrIWCTXLEojaxeFSyRTL3qJN7xGSPKNLKOF51wjuzpc65FT7ztdyqDVhdabqWP3bjj+dzqLF/Fbd/VUYVGdeEgS6GY7/vGvzSuyA4ZyaLnnjmn0+bxY9aI1o0OKJHnpyw4qHbzv7IirJ9J7vnqF20bMXP5NyLkZEQMpLyeCR6hBPtaGDdfARQbmjN2yOUtfBY40gR8BQDGbGoUiweldO1Tu7vZnZ77OwOZ+7OSdNG7pgz/J7lAoBs5+iqW74fkdOpq+a1OspIaPkj0aMQor2ymcs+wAGZDXpPlyV/kH01y1oQi+LE4tn/WGqmv8jZZVLj6mbsrr3yzEPvZYoGyEn+Hvq3jfVA40dy2qfwMpKb/JHoUVnRjho5CaA06LWWk1s2HWUtWn8cYlGiWIyYaa4i/T6y6PIVi5+66upzjhphWgbogfzdd+RMjbhvSdrQT/5I9MgkIx3mBEQ7J9F2cT4C6KShOBfhCFnWQpS1KEwsKDHyDI/J9FuT+91IY+APV58y60mmYoAeit9dR26qQfdNmQ72POlFokcAGfGeExDtcKKdTymYgVga6nU2nd+JtfbJTImRsPKXLhaqcyyWS7pY0o8XTxn81YLhWSuZhgF6LH42s6EHNvigzE6QaR3/C1T2n4Vd9ROJHj0T7Wh6LgIo/XMPYBL5K2+WaUKXLbj8ZRFxyr14x2KeM/edpzX6v9effsQSpmCAPsnfPUe9XvfrG5LtiIz0U/4Q7Z5mVMfxhJwEUENJl3LIMk00ZHn+mHIvWb03hPyN+cFTkn7WiOJvzT3lXf18ihUA4vfAkVvIopNkdqjU4tmlhd1/llHWgsgfiR7lz6i23ARwsPPn4UH2vgFL+2hQyr2EbZdsum73OWdfc1pxzrxT3/cUUy9AH8Xvvg9tIDf6ScX6qGQTfS84eycjneYMEj1I9Agk2lE0mJcApl8oKaj8JTupOigH5V76Ggv1NhYLYqfTnpo8+DP29gH0WfxuP3IdDUUfl0aPlWlaGBnpJBDsPyPRo8CibfFQHufZgKRRjV0F7PvD08kyzT8WRiz++eO75Oykze8c/M/zz5/VFAD0T/wWfuA5GtHRcvqIZOslH5fYf1bYRA9EO4Nou9wEsPmsAPIg+5LLXxILrH0s7jfZaesuX+87F569X+kedwVQKfG77/0vkQY+rlF7t1yrW72BZaTrhTCJHoh22rZOebyOfdtyE8ARSROr9yD76skfsQgSi2WK3SnWbJw6/6xZy5h6AfokfTazoQfW30/mPiJpT8lcOfefkehRXtEOLX95iXZeK4BOzTWfdE65lzzlr/uJRyzyi4X77UA88pHLTj/iTqZfgD6J390fmqFGfLjut3dL2tRr4iTRo0Ay0i/RDi1/pRLtnATQNOItHJ4zOeVeQrwnsQgYi9tN7qj5px56CdMvQB+kb1UZl0NkOlxq7pCfjHQSCPafkehRVtF2uQlg01s4KPeS7Ksl+TgdOjuxSB0Lk9z3hiY3jpszPOtppmGAHkrf3R+aoSg+QM4OVKxdtVb9vtDyx/4zEj3KLNqd+rBZHufo6izgUgpHetsq+r4/YhEgFjcp1vuuOP3Q+UzFAD0QvgeP2lbN6PVyep3M7SnFG7P/LLSMdBIIEj3KnejRaR3DRnMUQMq9FEf+iEXWWJjsOxoZPJYkD4CcZO+BI7eQNXaStJOkl8m0q5p6zj9Pw7gaMuJ1wU2iB4keOfdtp7wE0Jb4CQflXoojf8SizeuecOY+cMVph/2cKRogpdyZnBYes6GsuaHkNlIcbykXvVCyF0l6oaStZc/U6Cvk/jMSPcor2qHlryKibS63FcDF3T9DkUuMeLYn5V6qHovLbWTg0CvOmnV/qSbbh4+eKpv8Qln8AjltLmlDmTaU3AZybkhmEyVNQktKSvzs/0l4ksRpelNCsZFkto6ciySbKNMkOU3VA9pQakbPvti58X/UZxnpNBix/4xEjwqKdjw2WTegADrZUyZX4hIjfnvSKPdS5Vi4c56c3DimyI9wM5vZ0KIXbK+mvUzOdpTcTpJto1jPeeY7tHj8jwlKofHtzy+XdgJwvZERN/6/Q8tIyVaiSPRAtHMV7ZR9O689gGbuKXMpOpPqWmJEgd+Tci8ZWGHmjp5/2qE/KJ7wDUd66OlXSLannHbTQ3qtFE/vPslC+cWvrDLSwwmSRA+R6FF00S5Q385rD2DstNglNvw6lxixZOd/58brfmRi0fKrOWmhRe6g+ScfcmVhdODej0/SkNtPcgfooaf2k8Zuiod6yF+vZMTzeOw/S9DeJHqUV7Qr3rfjnATQyT2VzF4oMdL944Qs90IsWny12+JodN/5J7/rtr5rgA0PaOFTb5J0qJzeKtM05KiO4hdoNSO3CbJq+89I9CivaFewb+ct2vllAY9JAvE4GSj3Ekr+smf81jQWVww17S1zTn3XI33VgEUf21SjA0foocVHy7ktECPkrzAy4j1BFllGOg1AiDaJHjUTbeeW5COAFi+Wc30uMeJxjiJ/tY+FSb9cd9k6h1149n4r+qYACz/xKpk+qaa9Rc4GOuzyh1rIHzJSiAkS0e7SHxHtwid6dPybeHEuAmhOi11pskyrJX/KIH91i4Uz/XRoyib/euGpe+SyFN61VR7++JsVR5+WbHecD/Ej0aOHMlJJ0e4kEIh2LRM9On7uKB8BbEiL4lIIR8gSI74xoNxL/rHwEHHTTza7q/Hu88/fo9nz6f+hT7xGppMU2xuQIeSvtzLieTz2n+UsI6HlD9Em0SNh37bmk7kI4GishyNXtxIj4dIyKfeStV26fqrvzD/tkKMl19NcWnvw4zPkGqfKbD9ECPHrPmAXYYIk0SO8/CEjJHoUQbQH8lkBdNZ4SK7Z/aNQ7iXZx/E7RILJpZax+K/5k2/5UC/lzxZ+YopMn5Szf5dsCBlC/oJOkCR6eAoEok2iR91Eu8PvBkbyWQG0QfdwO/+j3Eu3jxM66aM48tfvWJj0ywmTN3mvhg+N1SNs4XGHSnamnDZBhJC/9FfrVZSRIkyQiHbn/oholzvRo9P7DOWyAugkae8TL1wmaWL7eIbca0a5l6QDVfJYmKfXFTUW7oIVTzz51qvPOSqX5x+u9d4PfXRjxQPfktPbkCDEr/wy0sMJkkQPkehRdNGuQt+eNN1t/eunQo98qx/4/XDyTpJG/jzOWeRP2WOhMsfib0OTo3f0TP4WHvsO2cCNyB/yt3anTDoBmHK9LWYpP0PXgSHld7UA7fPsjzN8n7Vemub7hJY/SyF/1rk/Wsb26Xnfthz6turYt2O99OU51QFcteLysKQt1nYNyr1Q7qWHsXC6v2nNt8wZPvTp3Kf9ez8+SYPuZMl9BAlC/PwvtLgtRqJHFhlJ8dlI9FDNV7QfdW44l61QA8+85UOuMMJBuRfVMRZOi5tN2+8vp7/zvtyn/oWf2E6y8yVtjQghf8EnSBI9PAUC0SbRA9H26NsL8xoJB1bNve6hNVdxKPcS6j0p9+J1vNjJHfKX0w+9Pn/5O/YAyc6VNB0RQv5yuFovsYyUbIIk0QPRrodoP5DXaLh6D+C9lHtJ+XH8DpHghKxfuRdn+sK8Uw65MNdp3+TswU98WXK/Rv7qKn5F3X9mBZkg677/LMPeQVPAlaiA+89Uxr7dq32s3fq2CtK37cG8RsWBVcsv7m5nllg4vK+2Kffi2Q41LL1j+tW80w45STo0v6l/wfCQHlr8Qzk7DBGqq/wlWWUJvTLieTxuiyVdGanWShRP9KBvt/6b3FYABySpYborTnK3tNQlRvotf0ksUIFeW9hY/KO5vHlEnoWebdGnpqm5+H8ktzcihPh1H7CLMEEiI+HlDxkh0aOsou3yXQFsRqN3u2bkOaZS7iVZp1YBkj4KGYsRU/yuv5z9zsV5dW5b+InnqNn8o+R2QIaQvx5drSefAEj0qK+MkOiBaHdrb2e5JYFEkvT4+pvcK6kZTjhClhhRz+Wv+xWEl0YVRP6KGQsn97n5px7+19ym/4c+urFkl0hC/pC/MZ2wSvvPxtSa6+sEyf6zvu4/s4L2bfW6b1uKvp1mH2tA0fbp22b5JoFcfdQuI3J60GdQLW6WaYaJIfV7kvGbkkvnTb75jNym/0c+vrk0cKmk7ZChuokfiR4kepRBtEn0INHD828aUb5lYJ55v7skPbeTPZc/4zfhhUvH13rIHxm/rb7akzbSOFzD+RS2tAeO21CjukjSSxGiuslfuwE7pVwlGrA9j8dtsQRjC4/OK0bf7vGj8+jbY//R1Mh6udXGjca85d15CEd62yr6vr/yyV8RYuGk4+afNev+XBTg0WOmK3IXStoWIaqT+CVd9ctjgizhbbG+r/rlKH88Oi9B3y7Yo/Mq0beDrWjf7WacvzJ3AYxWrQAmMGg/4ah3xq+P/CWY6Mofi0vmnXrID3LRgFuPmaDRod9ItgtSVCf5S3O1XvfbYha20LBlmPDrINoqqGhnStIxRLs3q6y35zmCPnsL2CJ321pflnIvGeTP1wJ9kz7KHQuTlgzGI+/Po+SLmZwWDn1PptcjRXWXP7JOu0+QAdrHS7QTyEjW9kks2knHUDKqi9G3a5ZRbbqtJwLorPkPU7TWQBqmxIhn21HupeOkVurSO85OuOz0I+7MpRc/fOwX5fQupKjO4ldWGenhBMn+M0S7kqItVfbRec71ZgXQjQ7cbANxQuHwLTHityeNci9Z5K/QpXduX3fpumflogMPHft2mTseMaqz/JHogYwg2uUQbfp2wr6dqwA+u+T3h+E3PyZpUTXKvSjwe1LuJVMrW/yxC8/eb0Xw+C069iUy9wNJDjmquviR6FGfzfAJRJv9Z559m0SPYvTtpKWLmr25BbyK+BaZ26j85V4sWV/u+FrKvWSJhZN+f8Vp7/xtcCVY+IkpatovJU1HkKoufyW4Wq/tql8eot0rGVFB95/x6Lxi9O2+PzrPtHTaHXmOrms+/83cLZR7UYpyL74uWZ9yL8/8NDazf8+l5zr7D0kzEKQ6yh9PPUiXdZrHBElGdfgneoi+XcUnenT7ruP/3Nn9bpffLM1zhB0Yt1pzCxm/rf+RNuO3puVeJJmc2X/PO+3wa4NrwUPHvVWmdyNIdRO/gAN2iJWRRDKS5iKO/WckelSxb5Po4dW3zW7Ie6Rd8xawczd3XaVC/pKbXY3KvYx5XVMu/nJwNVj4iefI7LtIUt3kr8gDdhEmSGQkvPwh2pkSPRDtbH3bdF1PBbAZ2S2umSyglHvx8b5+lHvpeyx+OO/Ud92SgyB8T9JzEKW6iF+gAbtQEyQy4n08RDtBewfYO0jfLs5FZOR6uwLYXDn5joHG0hWSJqSTP8q95C9/pYhFUxadHFwRHjzuXyQdhCwhf2yG76WMFGGCJNGDvl0U0e5R3x5tXpP3yLtGEsic4T1GJd3k84Uo9+JzlDqVe1njyP9zxWmHBK1fZI99eh05fQ1Zqov8kehBokeA2JHoUaG+XcFEj/Z/s1yPRLf2VAAlycld1+0kotyLz+HqVe5l7OuiSKcF76kjoydK2hxhqpL45Vj/rBQyknJyqkX9s17KSB4rUUlv0yLa3ft2GtEu7UXkArfHnNG8R+GBFqtC13UftNIJB+VewspfMWNhl8w9+fCrg6rCAx/bRqYjkaYqyV87GQmwqkWiR29XRrJ8n7b/ZP8ZiR5169tr/PzaXozEawlgJHddrLh7/6uU/FHuJVQsnKJvBO+lbuBMyQYRp6qKX6ABu1ATJDLifTxEO0F7k+hRi4tIs9wzgFsKYLOx/DrXHEL+0phd8HIvHv2zWLG4b7M7G78LqgwPfXJvWfxm5An568nVOoke9RZtEj0Q7SL0bdfoiQCutQfwks++7VGZ7vf+ypR7KUDGbzFiYbJzzj9/VjOsN8RfQp4qKH/l36PT/n1I9PB7HxI96NsKELvyJnq0+92Ilj55VV8EUJKc7PpuU30if0rgRlnkr+sbUe4lz1iMamTwB0G1YeGxB0h6NQJVZvGr+2b4lJMTiR4i0aOKoi0SPbq/zzVul6tzfQRcRwE0/bMCdf4lRsKVIqHcS/9iYaYL55816/7A3fN4JKrM8lc2Gcm4khByJSqUjJQyo9ojDhagfRBtvzgEFe2Afbu6ov3nXo3SA60/hrvOqarlXjx+TLmX5LGQfhZUHxYeu6dkuyBSVRG/jHKVeIL0OB6b4QO0tefx2H+WYGwm0aMYfbtf1QJsXl8FsBHbtXHkUgtHNZI+iiN/6c23N7Ew05JpNvrrsF0zOlZ9KBoOBZY/ZCRjWxdhgiTRg77dZ9Euet8eja7o1Yjt2nRqt+dXfveYpHXrKX++5V5C7vsrV7mXsT92sp/OO+3ww4NpxAMf20ZRY0Hb/gnlkD9kJIOM9HGC7G/9s4LJCH27GKJdm4vIe92MS7fo1agdtdZCZ5Kuqar8eZidx2tDJ32otKV3YufOD9sro6ORvzKJH4keJHq0GJ9I9KhA3ybRo7toB+zbpp7d/m0vgJKc6a/ecfN2rXDy170DemlUIvkrR7mXnsdixYTJAxcH04l7Pz5Jzh0uKIn8lU1G8liJItGDRI+yirZEokeBLiKd5vdyBB9o/yt3pVY/EaTrNBByr1a+ma2lz/i1BO1iOcVizI+dNHvO8Kyng4V/KPoXmdZDrsoofhnlKvEE6XE8NsMHaGvP47H/zE9GUn8f+nb4vl20x0La5cUQQIuvfPYmXE+zTFPEwjPolcj4DSDPmWMxhthZ0Cd/yPReBKvG8oeMZGzrIkyQJHrQt/ss2uXs24u07WU9eQLIatreAr54+MB7JD1U7n1/5ZO/9Obbn1g0Il0QTC0WfWxTSa9HskokfzzRw+99eKKHerP/jCd6FKNv80SPxH3b2cXOed52zVsAn+HK8spf/8q9eB+5/M9bvm/uyYffEaw3NhuzPPok9EX82KNDokeLQYBEj5qKtkj0CN23zf7Y65G9y2RrV1Zb/pJYYCavq6L8yWRzAvfHWchWEeWvbDKScSWBRI9AMuIRBxI9eiDaEokeJRDtOAqWTOnLQMffxo2/ysWllT9lkL/8Mn6rIX+SFDkXbMOqPXjMRuK5vyUQv4xylXiC9Dgem+EDtLXn8dh/5icjqb8PfTt83+5VW2fp23az2/7yewslgE3FVzVWfTqXrI0o95JksCpJuZe1ftBs2txgPTEaerOM27+1kD9kJGNbl3WCrJqM0Lf7KtqZzpOi9W3X89u/UpdbwHOGD3xE0q3//LiUe2n3F8HLvQRrl9xisfgvZxx+U8CPsC/iVVD5Y4+O3/uQ6KGeJnqEEggSPdS7RI8Mt7Db9u0MsbOC9O0+7P/rKoCS5LS6MjXlXtqdGLmUeyl66R2nayUXxELN5CS9Cfnqt/iR6EGiR4sTn0SPeos2GdV5i/aIJoxcWkgBNNk8yr2El7/05luQWNjqRwUG4MGPbS1pQySsn/JXNhlJKWskeohED0Qb0S6SaOsyt9VfFvdj5B/o9oKGuXmjzkdOqlDuJcGEWa9yL2u9xDkXrmBlNLCbgt7Shmzil1GuEk+QSS+K2H9GokfKz1a0faz07ZKNIzn0bblf9WsG6LoCeNHxB9wi6ZFyy5+vBfomffgctbryJ0lO7oZgvdDZa5GxislfWYuxeslIL1b98pggS7j/zAq6/yyUaNeyb1uKvh0gdkFEO4e+HTV+U1gBlHMm566g3MuaXy5MuRffr1O8W/CDK5ffFtBFdkHI+ix/JHr4vQ+JHjUTbRI9SPTIs2/bNW6bOXcVVwAluTiel7dwdO0clSz34rc/sICldx6b87X3PBFERW49ZoKklyJlvRI/Ej1I9Oi0EoVo11K0SfToT9920f/1c0YY8HmRyeaOKQWY09REuZds7dLTWIR7/NuUiTOkeEDQA/lrf1GTebLNZY9OxuOx/yzBsUK3dQbRzto+pejbvdrrR98uxjjSpj/G6qsAeq0ATlh/6GpJy/NacaLci1J06H7GwsIJYKO5HXKWt/j1Yo9OHhNk3fefkVGd6ruSUU3fLsWj8+wut/3l1xdeAC/8yH4rJF2dn3CELPfi65KUe0kdC+fuD+cnbiskLU/5y/lqnUQPRLuWMuIZB/p2gr5dsESP3EVb/9vvGSLJo7fm9lf+smf8Uu4lTCwsjh8J1wXdCxC1HskfiR5+7xNMRhDtYshIwjjQt3MS7W59W/Xq2+Z+XRoBNBfNptxL8vm2avInmSLnFoXrgvGWyFpo8aMYa/hEj4STE6ItEj0KJiMkehRJtBfqpk0v7/ds4b35fqrZ5UukFZIm9Ev+lEH++p/xWw35W/VeFk4AnXs+NaBDyl/7vtyblRGP9yliMVY2w6e8EibRg0SPKvbtgIkerT/3+W7W+c1+zxjeK4C/GT5wqaQrsgpH9wZs/zrKvYSVv7SxcIoeC+gsGyFuIcSPYqxshm/R1iR6dBcIEj1K3reLnOjRbjy1nxVh5ogSvdrZJdmnKsq9ZGuXkNqQLhaSLQvy/os+NU1jVpQhrfyFGrC7TZApZS2xjJDoQaJHEWTEMw707fJeRPZHtO/V9lf8uXQCaE4XZ1lxSpIg2/XHlHtRb2Kxtog3XbQiSO9rxhsicIHljz06fu9DoodI9KBvcxHZ674tSe5nzhVj41MiAdxw65VXmfR4euEInfRRHPlLb1tF3/e39o8HomYYAYzcOkhcWvEj0YNEj7LKSApppm/7yQiJHgUW7WeIdV5RZpJEAnj+rFlNk+YUQ/4o99IvEW9GA2EEMDZu/6aSv5LISIg9OlJ/9uikXoni0XndRZtH54Xff6ZwfRvRzuEi8lludzvMvbqUAihJTu7iIsufX0dOMPZ5XjDVRf4kqblSYbKXEMCE4keiB5vhO8mIRKJHEWTEIw4kevTuIrJfiR6tObdIs0piATSN/FquwyUH5V4qJX+50nBDiF3Kq47UA3a3CTLDSgKb4RNeMZLoQaJHFfs2iR7tFz3iQmT/phbAOcNvv09mV/rFgnIvIV2rWKV3gohNA7lLIX/s0fF7HxI9RKIHfZuLyF737bZc6XaYf3OpBfCZPvPL7tMW5V5Ctks2hQgdC+iN+LFHp6+JHjw6L4OMpJBm+rafjJDoUWDR7oDTj4s2y0Tp/sr9wjuOWRatug4K4/sf5V76HQsIJX+hrtZJ9Ei9EiUSPUj06KWMdOvbom+XI9GjFSNaEf28EgI4Z/gttzmnG9oLB+VeWr2urEkf2fo9JBM/Ej3YDN9JRiQSPYogIx5xINGjdxeRxUr0aMUF7uWXh3uEaj8F8JnG+GVvhCOJBSrQayn3kjoWkEH+Qg3Y3SbIDCsJbIZPINoSiR5FkBHPONC3cxbtHC8i+yba3uP7fxVx1kktgKNN94vqZvwif8hfn+WPPTp+70Oih0j0oG/37CIyq6xVpm8n4nFNWOe3lRLAy77y1hsk3eLVUJXM+E3osj2SvyyxQP76IX7s0SHRo6wykkKa6dt+MkKiR4FFO/Ewf57b6sIwD08oigA+88V+3GKNy7vDkfGbcZUo03uGiQUEjid7dHq7EkWih0j06KWMdOvbom+XN9GjjWXFPyjqLJRJAF3c+JGpy1MhLIFwkPGb7Ksl+Tg5xALSih/FWNkM30lGJBI9iiAjHnGgb9fkIjI117sZ8/9aSQH804kH3m9mf0i8yFES+UtvW0Xf94f89U/+Qg3Y3SbIDCsJbIZPINoSiR5FkBHPONC3cxbtKl5EZhny7TtFnpGizAdw+kH3eIYs95JgsiXjN5dYQCD5Y4+O3/uQ6CESPSrYt41EjwolerRiqUaHCvXot+ACuGE08huTHs4uHL4W6Jv04XNU5C+jZYNXR2SPDokeZRXtFNJM385JRriILGyiRyucfuZeNueJSgvg+cOzVsrpJ8lOtGTC0d9yL75fpzzylzkWkED+Ql2ts0cn9UoUiR4i0aOXMtKtb4u+XeiM6lDE5xR9hoqCHCRu/KBb8Mtb7sVvf2CZyr1kj8Uy3K5rS5HowWb4TjIikehRBBnxiAN9uyaiHZRCJ38EFcDZXzlogUxzvIXDMxCUewnxnv2KRZ3lL9SA3W2CzLCSwGb4BKItkehRBBnxjAN9G9Huxy3fNT9DoZM/ggqgJDkXn+4tHJR7SfbVknycDgNp72KB/PkN2H28Wi+SjJDoIRI9Ktq3K5noUSXRzoXHFU/9ca0EcPaX33aBZAv8hMPXXyj30vrj9K7cC/LnK37s0SHRo6yinUKa6dslEW0uIvtw1+q7bseLltRKACVn5nSGn/x53Iik3EtG+etH6Z26yl+oq3USPVJPkCR6iEQPRLu2ol2cmmYjssa3yjJ7RSEP9vTCRT+RdB/lXsoif4FjUTvxoxgrm+E7yYhEogeijWhnEe1ufVspzq9cOd9tf9m9tRTAq885akSm/0grHJR7CSt/yiB/iWNRO/kLNWBLohirSPTIYSUK0Ua0SfToLS7+eplmsij0AZcNTPy2pCeLI3+Ue0H+cpY/9uj4vQ+JHog2ol0Q0ZZI9AjO3DKUfslVAP8yvN9i58avAlLuJb1uUO6lOOJHogeJHog2ot1r0U4YB/p2v6aIs8o2q0V5HHRkeeMUSQ9T7qXTV7Nk51/nxut+ZDJ+M8pfP6/WSfQg0aOHol3Uvl0KGUkROy4i/caRYj+8/kZtN+//EEBJ8059y1MynezvL5R7af1xQpZ7CR2LuogfiR7sP+sk2hL7zxDtavZtEj0STBVfck4xAvgMjwyMflNmdyRcvOq+MpFB/sj4DRWLushfqAFbItGjjzLiPUGmEW32nyHadRJtqfaJHmtzo7ab9z9lnOVyE8AFw7NWShruPseGLPfiMf4jf9ljUUf5I9HD732K+NQD9p8h2rUUbYlEj55MF18u4+pfrgIoSZcO3nCupGvau0a/Mn6rJX/KIH9pY1Fd8SPRo3d7dBBtEj0Q7USyRt8uGjdqu3nnl3XGy1UANTwcO7nPFkv+QpZ78fWjipR7qbz89fNqvU57dBDtvmdUF7Vvl0JGUkgzfTuni8i+TxulXf3LXwAlzTnhbb83p1+sGcaqlHuxgP2o6OVerOinYgbxY48O+89Ci3a3CTKNaJPoQaIHF5EF4voyr/71RAAlKWo0P2zS48lWkSj3kuAQnlea48eR0LEoo/yFGrAl9uj0UUakYmZUk+gRsG+rnn2bi8iiTh+fKPPqX88EcM7wrIWS/p1yL+0+TuikD+Qvlfyx/8zvfQqd6JEhdoh2AtGWSPQogmjX6SKySNOH/Z/bft4fyz4LRr16o8tOeNs5kv0py8KMr/yR8dtN/hJIUuXMj/1nJHrUTbQDyFrIvk2iR0DRJtGjD6zUQPTpKsyGUe/eylkcNz4oaXkXs07sgMhfArPLq/ROaeSvn1frJHog2h5x4NF5ItGDi8jiTiN2tttm7j8QwITMPelt/5C5k7PLX8hyL6LcS1YRL4X4sUeH/WehRbvbBJlGtHl0HokeXEQWFqdFGh06oSpLIlGv33DJI498VU7zMsmfn555+pOl6od1KPdSHfnr54DtOTmx/8x/VYtEjxLLiESiBxeR3dunsHzBvWzOEwhgSq4+56gR2cChkntkfKfKJeM3jRzkeIVCuZdeih97dEj0GPe5Ee2AfVvl69skeohEj9TM0bbzzlGFiPrxpped+NZ75exfNSbFtD4ZvykWq9r+kHIvyRuSPTokelRRtAPIWsi+TaIHF5HVWfWTpKVy8fudq1ZaZNSvN77shH+5QLIzyPjtLAK9LveSWq4KL3/s0ek+QQaQNUTbLw4keohEDy4iS4PTp92M+bepYkR9ffPBDf/dpLle61jIn+cgnfJ881pgLfIJzB6d1BMAm+G7xyGoaJPoQaIHF5ElYp62nfctVZC+CuCc4T1GnRs9TNIjSb2j6vKnDPKXa9JHIc9j9uiQ6OGzEqV03xXRDty3Vc++zUVkGVkqF7+77E/8KKQAStJlJx56rzk7WNIK3yuKspR76X516qW0BZG/Im4OZI9Ops9GogeinVXWiti3SfQQiR6BcDq2ird+CyOAkjT3xFlz3bNJIZ07T9qMXwvaGUO/Z9Ezfot4IrNHh0SPuol2AFkL2bdJ9OAispqrfqvl7yduxrzvqsJERfkgl5046+fO9MVOg4J5nxweA6CvXqbYR+elTJZA/vqa8VvEx4GwR4dEj6KLtkj0KISMpJBm+nZOF5Gl4jotW36UKk5UpA9z2UkzTzDFZyQ0qJLv+0P+kokfe3TYfxZatCUSPYogIxKJHlW8iCwdjyt2b3O7XL0UAewxc78665Nm+s/OXYtyL97jTKITuOjy188B23NyYv+Z/6oWiR4llhGJRA8uIru3T+mI5XS422HuHaoBUfE+krNNb9NRkp2L/CWxQN+kD5+j+pbe6ZX4sUeHRI9xnxvRDti3Vb6+TaKHSPTIY7qxL7oZ8y5UTYiK+KHOP39W8/IJNx0h2Q/TrTZT7qX9QJe+3Et/5C+p8LJHh0SPMot2AFkL2bdJ9Kj3RWQ9Vv1Wf6dz3PZXnKgaERX2kw0Px5dPuOnfnHPfSbh8RbmXTPJnBZc/9uh0nyADyBqi7Xluk+hBokeFLyKTr76UE6f/1Y2bH62aERX60w0Px5d/deYH5fQx3wwH64uqVLvci/W4Ndmj08urdRI9SPTopYxIJHpU8SKy1Pb3B00ePMzNOr+JABaQuV+d9XXJ3idppLflXnxv/fp8pHKWe7GeDgDs0SHRw2clSum+K6IduG+rnn2bi8gqcZGmDLzVbTlnuWpIVJYPOvekQ37opD0kPdSuU1PuJaz89e7qjz06mT4biR6IdlZZK2LfJtFD3PLNlV9pyuBb6ip/pRJASbr8pHfMG4gHdnHSleWSv3KWe7GeDALs0SHRo26iHUDWQvZtEj3qfRFZv1U/SfqRFg3+S53lr3QCKElzTn37fY2JS18v6RurzwLKvSTyumzy14vxgD06HhNkAFlDtP3iQKKHSPSo8EVk4guRUmNyOl4z5r3H7TFnVDUnKuOHnjP8nuVzT37HR53ZwSZ7tAzypwzyV5hyL5b7qckenVyu1kn0INGjlzIikehRhIvI0KJdepZINtPNmPdl56r7JSsvgKu5/JRDfjXYbGwn0y8p95JU/nzLvfToiSDs0emtjPRdtLutRCndd0W0A/dt0bcR7Spwsyza1W13xS/QvooIoCTNOW3WwnmnHPJ259xhkhblu0BVt3IvPRgM2KOT4Wq9z4keWWUN0Q7ct1W+vo1oF1y0K4Cz/5IbfIXb/vLrUb6KCeBq5p78jp8NrpjwEjN3iqSVbZWGci+d5/NUXz4lzQCDbGmu1kn0qJdoB5C1kH0b0Ua067fq96DMvc3NuOIIN2PO0+hehQVQkuZ87eAnrjj1HZ+JFe0i2R/Dyl/Ici++LlmAci+5jg2jBb1aJ9GjXqItEj0QbUS7Opik72tkcFu3/dz/RfPaM1DFLzX/lFk3SNr7df/+89fGcfMrktujLBm/hSr3Yv04bxMM2FnkyiOGiY8Xco9O1vbxuogowspIyr5ggdqnp1mnRe3blmrcoG+H7tuB27qWiR7ur5I71m13+Tz0rqYCuJrLT3rHPElv3PWT/723i+JPmrm9iix/fhNJgjEjydhXWPmzlG2ZdGUk9ASJjBR+gqyNjNC3Ee2qi58WyLkvadu5/0OGLwK4BlecdshFki7a9ZPn7uQi93EzzZI0MQ/5Uwb563/Gr8/HzOPc4mq9/zKS4wSJjNC3Ee0C9+1Sc62cnahtr/ilc4pROgSwgwgefq2kf9350+d9ZIKNvENyH5D0ssQnX43LvZgk1w/5K8XVei8H7KR7/RDtzu2dRkYCyR+ijWj3TbRLyUpJv1LkztE2cy9hxQ8BTMTVp8x6UtI5ks557ad/OsPMZprcTCdtu+p0odxL67/ryWNAKjZgl2yCrKxoK9xKFKKNaJdetEuHyenPkv1Mo/q52/GKh9E3BDAz8045bIGkBZKGX/up/3qpxQP7KIr3lrndJU1JNEYlnijKVO6lD/JHoodn50NGEG1EG9GunPwtlWmOIl2oqPlbt82f70LZEMD8ZPDUd90i6RZJ35gxfN7QuktXvjyO9Wrn3KtNeqVML9Czd0B9kz6KI3/JrmrXfF2+QwmJHvWSEUS7GDJC3y6GaPeybxeaR+XcnxXH82WNuZrW+Ivbcs5yzAQB7DkLhmetlPTnZ/4nSdr96POmrpy0chs5287ktnLOtohNz5fc8yV7juQm+A46luZc7Uu5F0uU79Ib+WMzPIkeJZSRrseibxdftMvatwuC0yKZ7pd0j5y7S7HuUEMLZAN/dzPmLMQ8EMDCMudbs56WdOUz/1uLHT7x4ykT4sH1o8jWk9lgZFrXoqZrfR7omSdhJKPpcYaN/X9eR3FeR3y2bvOUx1w+j9wj0SOjjBRhguyzjDg9rWbz4DxmrjRnY+vDuITvM5rhLV2690n8NgGP5wLEYTTrGwVun7bjcsr3cakar8fY0xp1I2o0n5T0mLad/zgJG0XzcYB+DQ8PfHQfOf2+sjLSU/lj/9kzTz14wr3w5+txdgEAdIYVQOizBZZBRlIej/1nKkaiBwAAIIBQZAsMICOh5Y/N8OVN9AAAAAQQaiB/bIYnoxoAABBAqK4U1nbVL7T8VXFvJQAAIIBQAfErs4yQ6EEJDAAABBCgoDKS8ngkeqjYT/QAAAAEEEokfp1kJLT8kehRzSd6AAAAAggFpKn2pShJ9CDRI61oAwAAAgglg1W/8PJXtb2VaR+lBgAACCCUSP5I9Gj5OxI9kD8AAAQQKiF+ucpIyuOR6KFiJ3ogfgAACCCUV/5I9EggxyR6IH8AAAggVMgDSfRo83MSPTxFGwAAEEAokfhVUUa45duzRA+eCQwAgABC6U2wQDISWv5I9Aia6NFVtAEAAAGEEskfiR6Z28db/EKLdmj5S7vKCgAACCBUXP5I9KhVoge3fAEAEECokRSS6NH95/XNqJ5qt8/8Y+vfxSnaOg7Yfzv9Lk7xdmn6tpJ/1zh0Fnac4lhxirdM07dbfTbXdDMuezPjMiCAAD0Xv7LKSGj5I9HDQ7QHJNur6/G8Rdv1SLRdcfu2CxA7C9A+PenbLeM9ytgMCCBAz+WPRI9En622iR6IdljRLljfLtyKNgACCJCT+OUwQZLooeoleiDaQfs2oo34AQIIUAgxJNEjkIz0cIJEtNWzlTr6dm8vIgEQQIBei1+dZMTzeDw6L2cZCS1/9O10bV2Evg2AAAL0Qf5I9EBGei1/iHbvEz3K1rcBEECAnMQvw2TCbbECy0gngUC0SfQoQ98GQAABiiV/7D8TiR5VFG2R6FEI0QZAAAECMKpC1z8rnYz0cIJEtEWiR91EGwABBAjnf1FdZcTzeOw/y1lGQssfot1z0e5J3wZAAAFygkQPZKTX8odo9+72cRX7NgACCJCT/JHoUV4ZCS0Q7D9DtIvUtwEQQIDeyx+3xUSiB6KNaPdDtAEQQID+SCGJHmL/GaKNaGf5bOKWLwACCOUQP5Ho0dMJEhlBtIsi2kXo2wAIIEAf5I9ED2QE0e6ZaGc6T6rYtwEQQIAei19BJ0j2nyHaIWSERA+x6geAAAIEulpn/xkZ1VUU7U79kb5NogcAAgjVMD9kJJWMpDweoi0SPaoo2uKWLwACCOVxv7rISBEmSGQkvPwh2iR6ACCAAEnMr8Cb4YswQSIj3sdDtBO0N4keAAggQOHkL42MBJogkZGMbR1a/kj0INEjj74NgAAC9ImmZK6PEyQyEl7+2H9GokcZRBsAEEAoGMgIt3yLLiOh5Y++TaIHAAIIiF9FZKQIEyQyEl7+EO1Mewf7KtoAgABCSeSPRI96yYjn8RDtBO1NogcAIICA/CEjwdo6tPyR6EGiRx59GwAQQCi3FCIjGWSkAqLt3d4keiDaAIAAQvnFr3YykvJ47D8TiR5VFG1xyxcAAYR6yh+JHshIr+UP0SbRAwABBOiT+AWSkUJNkMiI9/EQ7QTtTaIHACCAUBknJNGDRI+CyAiJHiLRAwABBOiT+CEjvZU/9p+R6FEG0QYABBAqLH8keqz6FfvPSPSoomiLW74ACCDUU/5I9EBGei1/iDaJHgAIIEAB5Y9Ej/LKiOfxEO2cRbuKfRsAEECoshX2aIJERsLLH4keJHrk0bcBAAGEmsofMhJe/th/RqLHauJ7JP1Zim6Ri2+SuUWK9IRG4iWKNFGKpkg2TWYvVBRtI4u3k/QqSRPzF20AQAChhuJXVhlJeTz2n4lEjx71bdM8ufhcmfujm3HpbYnP2HtfM0mLB3aV3EGSDpW0Ebd8ARBAgADyR6JHbWQkF/lDtFv8zVLJzpHib7kZl92a5ax1z5u/TNIlki6xq3b+hCZPOkDmPinpNdn7NgAggFBhRiW5ok2QyEhI+UO0cxZt7769UtLXNDh6utvq8kWhz2S3y9Ujkv5X0v/agtftKekkSa9g1Q8AAQRIAJvhSfSoomj3rW9fJtPRbsbsBb04e92Myy8x06u0YLd3Se5MyTZA/gCKR0QTQLHEL+kEaSkmSM+/afU+llQki7ASleA2rWVsn0Ty5/E+luH7rNHWAcsNpV5l7XnfHpW5L2mbN+zRK/l7VgKdzG0398dqNnaSNK/79wEABBBqLH9lk5EUsqZnBMIyytrYY2Vtn9AyYr0W7W7yF0DWyifaC+XcG9yMPw07Nxz366x2O865T8uX7SGnbzDGASCAAH2QkZSy1veVqA4yYmVc9fOIgwVon3qL9l1S8/Vumz9dUYQz3O1y9YibMfejMvcxsQQIgAACdJ7jQu8/6/Mt31LKiGccEol2UW/5Vka0/yGN7uq2zZbhm4sIbj/363L6IBIIgAAChJ8gaysjCaW5qnsr+y7a6qdoPyBn+7htL3+wqKe5mzHvu5L7IgMeAAIIQKKHl4wEaJ+Qoi2R6OHzXXvXt5cq1n5umzl3Ff10d9vNPUFO/8nAB4AAQu3lj0SPzvJHokd3+Qsga+UW7Y+47WZfV5rzfvLghyVdywAIgABCvQ0wkIyklDX2n4lEj1KL9s/dtnNKtaLmtpyzXNY8TE7LGAMBEECAZGLB/rMAMuIpzSR6FFS048VS8+NlPMvd9n++SbJTGO8AEEAAkeghEj0Q7SRt+vkiJ310ZfLQKZJuZ9wDQACh1uJHogeJHoi2/9/YPVr29HfKfNavuhXsvsT4B4AAQm3lr58ykkLWJPafIdp9Fu3oFLfL1SOlP/1v2vSnYhUQAAGEOjEqEj1U0v1niHafRftRTVv+wyqMAm7W+U2Z8ag4AAQQgP1n/ZcRRLsYot3ud/Zz97z51cmgjewnklYy9gEggFALz3PNthMkWad+78Oj8wok2p5xCNG3nX5SpaHAzZj/mKQ/FPTjNRmsAQEECDrqRytKISMKKSMBZG2Nt+bReTXMqF6orS/9cwUvCP+voJ9sBYM1VJEBmgD6J4DNlTLXYd4LfQtSyY8X6vFi6rWMeLxP34o6K6FopzheSNHO2j6h+7Y027mOLywncTRbjUIuti1nsIYqwgog9I/Rxoo15rZMWaeh5Y/9ZyR6BGifIH173Iq22aWVvB7c8bI7Jd1dwI/GCiAggACBecJfRhJMkFlkrVYyklLWSPRQXx+d56LrKjwmXF/Az/QUQzVUEW4BQ/+YMPSwVi7PUUZSTLZFuwXpLX8exyvaLd9S3l73PJ4FaJ927W0r/lHZMcHsH3KuaJ/qYQZrqCKsAELfcJuds1TSEhI92vyORI/u71O/R+c99kzGbEVnJHdrAUeqRxitAQEECH/J/1B/ZURdbvkmEItnZaRgt3zzk5GAop1Cmmv56Dx7vNLDQazifT+nRYzTgAAChOeOVOJVxEQPkehBokfeou2qvR8tKuJ+O7uXYRoQQIDgV9d2e9gJ0nPyJtFDJHr0UrQ94uAn2ssqPR40o6UFHKRuY6CGKkISCPT54jq6vfMk3E1GUky2JHqIRI+M7ZOoPwbt25MqPR404snFq3DYRAABAQTIgb/3v9BwGhkJJH/llpECiHZo+Su8aE+r9GgQa5qKlQRsakQIICCAAOEH/JG/KWrkLCMKtxKFjGQQ7dDyV/IneqTr2+tVfERYv2Cf5w639TzqAEIlYQ8g9BX3wp89JOm+lgJBokf39yHRo/v7lC7Ro+Pv1rcFr1m/uiOCvbhYA5SuYpQGBBAgP65ca4LMKmu1kpGUskaihwqa6NH5u0ZDL63uFaF7SbF81F3D8AwIIEB+g/6cysuIt/x5iEXRavuVUrQ941DEItrx6A4VHg12LJYA6i8M0IAAAuTWC+PZPNGDJ3rU7Ike6fu2ud2rOAzY9bu9UNIWBfpIyzV14M8M0IAAAuTFc8/9u6SHsk224oke/ZCRrLLmJdpVfKJHCtH+5693N5Or3DjgbI9iGanmui3nLGeABgQQIK9x38kk/S6VrI2dILPKWu1kJIWsdRVtEj3CJzGt9cNNdMOur67eQKC3FGxgupjRGRBAgPwH21+S6NFJRlLKGokeKmWiR7e+HbnDq3T6P5PZvE+xPtTorxmYAQEEyJuRRy+WtLjUMuItfx5iQaJHANH2jEM591a+w+7cfWKFpqLDJA0V6Ir0Jrf9n29iYAYEECDv4XarC1dI9r/eEyeJHiLRI2P7lFu0N9TTI++uwrlv581syPSxYg1I+iWjMiCAAD2bCdwPuooXiR4i0SOAaKsCou30SZu9e/mf5jTjwXdIelGxBDD+bwZkQAABesWWP71cLr4t2ARJokc6Wesq2iR69CDRw+N4eqE2XPn+Ul/z3brvBFk8XLCP9Re37RV/Z0AGBBCgVxfdTqbYnVNfGUkpayR6qJKJHp3lb/VJc4LdsvuGpT3ply8+TnJbFUxL/5PRGBBAgJ5b4ITvSXqqsDLiLX8eYkGiRwDR9oxDJfZWtmR9jYycUcZT3Ra85sVy+mzBPtZiDThu/wICCNBz/9vy/z0h6T9J9Ci6jJDo0VvR7sgRdsOu7yyV/F2186Di6L8kTSnWAKTvuq3nPcVIDAggQD+IR8+SaWUmWVtDRkj0INGjrKLtKy7uW3b9a7YuzTk+adLpcipaMesRxY2zGYABAQTo10X4i86/R7LvZ5IbEj26iwWJHgUX7URMUyO6wG583aZFP79twa7HyOwjBfxoP3PbX3YvIzAggAD9ZMCdKGkZiR7d5I9Ej2qKdhqz0paK49/Z9butV1z5222mzH2tgB9tRLH7EgMvIIAAfcZt8d8PyOJv9EVGvOVPfvKXVdZqn+hRJ9HOzMsU2ZwirgTaDbu9V7KfFXPese+5HebewcgLCCBAIa7Jl58o2YN+MhJA1taY50n0QLR7LdrB2EFxfLkteN22hVArk7O/7/Z5Ofu+TI0CjjRLFDVOYMAFBBCgILitf/2U5D7TVSBI9BCPziuzaOfCi6T4Krvhte/rq/xdtfM6WvDa/5HsK5JcQUear7htL3+QERdqN8fSBFBkzOR056zZkt6Qq4wk/Zuux8r42YI8YUIpZcQSHivhd81t1S/lZwu11y//RI+0Z9HP5IaOdTPmLOzpu974urcqtrMle26BZ8BbpCd2cDMWrGS0BQQQoGgSeNvMFyty10maXF0ZCS1/vSzvUiXRTnm8Yqz6deIJmR2vqUPnuC3nLM/1fL3h1dvINU6WdFDRhxZFbm+37dyLGWUBAQQo6kh9+6yPy+nMYDLSVWx6KX9FkJEyrvqFlr+ePse3Xzwgc6dq4sgP3VZ/WRz0HF3wmpdJ0adlmqlSbC+yc9x2VxzF6AoIIECRh2objnTHgosl7ZFZbkI+Xqz0MpLzql9u8ldW0S7MyL9MsX6pSOdq2fJL3S5XL011Xl6/2wsV2Vsk/aukHUs0pNylAe3AUz8AAQQogwTec8hmGmleK2mj1JN37fafpVn1CyR/iHZZWCln82VuvqSb5eKbFNnDGhl4UtvPfVJX7zxREwamKR5YVwN6oWTbKI62k7M9JL2ghLNeU81oT7fD5ZcyqgICCFAWCbx91n6S/UZSRKLH6l/1+5Y4ol1i+avjrHe8mzHvyzQE1B3KwEC5xu4XnXeBZF8u5+PFQstf4Np+PDpPhXiiB+TJbC3Y7ESaAYAVQCghZnK6419+IengrpM3iR7df0eih4dop+k/UDDuVtNe6Xa84mGaAoAVQCjjVYuTaWTlv0ruurYTsSnjLU2e6METPcSqX3V4WhYdhPwBIIBQdgnc+tdPabCxn2R380QPnuhRDNGGYg4WasrpcLf95dfTGAAIIFRhXN/ivx9QHO0n6bGgMqKiyYi6rETJ/3g8Oi+DaCN/JeVDbsa8X9MMAAggVEkCtzr/RsXaS6ZHg8kIiR6d34dEDyjPCPEFN2Ped2kHgBZnB00AVcBufdvL5XSRpA1SyZq3jHiIBYkeCds64/FI9IDWff4Mt/0Vn6AhABBAqPp4f8fBOyp2F0vaMJFY8ESPPsofT/SAXKa2M912c4+jHQAQQKiLBN7+lu1ljYsle04pZYQneohVP8g4rZ3qtpv7adoBAAGEukngrW+fIRdfLGkTP7EpgoyIJ3oUQrSRvzKf+nLus27G3JNpCgAEEOo6E9wyc3M1Rn8t6eXhZaSTQFTklm8pHp2X8njc8q3iTNaU3NFuxtxzaAwABBDqLoE3HzRNgwPnyuIDw8kfiR4kekDBeEJOh7kZ8y6kKQAQQIDVTuR021uPl3R8+WWERI/eijaUYAa7RXHzYLf9n2+iMQAQQIC1p/lbD36vZN+WbKjvMkKih1j1gwBn9W+1fMU73S5XP0lbACCAAO2ni9sP3k1xfK6kLfojIyLRoxCijfyVnFhOX9K2877iHIEEQAABfCTw7v3X08qBcyT9S3qBINGDRA/o04y1SLF7r9t+7m9pDAAEECC5CN72liNk9k1JU4spIyR6cMsXxk1Xf9CAvddtPe8B2gIAAQRIL4E3H/RSNfRTPVsqpggyQqJHb0UbSsBSmfustpv7DW75AiCAAGEk8NZ9J8gNfllmx0oaINGDRA8oFPMUuyPcDnPvoCkAEECA8CJ4ywE7yrnvSnpVNhkRiR4+70OiB3RmiUxf0k2bnelmnd+kOQAQQID8JNDk9I8D3iXnzpJs/VRyQ6JH9/fhli90PhN/q0gfdttecTdtAYAAAvRu+rlzv020MjpVTu/KV0ZI9OCWL4zhH3Luo27G3N/TFAAIIED/RPC2/d6sODpN0nYkemSQtba/ZtUPJElPyfQVrVj+NbfL1SM0BwACCNB/CbSZDd267AjJvizpuX7yR6JHZ/lj1Q8kSSNy7vtq2AmUdgFAAAGKKYILZg5pcNkHJRuWtC6JHh7v09eMaigwsaRfyMWfdTPm30ZzACCAAMUXwZsO3kDRis9JOlrShExyQ6JH9+Nxy7dSp4+kX8pFX3QzLr+R5gBAAAHKN5PduM+miqJj5dxRkk1LLF4kenR/H275VoVY0m8URV92217+N5oDAAEEKL8I3rrvdDXde+TsM5I26S5+AWQtV/kj0QOCsULOzlMcn+S2//NNNAcAAghQPRG8bu8pmjDwb3J2nGTPy1X+SPSAYvOIZP+pAfcNkjsAEECAeojggplDGnzq7TJ9SNJru4tfQvEi0QMK2/n1d0nf1FPxj9yu85fRIAAIIEA958Nb9t5aFn1QsvdKmppa1rzEL4F45Zbo0ctH50FBWCHp14rcOdpm7iXOETQABBAAVmnMrftO12jzEDl3jKTtEotXYVb9Qssft3xLzM2S+39qrPy+2+avj9IcAAggAHRSoZve/Bq5+J2S3iFpAz/5yyhrQeSPRA9mCy2S6TzFdq7b4Yr5NAgAAggASUXQZjZ06+I9FMdHSO7tkk1u7UEkekBfZ4hlMv1Wcv+l5ct+z6PaABBAAAglg9fvv54GR2bK2SxJb5BpILOsrfUyEj0ggfTF9gfJ/beein9NQgcAAggAvZDBoZV7SXagTAdrreQREj0gFx6TdInkfqsB+1+39bynaBIABBAA+iGDVx04WVOWvVlmB8u5/SVbr6tEkegB/twuuV8pin+lv28+z806v0mTACCAAFAkGbSZDd38yE4yt5ec20vSGyQNkugBCVgi03w5d7FiXex2mHs1TQKAAAJAmYTwpj03kLM3ytxesnhfyT0vk6yx6lfF0b0p6VqZXawoulj2+GVuxoKVNAwAIIAAVRHCm/fcQRbvpdh2l3Ovk7Sut6y1/TWJHiXkZjk3W7H+qBXL/uR2ufpJmgQAEECAOsigDUe68dJtFOm1kvaS2Ru1Vs3BTvJHokdJRu+mTLdINleK5smi2W77y+6lYQAAAQSAZ4Rwzg5yeoOcdpPpVZI9L5z8ccu3RyyV9BdJl8s0V9HgfDdjztM0CwAggADgJ4U3v3YzxYOvlMWvknOvlmkXyaYmljhW/fJiRNLfJV0ts78psqu1bOU1FGIGAAQQAMIJoc1s6OaHtpXZq2R6ueR2kLS9ZNPbCh6rfjnInq6Ws6s1YZ3r3VYXrqBpAAABBIAeS6GcbthtSw24HWTaQdIOknaSbEuZIsQvMaOS3SnTAsndJNmNsugmTZr2d2QPABBAACi2GF639xQNLH+J4uZWkttKzm0lF79Epq0kbUgL6QlJd0v6h8zdKNmNUnSzosdupgwLACCAAFA9Obx+t/UUxS+Wi7aSxc+VizZXHG8hF232TOLJxlKr1cNS8Yic7pbpbkl3y+wuRe4uxdFdWrH0bkqvAAACCAAwVhCv2nlQkyZtKnPPk5qbyLkNJa2/6n+2vmKtL7lV/3ZaX6vqGU7O6eMskbRM0mJJT8u0VM4ekdwjkj0kuYdk7hFFWiTTgxqwRWo+8QireACAAAIA9EIcF8wYUnO9KXIjQ7LBKTIblHNT1dCAnKb984V6Sk2NtjnM4xpwy7R06VJW6QAAAAAAACyi+gsAAAtFSURBVAAAAAAAAAAAAAAAAAAAAAAAAAAAAAAAAAAAAAAAAAAAAAAAAAAAAAAAAAAAAAAAAAAAAAAAAAAAAAAAAAAAAAAAAAAAAAAAAAAAAAAAAAAAAAAAAAAAAAAAAAAAAAAAAAAAAAAAAAAAAAAAAAAAAAAAAAAAAAAAAAAAAAAAAAAAAAAAAAAAAAAAAAAAAAAAAAAAAAAAAAAAAAAAAAAAAAAAAAAAAAAAAAAAAAAAAAAAAAAAAAAAAAAAAAAAAAAAAAAAAAAAAAAAAAAAAAAAAAAAAAAAAAAAAAAAAAAAAAAAioyjCQCAMSgRRtgAgMEXABgrJJn904u+9KUvBR1bFixY0JOxasaMGcHk7vjjj1/jWM51b0K6GQAggADQ0/N+tcD5yls3KZs5c+ZaP7vxxhsrN+Zsu+22a4nb+eefH0Q0x0pkB4FEHAEAAQTgXPYXunYSN1beQkjbAw884HbeeefKNv7VV1+tzTbbLLOIjZXJdhLZTR6PP/54ayOLiCIAIIAAZT1Pu4ldK6lbLXRJZc5X3B588MHEY8m2226rhQsXlm4M2mSTTezGG29M/HebbrppVwFLI5KrpbGVMHaSRUQRgIkFAAomeL5yl1TsugldN5Fbf/31vceMxx57rLbjy/rrr+8tUT5C2UkeH3zwQa/3aieK7SSxjSAihwAIIACkOdc6reC1Ejwfueskdu2krpvMZRG4J5980j3vec9L9beLFy8uzLg0ffr0VMJz7733ap111kktS90E8rHHHrOksugjiq0ksZUgrt6bOE4QkUMABBCAc6rdSt5YyfNdwdt0001dCLFLInU+Eucja5tuumnuYrdkyZKux54yZUpugrJaFB988MEgYrl48WLvz9pJFtuJYitJ7Hb7OYkcsnIIgAACIHrqvpLXbgVvvOR12jfnI3edpK6doCURuHYittFGGwVp9Keffjr4mDV16tQgcrJo0aJM4jl9+nTrJJDtpNFXFluJYrvbz+MFMYQcIoYACCBAaUVPWvvWbRLR81nJayd53QRv+vTpzlfsNt10045C10rkuklcNznbcMMNvWSxDIyXukceeSSzZI4XyE7i2EkWW4mijyS2EsRWK4jj5bDTreXxYui5YogUAiCAAP05J7rJXrdbt+NFr9Xt2la3ajtJXqvVu6RyN1662kldO5lbLXG+8rZ06dJUY8zy5cuf/bt11lmnZ8F/8skn1/j3xIkTU8nI5MmTu/7dWMFrJZCdpHGsLLYTxXaSmEYQx8thq5XDpGKYcLUQKQRAAAHC9/9Wt3FDyV4S0fOVvClTpnQVvFZy10rsfKSum8itFrYssjZW+sbSSwFsJYFZRHDsMX2O0UkcV4veeFlsJ4rdJLGVII6Xw27JLOPFcPyKYZJbyZ2kECEEQAABchE+39u4SWUvi+i1WslLKngbbrhhW7HrJHXLly93vuLlu1rXTvA6MX369Ex/78t4OVu8eHGmv28nlb4i2U0Y24nilClTzEcQu8nhkiVLLK0YJl0tbLdSmHCVECEEQAAB1u7fw8PDifftjU/MSCt74/fmZRU9X8lrJ3g+ctdpRa+TiE2fPj2IqE2bNi136esmc0899VSQY3WSyXaS57ti2O51rQSx1QpiJzlMI4btbiV3k0Lf28djpRAhBEAAAdbqz2lW+Dqt7o1PzPBd2RsvduNv3fqKXhLJ6yZ47eSulWwlFbpp06Z5v37FihWlHn8mTJjgJRkTJ040X5lsJ4ytJK+bJCaVw7RiOP5WclopHHv7OIQQDg8Pj/03QgiAAEIV+3C3PXxJV/jSrO75yl430Rsvhq1Ez0fyugmej9x1EzofiVuxYoWbOnWqVzCLKIW+ovf00097vb7T731k0UcSu91ybiWHacQwjRS2u32cVQgT7CFEBgEQQKiS9CVd5Uu6wtdpda/TbdyxwtdtVa/Vit6ECRO8b+Umlbx2gtdJxDoJXau/mzJlildQV65c6TUeTZ48OVhHWrp0qfdrh4aGuorDkiVLEgnf008/3fb37X4+MjJiXdrR2olhO/lLIoZppDBPIWyXWNJudZCEEgAEECokfVlX+ZKu8I0XPt/VvW7C5yt746VtaGio7bk8ODjoLXg+r+0kdOMlbrys+Ure2NeHFD4fIfQRvU5i2Eoq2x1zvDC2kr52ktjqZ51WEMevHPquGCaVQt9VwrH7CZMKYads426rg8ggAAIISJ/3Kl9S4fORvXa3cTvJXqcVPR95a7V65yN4Y8VtrJB1ErqBgYGu40tSISwCPoI4OjpqPn8/XhZbHXusJI6XPl857CSGnVYM260WrlixIqgQdlohbLWHcKwMdkooySCDiCAggAD96pPtMndbiV8W6cuyytdphc9ndS+N7LW6bZtU9MZLXivBaydn7cTOR+Z85dFHHCdNmpSpoy1btizxap+PxCWRxnaiuPr1Y4+dRA5biaGvFHZbKfRZJfQVwqSrg91k8Jlz3JBBAAQQStYXk672tdvTl1b6fBI32q3y+azwdRK+drdxx6/sdZM9H9HrJHmtBK+TrHUTxiTCNjIystYxsopeUils0f5eAtBsNruu+nWSxVaC10oQfeRwtRiOl77x+wd9pbDdKmGaFcJOewhbCWFaGRy7MthtzyAiCAggQAnErxfS53trd6z0tbulO3blr5vwdVvd85W98St6PqLXTuA6CV4nsVstc61+n8et306i2ErsstJK2Ma+TztxbCeKQ0ND1k4QfeRwvBj6SGG3lUIfIey2QthtdXDZsmWWtwyGWBWkrAwggAA5id/YLN4ZM2bkutqX5PZuUulrt8rX7pZupxW+dsKXRPZ8RK+T5DUaDecjd75SN2nSJO/Xjo6OujFikltnXLFixXg5zrzq107gVktiK0FsdVu60+rh+NcmkcJ2t487rRK2EsJ2t4yTymC3lUGf28StEkh8VgW5PQwIIEAfxS/kbd6xyRztVvvykr5u+/jGr/KlFb520jZW+NrJno/oJZW8TmK3WuRaSdxYyRsnHi3fp9Vt4rS0W6UbL4TdxHDFihUdpdHn9nA3ORx/jHYrhp2k0EcIO60Qdrul/EwfsZAy2MtVQUQQEECAHohfN/lrJX7d6vX53OZNK37jkziSrPT5Sl+rW7qdhG98mZR2ZVjG/7yV7PmIXqvVwHZy1271rpPATZw4sW0HCil+viL4TFy9/m6sNLaSwXaS6COH7cTQRwpDCmGn1cG8ZLDTLeJ2mcS9FMExt4aRQEAAAUKLX7cVvzTiNzaDd9KkSZlX+8bv6Usqfe1W+ZKs8LUSvjSy12o1b3R01LWTvE6CN17quonc6mMODQ2l6nDjVxR9b+eOExevvx0vZK1kcfVr2gliUjEcK4VZhbDVLeM0MthtZXDsbeKxojc+WSTtqmBWEUxya3jBggXGaiAggAAe/WtsORffUi553uoNKX6tVvvG7unrlfT5Cp/vyt542Rsvep0kr5XgdZK68cI2XjLzXPnzWQnstj+wkyyOPd54ORwvhuP/frwYDg0NWatkFl8h9MkeHr866CODnW4TZ1kVHCuHeYpgmmQRbgsDAgiQ46rf2Nu9vskdvrd6k4hfqyzeJOLX6ufjxa/Vyl1a6Ru/d6/bfr8kstdJ9FpJnu9t4Hb7/drtD0y7OthK3MbTaZ9f0tW91e8z/mftxLCTFGYVwm6rg0lXBpOsCrZKHslDBH33CHZLFvG9LcxqICCAAB7y1y3JI8vt3lZZvSH3+IUWv3arfXlJX6cVPh/hayV7rUSv3Qphp/2B7YSxHa1e4yOESYUv6YrfeEHsJHOdpLDVSqGPELa6Zewjg0luE3daFQwpgkluDa/eI9gpWaTXq4FIIJSB/w86s0CeUhZH1QAAACV0RVh0ZGF0ZTpjcmVhdGUAMjAyMi0xMS0wN1QxNjo1NDoyMiswMDowMP1cyN4AAAAldEVYdGRhdGU6bW9kaWZ5ADIwMjItMTEtMDdUMTY6NTQ6MjIrMDA6MDCMAXBiAAAAAElFTkSuQmCC;" vertex="1" parent="1">
          <mxGeometry x="336" y="310" width="36.55" height="40" as="geometry" />
        </mxCell>
        <mxCell id="iN45Id6dDKSgF8Y3VdJW-3" value="" style="image;sketch=0;aspect=fixed;html=1;points=[];align=center;fontSize=12;image=img/lib/mscae/Docker.svg;" vertex="1" parent="1">
          <mxGeometry x="386" y="310" width="43.29" height="35.5" as="geometry" />
        </mxCell>
        <mxCell id="iN45Id6dDKSgF8Y3VdJW-6" value="" style="group" vertex="1" connectable="0" parent="1">
          <mxGeometry x="336" y="480" width="90" height="90" as="geometry" />
        </mxCell>
        <mxCell id="iN45Id6dDKSgF8Y3VdJW-1" value="" style="rounded=0;whiteSpace=wrap;html=1;fillColor=none;" vertex="1" parent="iN45Id6dDKSgF8Y3VdJW-6">
          <mxGeometry width="90" height="90" as="geometry" />
        </mxCell>
        <mxCell id="iN45Id6dDKSgF8Y3VdJW-4" value="Query Endpoints" style="text;html=1;align=center;verticalAlign=middle;whiteSpace=wrap;rounded=0;" vertex="1" parent="iN45Id6dDKSgF8Y3VdJW-6">
          <mxGeometry x="15" y="10" width="60" height="30" as="geometry" />
        </mxCell>
        <mxCell id="iN45Id6dDKSgF8Y3VdJW-5" value="" style="shape=image;imageAspect=0;aspect=fixed;verticalLabelPosition=bottom;verticalAlign=top;image=data:image/png,iVBORw0KGgoAAAANSUhEUgAABAAAAAFxCAYAAADtW9pAAAAACXBIWXMAAAjbAAAI2wHNrPlDAAAAGXRFWHRTb2Z0d2FyZQB3d3cuaW5rc2NhcGUub3Jnm+48GgAAIABJREFUeJzs3XmclXXd//HX5zoDM4ALCuK+565o7u1ZeVe26F1StmgoOjCDmhTLYMs0dylzRgwLmTOSGlaaSZp2q6n93DK91VxySU1Nc09AwQWYgXOuz++PGU0MheH6nrnOOdf7+XgQEsPn+2Y4MOf6fDdzd0RERERERESktkVpBxARERERERGR8lMDQERERERERCQD1AAQERERERERyQA1AEREREREREQyQA0AERERERERkQxQA0BEREREREQkA9QAEBEREREREckANQBEREREREREMkANABEREREREZEMUANAREREREREJAPUABARERERERHJADUARERERERERDJADQARERERERGRDFADQERERERERCQD1AAQERERERERyQA1AEREREREREQyQA0AERERERERkQxQA0BEREREREQkA9QAEBEREREREckANQBEREREREREMkANABEREREREZEMUANAREREREREJAPUABARERERERHJADUARERERERERDJADQARERERERGRDFADQERERERERCQD1AAQERERERERyQA1AEREREREREQyQA0AERERERERkQxQA0BEREREREQkA9QAEBEREREREckANQBEREREREREMkANABEREREREZEMUANAREREREREJAPUABARERERERHJADUARERERERERDJADQARERERERGRDFADQERERERERCQD1AAQERERERERyQA1AEREREREREQyQA0AERERERERkQxQA0BEREREREQkA9QAEBEREREREckANQBEREREREREMkANABEREREREZEMUANAREREREREJAPUABARERERERHJADUARERERERERDJADQARERERERGRDFADQERERERERCQD1AAQERERERERyQA1AEREREREREQyQA0AERERERERkQxQA0BEREREREQkA9QAEBEREREREckANQBEREREREREMkANABEREREREZEMUANAREREREREJAPUABARERERERHJADUARERERERERDJADQARERERERGRDFADQERERERERCQD1AAQERERERERyQA1AEREREREREQyQA0AERERERERkQxQA0BEREREREQkA9QAEBEREREREckANQBEREREREREMkANABEREREREZEMUANAREREREREJAPUABARERERERHJADUARERERERERDJADQARERERERGRDFADQERERERERCQD1AAQERERERERyQA1AEREREREREQyQA0AERERERERkQxQA0BEREREREQkA9QAEBEREREREckANQBEREREREREMkANABEREREREZEMUANAREREREREJAPUABARERERERHJADUARERERERERDJADQARERERERGRDFADQERERERERCQD1AAQERERERERyQA1AEREREREREQyQA0AERERERERkQxQA0BEREREREQkA9QAEBEREREREckANQBEREREREREMkANABEREREREZEMUANAREREREREJAPUABARERERERHJADUARERERERERDJADQARERERERGRDFADQERERERERCQD1AAQERERERERyQA1AEREREREREQyQA0AERERERERkQxQA0BEREREREQkA9QAEBEREREREckANQBEREREREREMkANABEREREREZEMUANAREREREREJAPUABARERERERHJADUARERERERERDJADQARERERERGRDFADQERERERERCQD1AAQERERERERyYC6tAOIhGRzztyW3Mod8WhbjG1w3xZjY9xH4ozAbOO+D60Hhvb99xLAMVbg/jLYS+AvY7xIbE8R8U/cnob4797Usjid35mIiIiIiEgy5u5pZxBZJ3bOGTvhfjDuBwB7AXsCG5Z3VH8GeBDjPtzuII5v94nTXyrvmCIiIiIiIsmpASBVw87t2IoVfBKLPwn2fmBU2pnAHXgU5yai3LW8bjf65MlL004lIiIiIiLydmoASEWzOfk9yNmRuB8B7JF2njXzHrBbwC8j13O5N7YuSjuRiIiIiIgIqAEgFcjmnrU5pe6xwFFgu6WdJ4Ei5jeC/ZKG7st9bGt32oFERERERCS71ACQimBgFPKfwjke49PU2gGVxss4F4LN9aapf087joiIiIiIZI8aAJIqmz27nrplY4DJwO5p5yk/d4huAD+bpmlXO+gvoIiIiIiIDAg1ACQVNrdtKKXBEyD6NrBJ2nlScjfwP9407Q9pBxERERERkdqnBoAMKGtrG8yohvHgU8A2SztPZfDbMX7gE1puSDuJiIiISAh2fsf6rIhHEOeGE5WGU7INiWw47sPf/B42BFuv9xf4YJxhvf/Nv/8bwG0F5m/csrQcrBt8OcZLOItwFhL5Ijy3CC+9QN3GT3lj48oB/i2LVAU1AGTA2JzTP04U/bjKD/YrI7ueqPRtHz/9obSTZI0V8t998w2IvDuP7/Pmll+nHUNE5O3s3NM3ZWXdpERFcsWfeOOpLwSKVLPs7I4tqIt3JWYbYDuM7cC2xtgEZyQwAhicYsQi8BTwOOb/wKPHsPivDI7u9uOmvpZirrKzrvb/xqODEhXxuNubW34QJpFUmto6aE0qks2ZsTNR9FOi3MfSzlLZ/OPE0Z1WaD+bpXU/9MmTl67510gQzomYb5p2jKpgdjGgBoCIVJ4VuVMwn5aoRqkuAqaGCVT9bP78HIue2gOKB2O2P84ewO7kGI4b2Nt+QeXMK9YBOwI74gY4uEGPx1bIPwzcifEXYrvJm6c+nG7UwGL7JObjE9UwWwL8IEgeqThqAEjZWFtbHaPqJxFF3wMa0s5TJQaDfYthxS9aZ/tEb265Lu1AIiKydmxeWwNLh+4O4BOn3JN2niyx2W0bUNfQlLySj7ezzjrdTzllSfJa1c268k04HcB6YJX0cJ9EBOwB7IFzLOZYIf8kcDVwFd2Db/JJk5anG1GkvNQAkLKwc/J7M6rh58CeaWepTrYtxpXW2X4hdXaKN057Je1EIiLSy9ra6ths8M7EtgfOXpjtDoyGhh2I4hxYFxDgYVTWWl19E7BhgEobUN/TDJweoFZ1c7YAsrA9bntgIjCRhhXLrJC/HPPzmNByo25rklqkBoAEZWAU8ieCnw5Wn3aeqmf2NUr+YZuTP9YnTvtT2nFERLKk92ta+/a47YHZnhh74b47oxp2I+7b3/z2JdAy4GxeWwM0fDNYQedkm9f2Yx/b2h2splSLocBXcfsqhfwT5nY+MT/3E6c+n3YwkVDUAJBg7Cenb8rg3C+AQ/SOKCTbmsivtUJ+Bgu6f+StrXHaiUREapV1nrY1VtcKjAZ2A1uv90ua5gIr1vL6Y4DNg9UzNqW74VigEKymVKMdMP8ROb5nXe3nEZfavfk7z6QdSiSpKO0AUhus0L4fg3O3AoeknaU2WQ74Lps2XGNdbaPSTiMiUrNs0JbAOOAAsrH8uarZ/Pk5sMnBCzuTe2uLUI9bM1b3mBXyZ9vsjq3SDiSShBoAkph15k8AuxnYJu0sNc/5KF5/qxVmjk47ioiISOoW/uNIYKcyVN6Bl54YU4a6Ur3qgYnU+aNWaJ+mBpFUKzUAZJ0ZmHV1fA9jDune9Zoxti2UbrJC/jNpJxEREUmV2ZSy1XZaVnPRncgQsHYWPXGXndOxf9phRPpLDQBZJzZr1hAK7b/B/XtpZ8mo9YD5vasvREREssfO6TgU2K+MQ+xNV/6/ylhfqts+xP5/1tXxPTWKpJqoASD9ZjNnDqNhxe/Ajkg7S8bVYcyxQv60tIOIiIgMuNhbyj6GM63sY0g1q8P9f+jsuNIK7RulHUZkbagBIP1iZ7UNZ1jxD8DH0s4ib5qiJoCIiGSJdbYfwMC8FznE5sw4aADGkWpmfhjYHdZ1+p5pRxFZEzUAZK1ZoX0j6uuvAzs47SzyH6ZYIX9G2iFEREQGhNnAzcxbpFUAsjZ2wnN/7mtOiVQsNQBkrdjMmcPALgPbJ+0s8o6+aV3tP0g7hIiISDlZoWMX4L8HbkCOsHNm7D5g40k12xCz63Q4oFSyurQDSOWzWbOGMKz0e+ADaWeRNXA71QrtS72pRasBRESkNrlPwgZ0Esvw6BSgcQDHrEWvgL0K/hrwau83e+XfP+3LwbpX/SW+DKwHPAe2AcRDIGoA3wAYBGwIbARs3ffjSjCc2K+xwsyPedPk+9MOI/J2agDIu7K2tohR9ReAfSjtLLLWfmRdHf/yCVN/mXaQjLkbfH7aIcovejjtBCKSXTZnxgii6OgBH9j5us2e8R0/afrCAR+72hXjUeX+vNn8+TkWProFNng7zLfDfXuM7YH9cHYHcuUcfzVGQPH3dt6sfX3cpJcHeGyRd6UGgLy7TYZ0gOu0/6pihsddNuf0533iqdennSYzjAd8Qks+7RgiIjUtisYDQ1MYeQh10XjgRymMXd3qRywp9xA+ZkwJeKbv2y1v/TnrbFuPqH5/PDoM/HBg53Ln6Rt5W1b0/NzgCAcfmDFF1kxnAMg7skL7BMxPTjuHrAsbRJT7tZ1zxk5pJxEREQnB5rcNBiamGKHZZs+uT3F8WQfe3Pq6T2i5yZumTvWmabtgpb1wP5vebQhlZp+nq/1b5R9HZO2pASCrZYWOg8Fmpp1DEhlOHP/OZrdtkHYQERGRxBY1fAnYIsUEm1O3/KgUx5cAfMKpD3pzy0l495Y4U4DF5R3QZtjcGbuWdQyRflADQP6DdZ6xGR5fDAxOO4sktjN19ecbWNpBREREEjol7QDgFZBBQvDm1te9edpM8B2BHwPFMg01iFLUUabaIv2mBoCswtraIiz+JWZpdtglKPs8ne1pLpkUERFJxObkPwzsl7DMcwGi7GOdHYcEqCMVwptaFnvTtG9jfiDGPWUa5nM2p+PjZaot0i9qAMiqRtVPAT6SdgwJzJhhhZmj044hIiKyTiImJaxQJOIzwOuJs5gnzSIVyCe03MuL3Qdh3lmWASI/UysypRKoASBvskL7fsD3084h5WD1ULrA5rU1pJ1ERESkP2zuGTsCn0tUxLnMx0+7D7ggQKTP6JDd2uStrUWf0DIR5xQgDlx+bwrtWgUgqdM1gAKAtbUNZlTDecCgtLOUw7BBg9h1+Iiq67q+sOw1nl+6NNTVMXvQXf9d4LuB6omIiJRfsXQyZsnucff4xwBE0U+I4yaSTYJFxPE3gRMTZZKK5c3TfmKdHSsxnxO2ctQI/L+wNUX6Rw0A6bXpkOm47552jHL55l77Rz844IPJ3jwMsIseeyg+6c9/LAUt6vYt62q/1Ce03Bu0roiISBnY3PyGmB2bsMqtPnH6HQA+fspjVshfC3w6YbSxVmj/nje1lPcEeUmNN0/ttEJ+RyDgNX5+uJ17+qZ+/Kkvhqsp0j/aAiDYnPweuE9JO0e51OdyTNjjvVXzWl/S080x119ZGnvDVaXXVqwIXb4Op2BtbWr+iYhI5SsxDlg/UQ3nx6v+2H+aqF6vYbidEKCOVLIF3dOAuwNWHMzK6JiA9UT6rWoeiqSMcvyEGr7y7yvv2S3abOiwqlj+f8NzT/k+888vXvz4w6H3nb2F7cumDXrTIiIiFc3mz8+RfJn9k2yy/RWr/D/NLdcCDyesC8bJNnduTW6dlF7e2lrE7WigO1xVOyxcLZH+UwMg4+ycjiNxPpx2jnI6aa/9K/513l0s8t07/1Q67Kr5xYB7/t+Z8wOb2zay7OOIiIisq4VP/jewfcIqs3zMmFW20zk4xuyEdQG2JF78xQB1pIJ589SHMQoBS77fZs4cFrCeSL9U/IORlI/NmjWEOJ6Rdo5y+tQ2O9heIzap6Nn/hxYv8g9e/qtix713xLGX/9m/z0YU6783UIOJiIj0m3FKwgqL8e6fr/Znou4LgJcT1ofYTk5cQypfHHUAywJVG8zQ4ocC1RLpN+0DzrKG7iaItk07RjmdMnr/ij34z93p/Nu98bTbbyqtKIU962+tGI12zhln+/gpjw384CL9Z3PbhlIcsi3OFlg8ksiG4z4coo3A1wPrXYprPhinDmwZHndj0XI87gZbTORPE/Ms5J7x5in/Svm3VDVsbn5D3Hai5JtjvjkWbY4zBPfhmBn4ULBueq/NegXiIm4vYv485s+DPceInud9TGvwg02kNllX+3vBPpCwylxvbn19dT/jja3LrJA/H5icbAh/nxXa9/OmlpD7xKXCePOUf1ln+/mYBbr5IfoEcE2YWiL9owZARtnMmcMYFgU81bTy7DVipB2yxTYVOfv/7NLX/Lgbry7d9NzTAzbl/58sRxxPB45LL4PIqgyMzvYdIRqN+a6Y7Yn7bsC20LAR5mB9H+l93/PGXyNf5TtwMHvL94Bb36+PsUJ+OXAvxl9w7gS/3ZtanhiQ32gFs8629aD+g2AfwdgXY3ecrXo/j9D7ue/7JBv8x+f/jZ9482P7PveLGmIr5P+F21MYT2P8DeIHiXL388KyJ721tYxnn0jVie1Ekn0FX0mRs9/1I8zn4DYJSDZZ0PtQmPCmAql4kV+MB2oAmO8dpI7IOlADIKuGFU8GG5V2jHL69t4HRWaV9/x/2ZOPxk03X1ta3BPwPJl15l+xuTM6vHH6I2knkez598M++2HRfuD7AftiNvzfD/Nl7ZENAd6P8/43Elmh40E8vpQo/q1POPXBcg5eSezsji2o40jcx2ANB/PW9wfh/ggiYAvMtwDe92YDpxTDqIbXrbPjAfD7gbupi2+p7n+X4q2s0P6JtFO8qdhzp5/U+mraMdaWzT1zJMZXEpb5jZ809dl3+wCf0PJPK+SvAL6QaCTnKJt75hRv/PaiRHWksr244v8Y1fACsHmAajsHqCGyTtQAyCCb2zYUGmp6z9oWw4bZkTvsUlFnXLyyoptT/nx96cLHHqqgWS7LUWQamrmQAWLnnr4pK6PPgX0K+BhmG/X+TIqLYVbhe/auOsi1WiF/H3gnS+su9MmTl6adLDQDo+uMz0B8CjkOwVM9F2g9zN8HvA+AUkTvagG/nsh+z8rua6rpARbss8Bn007xplz9gcBf0o6x1uLi8fQ26BLUiGat3QdGP4U4WQMAGvoytyesIxXMW1tjK+SvIcx7pq1s1qwhPmnS8gC1RPqloh6QZIAU68cCI9KOUU4n7bV/NDhXOdv/b3ruad/nkp8XK+vhv4/xJev88dZpx5DaZvPn56yQ/z0rc8+C/Qz4IrBR2rnWYG+wcxhWetYKHR1WaK/0vGvF2toi6+o4mkL+b3j8vzgfpzLfD2yG2ddwfkNdw0LrzF9nZ89MeiK8VDhra6vDaUpY5kafOOWetflAb5pyM/DXhOOB09R3baHUNLs/UKGIhtJOgWqJ9EslfsGXMur74nRS2jnKaf3Bgxm36+iKeG33lHqv9/vUVZcUn1v6eqVMcb6NDSJaGehQG5HV67uGa9Wl5dVjOPgUsMeskJ9obW3V+HsAwDrz72dUw+24/wLYLe08/TAY41B85WoPdJMasmn94cA2yYrYWf36cLd3Pytg7WzDS//4fIA6UtHicFvDvFTTB3FL5aqIhyQZQC8/cRhmO6Ydo5yO23V0NLy+Ie0YPLz4Jf/QwF/vt26ccbqTVgZAtd84MQI4m1ENd9mcGVW1f9Nmz663rvxZGH8GDkg7zzp6wk+avjDtEFJmnnSSwp5h5PZX9euXLIsuBpJvMQl1QJxUrmIU7mwSY/1gtUT6QQ2ArIn9+LQjlFPOjIl77pvq69rdOe+R++P3XfbL4l8XLazwJ/83bcCw+Mi0Q0jNezztAIHsTRTdZV35L6UdZG3YnBk7U7fsdpxvQsJz1dN1Z9oBpLysMHM02EeSFeFnfSuO1lrvGR92UaJxex1ic/J7BKgjlaonWhyslhoAkhI1ADLEzu3YCvivtHOU0xd22Dnabv0NU3uD++LypX7ENZcVm26+trSsuDKtGOsoHpd2AqlxZrXSAABYH+c3Vsh/N+0g78YKZ3yEKPo/YJ+0syRnd6SdQMrMSkln0FcSFc9dp18Z288Sjg1gREwMUEcq1eTJy4B+NZjema8Xpo5I/6gBkCUr4mPBavqAmm+O3j+11/Tvnnw03ueSnxf/8PQT1TLr/zZ2sJ0zY/e0U0gt82rfArA6P7TOju+kHWJ1elcoxNcCG6edJQh3rQCoYXberI1xvpasCFd446kvrMsv7Ts08O5E4/c62ubmNwxQRyqQ915Z81qYapEaAJIKNQCyxKiK5arr6kObb20HjtpiwGf/X13Rw8Q/XVf68nVXlF7qrvLbXOLoy2lHkBpWWysA/s38R9bZPintGG9l58w4DOdXQH3aWQJZSc/ge9MOIWW0omccMDRRDfdzEv16I8QqgPUoMjZAHalcYd5rxnFNT8pJ5VIDICPsnPzeYLuknaOcJu19wIC/nu948Xk/6NILij97+L7Ku95v3agBIOVjNbkCoJfZGVbIfzrtGAA2Z8ZBxNF8YFDaWYIxHtB92bWr94Yia05Y5lGaWq5PVGFl96+BpQlzgNFs1X3ehry7MDP3FmolgUj/qAGQFTE1fcDbThsOt8O22WHAXs/FOOZHd99W+ugVFxX/8eorVbrkf7V2sK7296YdQmqTN057BajVU9xzwEVW6Ei10WpnnTWcyH5D0pnUSuNo/38tW/Tk54DtEtUwn9u3PHud+UmtrwIXJ8rRa2c62z8ZoI5UGJs1awi9/94HKGa61lRSoQZAZnhN3017yt4HRpENTLP970te8g9e/svi/9x1a1yq9Ov91kn02bQTSE2r3VUAMBz8F9bWlt7X1vqeAljt3S2t/f+1zT3p7H83JZ8XIgpxHGIbABhNQepIZakvhjvfwbUCQNJRl3YAKb/e0/9tt7RzlMvGDUP46nt2K/sbbnfn/L8/EE++7YbS0pXVdsJ/P7h/Cvhh2jGkZj0OvD9QreXAYqD7LT/upnf2ux7YEBhOqNmatXMgoxqagDkDOCYAdk7HocBRAzDUK8DfgL9jvAr++qpvZKONAHDfBPOReLQJ5psD27CuEw85NQBqlc2ZsTNR9ImEZS7xidNfCpHHJ06/wwrt94ONTlbJPmOzO7byk6Y+GyKXVIiouCMe6i2nVgBIOtQAyIIV/ula3ok2cc/3RsMGDS7rGAuWL/MJf7q2dOU/H6/FKf+328+62kb5hNYFaQeRmrS2KwCKwD+AB4GHcZ4mFz+H+9PUsZDl6y/xk07qWVMRm982mAWDt6OO9xBH7wM+ChxEeffHn2bnnv5bP/7UF8s4xiqsrS1iVEO+TOWXAtfi/r9Qut6bv/PMuhSx2bPrqevZBY93xvx9wAeA/Vjze5FX+deKR9ZlTKkCUTSepPvlo7grTJg+Fv0M99kJq+TIxccDPwiQSCpFnNsVC/RWMPaXwxQS6R81ALLA/NBaPYumPpejcfd9yjr7//t/Ph5PuPna0qLuZeUcppJE0PAxwuyDFFmV8fhqdunGwCPgfwH7C2Z/YeWQ+9bmAX9NfEzrCuDRvm9XA1jnGZuBj8MYD7510jFWY0NW1k0CWspQe/U2rf9vnNDnd/wDfCbd9ReEOICv78/z/r5vvwWwmTOHsZ4fgseHAZ9mdfvAjb94a2u1HbS6EHg67RBvynnyg+3KwGbNGkJD4hPz7/Px0/8vRJ43eXwhWAcwJFGdyMbZ/Pk/9DFjAt0bL6kzwp3zYtGjwWqJ9IMaANlwcNoByuXonfeINh0yrCzdjWXFlXz/zltKP33g7mp745mc837UAJByMHuc3rMzFmBcgfM7it239h2+NSC8ecq/gNNsftsZvNQwDue7wBaBR5lgs9tOH7DfV2zjw/V57RmM6YzY/uJyP7j45MlLgSv7vmGdHbsRxYeBfRVn394Pqsbl/3apN03VHvA1aVh5FLBxsiIedvYf8KaWxVbIzweOSVaIrVj05GeA3wcJJhXAPxyo0Ct9X4tEBpwaADXOOtvfg9lmaecoBwNOHr1/WWb//7LgBR97w5Wlx15ZkoUl///J+UDaEaRG2fKHYOiHGbndbWnPivWtDihYof1i4CdgRwcsvyGD6k8AzgxYc7Ws0L4DZh8PVG0+9Yzz46amcjiVN099GHgYONMKM0dD6dtgt6aRRQaCT0hY4DXqowuDRHk752dYwgZAb6FG1ACoCTZ7xibURQcEKvf3QHVE+k0NgFoXRe+jJk+qh8O23dF2HT4i6Ox/MY456/674ta/3FJaGWdv4v9Nxh42N79h37VtIsF4Y+sy4Ja0c7yVN7UsBo6xQv4vwFmEuiHH7WsMQAMAt89hQTL/nKap45JepRaKN02+H/hG2jmkPKzQvh/YgQmrXFiuZpU3T/uzFfIPA0kPUf6UzTlzW5/47adC5JIU5aJPE+wGNVcDQFKjawBrnu+XdoJyOWX0/kFP9n7qtVf80Ct/Uzz1jpuz/fDfK6IU75N2CJGB5E3TZuMcS7gH4Pfa3DN2DFTrnZknPUEdjHsY2T2hUh7+JQss+RaJiPMCBHln5iHq54iKxweoI2kzawxXLLonXC2R/lEDoNY5e6UdoRz23WSUfWSLbYLN/l/02EPxe+fPK976wrN68/sGt5p87Yi8G2+e9gvgtGAFS6Ujg9VaDWtri8CS70n16Ft9WyJEys7OOms48JWEVR708VPvChLoHdX9Egjx9+I4a2vTqtsqZoWOg8HDbY90rg1WS6Sf1ACofXumHaAcJu19UJDX7qLu5X7ktb8rjb3hqtLrK/Xed1VWk68dkTUaucMPgu07Nzs0SJ13MnK9rYENkhWxB71pys1B8oisjcE93wCGJqph8bwgWd6FT5i8APjfAKW2YNP6zwWoI2lxvhew2tN9552IpEINgBpm53dsAWyUdo7Qthy2nn1h+50Sv3b/+MyTvv9v5xV//8/HM7/ef7WMPdKOIJIGHzOmRGTHEmLmzznY5s4dlDzVO6gr7Rygyh8C1BBZK9Z7hm/Sw/+K1MW/CpFnLYTZZuB416/yAAAgAElEQVQ2PkgdGXDWlT8K88PCFdTsv6RLy5FqWbfvEO5aqMrxzdEHRIOidd/+v7y4ku/deUtp9gN3x1rv/662TztAVXE+Z4V8mZejDqAcX/DGaZVzj/kA8/FTHrNC/jwg6T7lYcRL3guU5yo79x0S1zAeCJBEZO10tR+C2a4Jq/zBjz/1xSB51mTkDtex6MlnwLdOWOlQO3vm9n7i5CeD5JIBYeeevime+2nYqq6mq6RKDYBaZmyXdoTQ1h88mGN33XOdZ//vXvgvH3vDlaW/L1msZ/81G2Wdbet5c+vraQepEiP6vtWGlXFD2hFSF9fliYrjSb5a7kDK1wDYgKSdXiu9FCaMyNoIcPif27zkOdZyqDFjStbZPg+zpEvAI3LFE4BTQ+SS8rO5bUMpNVwBbBKw7EusHHZ1wHoi/aYtALVtu7QDhHbCbntHGw7u/3NJyWNm/vXO+CNXXFTUw38/5AZvk3YEkbT0Xdv1x+SV4qTXiL0LWy9xiTinyQAZEHZ2xxY4hycss4hNll8ZJNDaiut+DgTYLmjHlnVLkARjbW11FBt+BRwUuPQv/aSTegLXFOkXfdGvZeab47WzB6Auijhxr/3WqWnVUypx5I672JE77jKgr/mSx3Tce0f880ceqM5zBkq2FfBQ2jFEUuM2H/NPJqxRzgbAkOQ398WbBYkisiY5Px5I9gDsftFA31jhJ05+0gr5G4CkV25uRnHJ4cBvA8SSMrHzO9ZnVMNvgE8HLl2kFHo7gUj/qQFQyzzokqXUjdlhl2irYeuvU0djaN0gtlt/wwHthjzz+qt+/E3Xlv70/DPVvOKgdpa0i6yLOv8jpcRVku53fhe+PHkNUwNAys7a2iJGNYxLXMhzFwSI03/GeXjiBgDgjagBULGs0L4D2KXAPmUof4nOgJBKoC0ANc1q6uHtpHWc/U/DZU8+Gu//2wuKVf7wD2oASMZ547SnMZ5NWGbTsi37dZYGqPLeADVE3t2mDYcCCbeV+f0+cco9QfL0V0P35cDLiesYH7ezZ+qQ3QpjbW2RdXWcDHY/5Xn4X475d8pQV6TfquaBStbJxmkHCOWjW25j+4/avOL3Myzp6eYb119ZOuq6K0qLe7rTjpOcWc28hkTWmfO3hBUiViwpz4qsiFcCVPmYzW1Ldie7yJq4BZj9Z17yIOs49NjWbtxDXD0YkSsdH6COBGBg1pn/HKMabsf9J8Cwsgzk3uETWv5Zltoi/aQGQC1zr5k3dKeMPqDiX6s3PPeU7zP//OKvH3+4Ovf7r1btvIZEEkjaAIC6eNMAOf6T2RMBqmxAPOS4AHVEVsvmnjkSPOnhfyuJ6i4MEmhdWd15gSqNtbY2bcNNkZ3fsb4VOo6lkL8H4/fAAeUbzZ+irqejfPVF+qfiH6okAWNw2hFC2GX4Rvaprbev2Ndqd7HId+/8U+mwq+YXn1+6tNqX/K/KrCZeQyKJmCdvAMRlOpPF48fC1PHTrat9uyC1RN6uVPo6JHxPYlztEyYvCBNo3XjT5Ptx7gpQagtGNnwmQB3pB+tsW8/m5A+3Qvs8evwF8PMpz3L/t3Iib/bG1mVlHkdkran7WNOsJq6ambT3gVFklbn6/+HFL/kx1/9v6b6XFtbWg/+bvD7tBCKpK0VPESX8K+42JEyYt3mx52lGNSwBhiestD7OPJs791BvbFwZIprIWwRY/m/zkscIwPw8sP0T14k4AbgieSB5JzZnxgjMDiCKDsD9o1jDB3snxwb0PeVpPn761QM5oMiaqAFQ26q+ATBqyDC+8p7dKm72393p/Nu9ccvtN5V6SsmPCK9YXhurSEQSsfjVxG8YzRvChFmVt7bGVsjfBByRvJp9hNLii23u3KPUBJBQbM6Mg4iiPROWWUhu+FVBAiWVs19T4kwg6Ra5T1nnaVt783eeCREra+z8jvVZyoZENooo3hRnE4xtgO0wtsPZgSjqPWzR05qjsWtYsLw1pcFF3pEaALWt6t/ANe+xTzSkrrL6GM8tfc2Pu/EPpRufe6pGZ/3fwhjQu5ZFKpL7KyRehWTlW03j9kfMAzQAAPgCpcUX26xZX/dJkwJcMSiZl4vGkfyr5cWV0pTyxmmvWCF/GfD1hKVyRIOOA9oCxKps8eLbrZBf11fBRn3fD6e3E7sBkAP6nmL6yr71n+jKeHf2GIMHfc1bp9bQuVBSK9QAqGm+coCXOQXVkKvj+N33qajZ/8uefDRu/tN1pZe7s/K+2HrSTiCSOqt7FRK+hzMv32qaUmk+ddGZQKhVBl+gYcUDdk5Hk4+f+sdANSWDbObMYQzjqMSF3H8ZIE5AfgFY0gYAOONs/vwf+ZgxNbyUEHD2TTvCgHIeIbaP+7hJya+NFCmDinq4ksC8umdvv7HLntGoIUMrooPx6ooejrvx6tJR112RoYd/wL2qX0MiQZSWJT+8yct3kImfNH0h+PzAZXck9uuskL9Qd5bLOhsWfwlYP1EN5xFvbvlLmECBLOi5AXg6eSHfmpcf/2TyOlI57EEGlz7qJ059Pu0kIu9EDYBaZla1J44acOJe+1bE6/P2F5/zAy+9oPirR/+WwWVc1fsaEskUizuAcswifpVc6e9WyJ+rRoCsg+SH/2G/Sl4jLG9tjbFAqxLi6IQgdaQS3EEud4gff+qLaQcReTfaAlDbFqUdYF19drv32C7DR6Q6+78yLpG/947SaXffFpdSO0AmdS+lHaBqGPN8wrRj046RNQbG7BkjyeVGgo/AbCQeD8H6Zh3dhmC+vO+DXyK2FzF/niE9z/vY1u40s4fkE0590Aod54E3lqH8IGAcudIx1tl+CRad7U1Tby/DOFJDbO6MXSH6QMIyThRfGCRQaJa7AI9PJfley8/a2R1baMa4qjnwE0Z2T/MxrVo5KRVPDYBa5rxcrUcATBq9fy7N8R9Z8pJ/4/orS/cuWpDZJ38A3Ku2iSS1xebOHUT88p7E0b6Y7wn+HrAdge2pixr+feqTs8qBffbm//R+yBs/Xt6AFfIvgz+LRX/D4/vA7sf8YSa0POWVcoxUfxRL3yUXHY6xaZlGGITZ18C/ZoX83WBz6B50sQ4LlNUq5Y5L/NfIuMUntPwzSJ7AfPyUx6zQcRt40iZHHTkfC5weIJYMvCVgx3rT1MvTDiKyttQAqGWRL8KrrwOw/6jN7IObb51KcHdnzt/uiU+9/U+l7lIxjQiVZnHaASSbbNasIQxd+UFiPg5+CLAP2GDsjQeKIP9EbAy2Me6jwb4CgBsU8q8bPIzzABF3Ujf0ocSHAA4AP2n6Qus643g8/j3lPwF2P/DzaVgxy7ryl0B8gU+YfmuZx5QqYXPnDsL9mMSvwpiKW/6/qngeWNIGAMDx1tbW7q2tlf8Pjfybcwl1TPHGqQHOgxAZOGoA1DK3F9KOsC6+tfeBqez9X7B8mTfefE3p6qf+UX0zf2UT6X5iGTA2a9YQ6ns+j/FVGuy/iIOdat9f6wEHYByAc1w1PPy/wSdMudIKHR3g0wZoyA1xToDoBCvkHwUuoGTztJw54+KXP4tZ0pUo3ayoD324ZVjFnkuoa/gJMDRhpe3ZbMjHAd26UR3uhmiSN0+5Je0gIuuiIg5ZkzIxezLtCP21zfrr2xHb7TTgr8vL//lYvPcl5xf18P82yyJ1taXsrLNjN+vKz6VhxYuYXQz2ecJdaZc9TVOng/0mhZF3Bk4j509ZIf87K+Q/bW1tep+RRW7JD/8zrvRTTlkSIE3Z+Emtr+L+uyDFYnQYYMXz+zE7hgXdB3qTHv6lemkFQC2L/alqOwPgm3sdENVFA/d+8bUVPbTcfnPpZw/fVz1TfAPFeNEnT16adgypXdaZfz/GqRiH4dX2r1XlcnDLDT+a0hLAv5xChDrgCOAIRtU/ZV0d51HkPK0KyAabe/rmkEt+tZ1bmFP2y82YB3wteSH/vM2ZMcInTtfhu5XFgWvAf+xNLf8v7TAiIagBUMvq6v9BqSftFGttg8H1HLPLHgP29H/ngud97A1XlR5/ZYlm/VfHvepWkEh1sLn5bSiRx/gy5d+rnkne2LjS5s//GoueWARMTC+JbYv7/5Dj+9aVv5xSPNMnTr8jvTxSdqXo6yR/f7mIkcuvCRGn7Bb03MCoIc+Ab52wUj1R9FVgdohYktijwCXk4gu9cfojaYcRCUlL82qYN57yAlV0jdv43feONhxc/lW/xTjmR3ffVvrI5RcV9fD/buzBtBNIbTEw62r/NiUeAY5CD/9l5WPGlLxp2omYjwPSvvKwDudIouh2K+RvsULHEdoeUKtsbPISfkm1XKfmra0xFv8iUDldJZuuh4DTidjHm6bt4k3TvqeHf6lFWgFQ+x4EPpJ2iDUZFEU077lv2d8MPrrkZR9741Wluxb8Sw/+a+KuBoAEY3NP35xi7gLMDk07S9b4hJbzrTDzLij9Atg77TzAB8E/yKiGx6zQ/mOG9Mzzsa1pNygkAJsz4yCiaPfEhTyqjuX/b7DcBXh8Ksmbmu+1zjP28eYpfw0RS96VAw9jfhPYzcTRn7x5yr/SDiUyENQAqHXGA3jlNwC+/J7doi2HrV/W2cCLHnsonnjLdaWlK1eWc5jaYf5A2hGkNljnGftguT9gbJZ2lqzypsn32/y2A1lYfypm06iMQxZ3AiuwvOH71tl+BnU953hj67K0Q0kCUW5s73NVIo/RNLWqton4+CmPWaHjNvAAVwKWjgW+mbyOvMUrwN9wHsB4AKIHGVz3gI+b9HLawUTSoAZArXPuSTvC2vjm6P3LNvu/sHuZj7/52tKV/3xcs/5rLyYX3Z92CKl+VjjjQ1j8v8CGaWfJur4l1T+wQvsvMPsxzuFpZ+qzOWY/Jm74lnW2T6W55WIP8BQpA8vmtTVAw1EBSv2qKv/83S/ASN4AMPuazZ491U86qXoOcUrPEmAxxmJgMc5C4HnMnqLkT0H0DHHxGT9p+sKUc4pUFDUAap7fVunbbD+x1Xa294hRZQl53TNPeuPN1xSfX/p6OcrXLucBb5z2StoxpLr1nfJ/LTAk7Szyb97U8gRwhBU6Dgb/IfCJtDMB4GyF2UV05SeY+7F9OaVadDccAQwPUOnrVsh/PkCdgWXB/p0bQW7554DfBqqXvjg+mMiK614geh3i3uWbg+KlrIxW0NSypCobRSIVQA2AGudNLU9YV/4FnM3TzvJOThm9fy50zeXFlXzvzltKP33gbl3vty4ibk07glQ3O3vm9uT4HXr4r1jeNPV24NDeLRreBP41YFjauXA+DHafFdoneVPLuWnHkbXkjA1UaadAdarZsdRSA2DQiHu8sVH7L0UqhE7gzYKY29OO8E523WhjO3Sr7YLO/t+14AU/4NILinr4T+S2tANI9bLOtvXIla4ERqWdRdbMm6f81ZumjifHlsDJwMNpZwLWA/uZdea7bO7cQWmHkXdnszu2olJWktQC80/a2R1bpB1DRGqTVgBkgfkfwf477Rir8+29D4rMwjz/F+OYs+6/K279yy2llbGe/ROIofumtENINaufASQ/CXztLKD3tpMnged6f2zP4b4I8+XE1k3kywHI5YxS6Y0lyhsR+WA82hr3bcG2BbYDdgFGDFD2itK37We2wdl0dnyUyJv7zglI7wHcGE9p8U7W2Xa4N7dqL1elqvNjgOCr+TIs1/c5bU87iIjUHjUAssDq/4BX3nW6o4YM48s77hpkFcrTr7/qY2+4qvTnF57VfrDE/C6f0Log7RRSnWxO/sNE1lzGIVYA1+J2BXF0g584+cnQA9jc0zfH6/bEfT+cI4ADqfTDVAJycJqn3gjcaGd3bEEdJ+B+ArBlSpE+BkOus7POOsxPOWVJShnkHVjv341vpJ2j5jjHGuS1z11EQlMDIAN8wqTnrJB/iIGbkVsrJ+61b66hLvlL8KLHHopPvOWPpddXVl6Toyo516YdQaqTtbVFjGroohzby4xncf8pcK43tSwOXv8tvPHUF4AXgD8C7TYnvwcRD5ZzzErlJ059HmiztrbT2LT+cNxOBD464EHM30d9z+9s7tz/0l7iCtM14/0Q7Zx2jBq0M10z3s+E6TqTR0SCUgMgO66gghoAQ+sGccJueyd6SFjUvdybbr4mvuKfj2u9f1C5/007gVSpUUM+D75b4KqLcH7EyO5C3zV2Ay/ufoaoIZWhK4W3thaBS4FLrev0PfG6ieBHM7CHBn6U0pKfAk0DOKasiefGapK6TDw6FnQor4iEpUMAsyJXWafJjt1lz2hEw7ofDn79s//0/X87r6iH/+Ae9eYpf007hFQrnxK2nl3DoNKe3jztJ6k9/Mt/8AmnPuhNU5vIsSXu3wJ7ZiBHt0JH9V0RV6NsbttQ8C+lnaOGfclmzkz/Zg4RqSlqAGSEN057ALwSTnYmMuPk0fuv02uvu1hk8m03lA67an7x+aU6D6oMLkk7gFQnK8wcDbw/WEH3n7Jg+Wf8+FNfDFZTgvLGaa94c8sscsN3xP1YnEcGaOROm922wcCMJe8qHvJFQH8W5bM+w+Ij0w4hIrVFDYBMsflpJwA4fLv3RDtsMLzfB2r97eVF/oHLf1n86QN3x1psWCZeGa8RqUalcLOybmd6c8s3vbVVK3yqgDc2rvTmlnks7N4Dty+C31/mIbckVz+5zGPI2nAfm3aE2hcfm3YCEaktagBkiQ3+OXgp7RiT9j6gX6+72J05D94TH3TZL4oPvLRIz/7lYvyfN0+tiFUiUpU+G6jO5SxcPjVQLRlA3toae/PUy1jQ817cjy3r1gCzk+2ss4av+QPXQVwK8XWm5s9YsjlnbksaB0Jmjn3YCu07pJ1CRGqHGgAZ4hMmPYdZqie8HzBqczt40y3Xevb/mddf9U9eeUlx0q3Xl1aUUu9d1LaY89KOINXJCu0bAQckLuS8SK7uBM38V7feRkDLPLoH7YIxHVhehmE2ZHDP8WWoC9Qlv2XABvRwxHRY6evofeRAMCw6Ou0QIlI79A935kTnpjn6lPcetNavucuefDTe/7cXFG9+/mnN+pffKyzLXZp2CKlWuT0J8fXE/Pve+O1FyfNIJfBJk5b7hGntRNHeGH8KPoB5eR6KPA5wzaAPTV6jwpkfk3aEzHA/2qDfWydFRFZHDYCseXHZ1cDjaQy9/QYb2Oe23XGNr7lXVnQz9oarSkddd0VpcU/3QEQT41yfPHlp2jGkSlkc4orRV1lad2GAOlJhfPyUx3ix+5DeGwMohqtso63r9D3D1esTWfKMXtsrAOycGe8Ddk47R4bsSOGMD6YdQkRqQ83vUZNVeWtrbIX2n4L9dKDHPmX0gVHO3v35/8bnnvLjbry69NzS1zXrP2B8JXXRnLRTSBVz9khexK5VE6p29W3rmGVd+YdwLgcawlSu+xjwYJhab4hXJp5sdavpBgBx7hgI8mX6KrBlIQpVJHPD+SJBZu/9GOCW5HVEJOvUAMiiXM8vKDV8Hxg5UENuVN/A0Tvv8Y5P/93FIj+657bSzL/eGceuZ/+BZb/x46c+m3YKqWa2WeKHAfc7w2SRSuYTpl1rc/JHEfE7QjwUxf4BIHBDO/c6JDyGwmp3C4DNnl1PnX85QKknaZr2OQ/USahUVsjfSpArUn2MzZp1sk+aVI4zNUQkQ7QFIIO8sXUZ+E8GcswJe+wTrTdo8Gp/7uHFL/mHr/hVsePeO/TwP+C8BJZPO4VUvfUTVzB0A0VG+MRpVwCzghQzDgxS562GLlsSoEryvxOVqm7p54GNEtcxv6jWH/4BMPt1oEobUt9zRKBaIpJhagBk1dK6szFeHIihBudyNO2x73+81rzver8DL72g+NdFC2v/TUBFsgu9aerf004hVS9AAyAO8dAl1aLefoAH+Rq0lc2dOyhAnTf52NZuIOkBNFvU8KFtYQ7/M78oSJ1KV1ecD4S5xsgiHbwoIompAZBRPnnyUjw+cyDG+up7dos2GzpslTdCzy19zT911fzipFuvL/Xoer+U+EoG5U5LO4XUAk++39mi1wMEkSrhx019DeOcAKXqWPHqVgHqvF3ShlQD554+KkiSCmJdM0eBfSpAqXt9/PSHAtSpeH78qS8C1weqdqjNPX3zMLVEJKvUAMiyISu6cH+y3MOctNf+q7zOLnvy0Xi/315QvPG5pzTrnyazc/z4yWX/85dMWJG4glt9gBxSTaL4N0Hq1K3cIkidVVjy6yhLtkOAIJXF468S4vwo84zd+GEXByqUo5j7WqBaIpJRagBkmI9t7caiaeUc45PbbG97jdjEAF5d0cPEP11XOuq6K0ovd+sMm1QZL1OKNfsvoQQ4vT9eL3kNqSZ9M8ALEheKy3LifvKDUT3aJ0COCuPfCFAkphiF2hdfHXJ+Gcm3lfQyC/FnICIZpgZAxnnT1MuB/1eu+qfstX8O4I4Xn/cDL72g+LOH70t4tLIE4f59nzj9pbRjSK3w5A0Aj7YOEESqjfFI8hpR+BP3zZ8JUOW9AWpUDCvMHA0kb2oYN/qJU59Pnqh6eOO0V3D+EKjanjbnjH3D1BKRLFIDQMDt2+A9ocvuNWKkfXiLre1Hd99W+ugVFxWfePUVLfmvBO53MXLH89KOITXEoteS14h3CpBEqo2TfKm9x+G3j3iIFQB8JECSyuFxmAPo3DK2/L+PebhVD7lAfxYikklqAAjePPVhnI7QdQ/bZkf70OW/Kv7PXbfGJV3vVymKkGv2MWN08qKE4/E/k9ew9yUPIlXHKSauEeUCbEH5D08EqLGznT1z+wB1UmdtbXWYh9h73t23HD57uuuvBJI3SwGcr4S+/UJEskMNAOm1sCcP/C1kyZl/vTO+Z+ECPflXEvOZ3jzlr2nHkBpjPB6gysE2c2Y59nJLZUt+n7wHeqh6K/MwXw+j0pggddK22eD/AjZLXMe40hunvZI8UPXxSZOWg18eqNwoSks+HaiWiGSMGgACgLe2rsD8OEKc5t1Hs/4V5yGW189IO4TUoJKFaAAMZWjpiwHqSDUxdklcwwn/QNnQ8zAh7m43xhnYmj+wwsU5Lf8PwgIefujaBiAi60QNAHmTT2i5F/fWtHNIWXST4+jeGQiRwBoGPwgkP+Az4pvW1qavSxlhne3vAbZJWMZp8H+EyLNK0bGt3UCIujtT6Dg8QJ3U2FlnDQcP8XtYzMjlVweoU71yG/0/CHDuRa/P2nmzNg5US0QyRG+0ZFULe2YBN6QdQ0Lzqd447YG0U0ht8nGTXgbuT16Ifdl0iO64zoqIsQGqPO/HTQ2/BaDXrYHq/NDa2uoC1Rp49d1fAhqSF7L5PqY12CrDauSNjSuB+YHK1dOz8qhAtUQkQ9QAkFV4a2uMdR8D/lzaWSQQ90u8qaUr7RhS44wbg9Rxn22F9h2C1JKKZV2nbYnbiYkLOQ8FiPMOtf3aQIX2ZJP674aplYYozFLz2DO+/L9PzMXBapm2AYhI/6kBIP/BJ7QuwKIvl+NqQBlwD7KsbnzaISQDnD8GqrQh2DXWedrWgerVPJs9u94K+auts32szc1vmHaeNbF5bQ1QdxGQPGtUxhVr9fV/JMQ5AABm37HOji8EqdXfodva6vq2W/T/13a2vwf8/QFiPM2i7j8HqFP9FnX/GeyZQNUOskJH8nM0RCRT1ACQ1fIJU+8EJqWdQxIwXiYXjfHJk8txRZbIqhZ0/xF4PlC1nbBBt1rhjA8Fqlfbotf3AT6N2c8p8S/rys+3rvb/ttmz69OO9nZ21lnDWd5wOc6Hw1QMNUu/msrjJr2MBdsGUIf5xdbVflygemtk55yxk3XmZzCq4WnMfr5uRexoghxiaL/21tbk54TUgL7PQ7hVADoMUET6SQ0AeUfe1HIuxqy0c8g6WQH+VW+cEvxwLJHV8dbWIjAvYMWtIb7RuvJzreu0LcPVrUFRdOBbftSAcyRul1G37F9WyJ9rXe0fq4TDFa0z/znqe+4FPhmmoj/FhJbyXmvqdn7AaoNwO8+6Oi6y2R1bBaz7Jps1a4h1dRxthfabiOO/Y7QAmwMH9Lch1Hd7wdFBgpW0/H8VUcjPhx1dCX+/RaR6VO+hNDIwJkxrodC+OZgOmqka7lg03idM02GOMsD8PLCphPvaksM5Aeq+YV0dl4JfQEP3zX0ntMu/HfgO//9wYBxu4xjV8LwV8pcSxdfw2qCbB2plkM2cOYz1Sl/H7USMPcNWj85xKO99s7nl8yk1/IQQ2xXe4P4V6jjcCvlf48xjkx3+z8eMWeetBtY1cxRe+gTuh9Fgn8EZvppJ+3pyyw4A1n4ZfuGMDwPbr2uuf/P7/cQWHUL7Fj5+2n1WaL8fbHSAalszcsghwPXJa4lIFqgBIO/Kwa27fjwNKzYHPpJ2HlkbPt0nTNVsiww4b2p5wgod54M3Bi49GPevAF9hecNSK7Rfj9nVxH4PdfaoN04Leg+8tbVFbDxkCwb5HsTsTd2Qfcv9nJnQQWvxMVsAJxFHJzGs1GOF/G1gd+HxQ+SiB7HlD3lj67KkQazQvhGx7UXERzE+zDDehzO0DJ+/Hiw6L3TRt/PG1mXW2X4BZicHLj0UGIcxjkVPLLZC/nac+3r3hseLiexlsMV4XCL2OiJbH2wQ2CjMNwc2w9kV2IveP1uwNazUj/gg/WkAeHxMiMX/uOnr0eq4/RLjjCC1Ij8GNQBEZC2pASBr5JMmLbe5bYdTargS+GDaeeRdmP3QJ0z/cdoxJMNKtJHj6/Q+4JTDMLDP43weMyiBFfIvAI+ALQBeAX8d8+U4b7kezjYAy735Q/fhWN8Tk7kRMxJjU4xtGNWwKfggnL6J1Mp9+O+7B7y/B7zVA4eAH4IZxA40YIX8S8CL4AvBngN7Hec1jGLvobDe1yCw9XofRn0DjDrcN8dsW5xtwTZ4c3NhWT9tdpZPmLygnCO8qS5up5Q7nvK9pjcCPo3xad540Tm8+d/RW5/CE6x5cP/A2n7o/2/v3mP9rus7jr8+v0Npi8wFrUxRJ+JcnEAMiZcAAAz4SURBVGKiThPHVLYYweG8spoZNTNe6jkHamCjPQWSnVSn4wCLJJXCTvyDZU7/cHPihXndnGxzRuNQcWZzzqIBFNuuyqWn5ZzfZ3+ciqgtvX17vqe/z+ORnNCkh8/n3dPT9vye5/v5fsvs5pNSVv3BEe70YMNk/gMdrDN6huX9GatXJBk76Pse3Pll6+YL6uT0PR2sBYw4AYBDUtdN31eu2fyqrFz1ySTP7Hse9qPk3XV84zv6HoO21Qs33lGum3lnkncu4baPWXx70Cujur9vXT7o5x/8wv6BF/pZzq/19+/+vc9JJzdpS5I8cvHtQR+Mn1n5516IPvCfstQftzuzcuk+v+q6y+4s1125JalTS7XnsVHOKkk5pIQwXP3KpD786PesN9fJy7u64/1IqRduvKNsnfnHlLyog+UelrL6/CR/1cFawIhz0xAOWb1oelf2zJ2bki/0PQu/4Ko6PnWcf3HKyFhzxkwO51JjjkI50Pn/UVWTMlnfuPHug79rl4YzSe5c2j0794hcO/PUQ3rP2tGd5V3+/9AG5a+7W8zTAIBDIwBwWOpF07tyz9h5ST7T9yw84O11YuryvoeAn6hr1y6k1Ncn2dX3LCOv1kM5/z9CytV1YuOHl3rXOrHp/5K8Zan37dzYwY/x7Xvqxgs72G1PSv3bDtYZXcPdf5+kqxty/k6ZnfnVjtYCRpgAwGGrl1xyb1bPvSrVP+z9qven1nV1YurP+p4Efl4d37QtGbwsye6+Zxlxz+l7gCVTy025a/dlvW0/MfXxpLy3r/07cSj3Aahjr0sX59JrbtoXTjiAxTP79UMdLTfIfOnmsY3ASBMAOCL1DdNzmdz02pTizHkfSu5Ozfl1ctMNfY8CB1InNtycMnh1kvm+ZxlF5borzkhyat9zLI3yiZy0+/w6Pd3v59Lq3euTenOvMxyVcgg38h28rpOtOn3W/QireV9na5X6R6W7e4IAI0oA4IjVpNbxje9IresW7xDNkqj121nIC+rkpk/0PQocTB3f8LEMhi9PssRnthtQm/nu//syv/oV9Q3Tc30PUt8wPZcTV74iyX/2PcsReuK+S/z3q/zllc9O6pkd7LMrq/Z8vIN1Rt+jnvTZJHd0tNqTc92VjR0LAg6XAMBRq5Obbkgde36SbX3PMvJKbkrJWfWCqW/0PQocqvrWS2/KQn47/o7o1qCM+hf6e1PK+jox9fq6fv2yicz1TRfvTJk/J8ktfc9yRIZjB74KYNjVzf/yoeUQbI4Hde3ahSTv73BFNwMEHpIAQCfq5IZbMjZ3VpJP9T3LiJpPzZ9mfOqVzlRyPKoXTn09Y3lGkuuSDPueZyTUkX4CwJdS6nPr+Mb39D3I/tTxy29PnXt+Uj/W9yyHrZT93gegfHDziUle08keLv8/TGMdPg0gf1i2bFnZ4XrAiBEA6ExdN709E1MvTepkkvv6nmd01NtShi+qk1NXHNLzm2GZquumflQnpiZT8/wkX+x7nuNf/XFGL6ZsT3Jh7pp7bh3f9B99D/NQ6uT0PVnzpFek5NIkx8t3uxcO+DPbV5+XZE0He9yeH+z5XAfrNKNOXPK1JF/taLlTMrb7pR2tBYwgAYBO1aTWiU3vTVl4Xmpn/5g1qtaU3JC7B8+q45f+a9/TQFfq5NS/1Ymp56bkxUnxuX2E6sTUeanzpyd1U1K/1vc8R+n7KfWS3Dt2ep2YurZOTx8XYaOuXbtQx6euSMozUvL5vud5CLen1ndkLGfUiam37fc9ameXjn/gePn9W1ZK7e4qgOIYAHBgJ/Q9AKOpjl92a9m8+bdy6qqJJG9P8rC+Zzqu1Pqd1MGF9YKNn+57FDhW6vjUJ5N8smy96hkpwzcmeW2SR/Q8Vhe+m1puTcnXF1+Yj92aEx7+zWOxUZ28/HtJZpLMLD4VoLwkye8nOTvJcr8MeCEpn04d3pCT9tx4PJ8ZrxMb/yvJ2eX6mXOTXJaaF/Q9U5L/SfLh1NyYR53xhX1nzferzP7FmpS8pJNd68Dl/0difvCBjNWZdPEIxuTF5fqrT63jl9zVwVrAiBEAOGb2Pa5pS5m96qYsLFyTlHP7nmn5q3uSck32rHxXvfhiz09fKqV8NMkvH9Uaw3ypm2HaUyc33JLkbWXLlg0Zu/fslPJ7Sc5L8us9j3Ygd6dkW2q2JfveatmWMrwte1Z9u1500a4+hqoTm/43yZYkW8rWzScnq89J6ktS8rtJntjHTPtxT0o+m1o/kbLw0Tp++e19D9Sln0atmbNSsjbJy5KcsUTbzyfli0m9KcPceFg3i10Y/kZSbjzqCWrdue/PM4epXrjxjnLdzExSntzNivNPTXJ0AaDkG6nlg0c9yimnuCJkKZX6lWRwdL9vpd7b0TQsQ6VWR4pZGuXad70wg7Grkzyt71mWqY9nxdgf1zdf8p2+B4HloLznytMylmcn9TlJfjOLQeAJOTbx+t4sfrH8g6RuT8oPU/ODpN6VwWB7hsMfZqzcmRNO/F5908U7j8H+x1TZ+s7Hp5xwdpKzkjwlix/LAz4OriN7k3wrqV9JGXw5w/rlPGruy3Xt9N5jvO+yUq6deVpKOTslz0ypz0rNmUlO7GDpO5LcmpJbksHNGd73uTo5fU8H6wIwwgQAllSZnV2RhZ1vSs2mlHJa3/MsE/+SDKfrxKU39z0ILHdldnZF6o9Oz0J9XAb1V5KyJsPhmpTBqpThL6UOfi4O1PuS8pNHyP0ope5KsiMLZUdK2ZEThjuTue113XRzNy4tWzefnMHKJ6cOHp/kkclwTVJOXfxxOTmpJ+Wnxwgenp+9NHnf00jqXJIdqYPtKdmR5Pspw9uysOLb2X7P95wF/0VldnZF7r/7tIztfVwyeGxqOS2ppyRlZepwdcpg1QPvXIdzKYPdKdmdOrwztdyZUu/IsG6rF1y6o8dfBgDHKQGAXpQbNq/K7lVvSeqGpDy673n6Uf89ydvrxKbP9D0JAAAw+gQAelU2bz4xp656dZI/SRtHA4ZJ/iHDhffUCy77bN/DAAAA7RAAWBZKUnL9zDkZ5s0p9bykrOh7po5tT/I3GQxm61s3fKvvYQAAgPYIACw7ZetVj05ZeH1SXpPkzL7nOXL1/iSfSfK+zD/sI3X9+j0H+z8AAACOFQGAZa3M/vlTMl/WpuTlSZ6elNL3TAcxl9R/Ts3fZc+ej9SLp4+7u4UDAACjSQDguFFmr3lMFvaek9RzUvK81Dym75myeKb/myn5pwzrp3LCns+3eDdxAABg+RMAOG6V9179xMwPz9r3jPAzU/P0JKcc213rbUm5NaV+NbV8MXvmvlAvmt51bPcEAAA4egIAI6Vc/+7Hps79WurgCRmUJ2Q4PD2lPCKpj8zis61PyeKzrFckOTmpNSmLL+BL5lKzMyU7UuvOpHw/Nd/NWNmWZFv27v7vun76x7394gAAAI6CAAAAAAANGPQ9AAAAAHDsCQAAAADQAAEAAAAAGiAAAAAAQAMEAAAAAGiAAAAAAAANEAAAAACgAQIAAAAANEAAAAAAgAYIAAAAANAAAQAAAAAaIAAAAABAAwQAAAAAaIAAAAAAAA0QAAAAAKABAgAAAAA0QAAAAACABggAAAAA0AABAAAAABogAAAAAEADBAAAAABogAAAAAAADRAAAAAAoAECAAAAADRAAAAAAIAGCAAAAADQAAEAAAAAGiAAAAAAQAMEAAAAAGiAAAAAAAANEAAAAACgAQIAAAAANEAAAAAAgAYIAAAAANAAAQAAAAAaIAAAAABAAwQAAAAAaIAAAAAAAA0QAAAAAKABAgAAAAA0QAAAAACABggAAAAA0AABAAAAABogAAAAAEADBAAAAABogAAAAAAADRAAAAAAoAECAAAAADRAAAAAAIAGCAAAAADQAAEAAAAAGiAAAAAAQAMEAAAAAGiAAAAAAAANEAAAAACgAQIAAAAANEAAAAAAgAYIAAAAANAAAQAAAAAaIAAAAABAAwQAAAAAaIAAAAAAAA0QAAAAAKABAgAAAAA0QAAAAACABggAAAAA0AABAAAAABogAAAAAEADBAAAAABogAAAAAAADRAAAAAAoAECAAAAADRAAAAAAIAGCAAAAADQAAEAAAAAGiAAAAAAQAMEAAAAAGiAAAAAAAANEAAAAACgAQIAAAAANEAAAAAAgAYIAAAAANAAAQAAAAAaIAAAAABAAwQAAAAAaIAAAAAAAA0QAAAAAKABAgAAAAA0QAAAAACABggAAAAA0AABAAAAABogAAAAAEADBAAAAABogAAAAAAADRAAAAAAoAECAAAAADRAAAAAAIAGCAAAAADQAAEAAAAAGiAAAAAAQAMEAAAAAGiAAAAAAAANEAAAAACgAQIAAAAANEAAAAAAgAYIAAAAANAAAQAAAAAaIAAAAABAAwQAAAAAaIAAAAAAAA0QAAAAAKAB/w/iRyfuW9D9FwAAAABJRU5ErkJggg==;clipPath=inset(21.3% 9.67% 24.07% 9.67%);" vertex="1" parent="iN45Id6dDKSgF8Y3VdJW-6">
          <mxGeometry x="4" y="52" width="82.01" height="20" as="geometry" />
        </mxCell>
        <mxCell id="iN45Id6dDKSgF8Y3VdJW-8" value="" style="group" vertex="1" connectable="0" parent="1">
          <mxGeometry x="485" y="480" width="90" height="90" as="geometry" />
        </mxCell>
        <mxCell id="iN45Id6dDKSgF8Y3VdJW-9" value="" style="rounded=0;whiteSpace=wrap;html=1;fillColor=none;" vertex="1" parent="iN45Id6dDKSgF8Y3VdJW-8">
          <mxGeometry width="90" height="90" as="geometry" />
        </mxCell>
        <mxCell id="iN45Id6dDKSgF8Y3VdJW-10" value="Query Engine" style="text;html=1;align=center;verticalAlign=middle;whiteSpace=wrap;rounded=0;" vertex="1" parent="iN45Id6dDKSgF8Y3VdJW-8">
          <mxGeometry x="14" y="10" width="60" height="30" as="geometry" />
        </mxCell>
        <mxCell id="iN45Id6dDKSgF8Y3VdJW-12" value="" style="shape=image;imageAspect=0;aspect=fixed;verticalLabelPosition=bottom;verticalAlign=top;image=data:image/png,iVBORw0KGgoAAAANSUhEUgAAAwIAAAJQCAMAAAAKUyPCAAAABGdBTUEAALGPC/xhBQAAACBjSFJNAAB6JgAAgIQAAPoAAACA6AAAdTAAAOpgAAA6mAAAF3CculE8AAAAZlBMVEX////f39+/v7+fn59/f39wcHBAQEBQUFCPj4/Pz8+vr68AAAAwMDBgYGDv7+8QEBAgICBAPABQSwCAeQCPiAC/tQDf0wD/8QAwLQBwaQCvpgCflwBgWgDv4gAQDwDPxAAgHgD///8qv4oxAAAAAXRSTlMAQObYZgAAAAFiS0dEAIgFHUgAAAAHdElNRQfnCQ8ADRVKlWkbAAAfFklEQVR42u2d12KkuBYAyTSI5HFoZ/v/v/I+7N4Ns25QOEICVb3vugdU6ASFLAMAAAAAAAAAAAAAAAAAAABp8qIoq6qqm99oq6q6FEXHE4KTUvRV3TRKg6EZq7KYeGRwEqbiUjezMqcZqyLn+cGxR3/VLsqJual6PIBDxvzlOCgh5vZS8EThWMN/VtI0FakyHIK+XpQn5rYkKILIP/+t8szAZADRjv/LoHZhqbEA4iv+7DX+sQBixH/880NEdCEvgDjoPJR/9Gh7nj4ED4DKQQVkqZgKIGgGXM8qNC1dMwhF0aooGEreBYRIgRsVDUvFwlLYW4BFRcWMBJCyAEgAyQuABJC8AEgA+1SBBhU184V3BB7JGxU9Cy1j8MVUq0PQsIQOvHCZ1VGoSQlAnG5QB2KmYQxpxkBEQ+CHflHHo+K9gdQU0KpDMjARgMwUMKujwkQA6U4BTAQgQzGrY8NEAE7U6vA0bK0Ea/JBnYCZFRNgSTmrc1DzLiHRIOivrJhgCBINgv4KhjhmAlKrBFEZAicu6nSMrB4FfUZ1QkgIQJdpUKdkplUMWnQnNYBdBKBpwKzOC5vrYZPyzAYoNfKGYcMAdXJwAFap1OkZKI5CYsVQHAAMwAHAABwADMABwAAcAAzAAcAAHAAMwAH4F7VSOAAJU6okaXjzkLQBrBeCPylUsnC6CmQn3x+wBXtoIJtSNkApTprDgCFpA9hPDKNKnIXSaNpUKnkGRkHK9BhAaZRiEFAWIhVOHVLiVGkZ/KTESXNh7LNaKO1EgJH/Nxy9nmIisDDw/wFXcJAIkA5AWpSM+n/TMibSIqcjQHcgbRqG/H8WzHEJDfVQKqNAGJQ03L9BGEQoBIRBhEJAGERVCAiDkg2FaJClANtkVmD7TAKwNoi1QonDbuFV2El8/lyYUU5zgFwYyIjTpWCMkxGnDbnwNmymPzP0hekRJ14QpS9MYZSCKFAYZRIAlgolSs3g1mNhrJwTumJMA4kzMrSZBpgEgGmATACYBigHAdMAPQGgN8AkALSIU2LH1UF3v+4fHh+frv/n8fHx/v7umZVCEJR9lojevbz+PfR/5/Ht/UgecKjQudhhz/zzy+N1k4+398+DKMC+gXPhe7PY88PTVZevl+9DOMD2sTPhty32/aI//v/g9f0ACnD50pnwuTbi7u1qwcdD9FPBwrihIqrB++PVlrfYJegZOafB261K709XFyKXgLuXzoOnW+bvHq+uxC0BddGz4OeG4e/XqwAf9xEXSTlW6yx4WSN6/3GV4emOhBg84yEZfv66yvEa7UTAkULnwENn+P4qykesEwEdYpoCP/L5eJXmIU4FZkYPTYGfCkEfV3m+4gyGaA3QFPgvL1cvfDwTCYEfWtlB8Xb1xTuREHiJg2JPA/7mnkgIYq8HfX5dffJGJARx14M8GxCjA0RC9MX2NCBGB9hGf3SKQxkQoQM1Y+jg1McyID4HFsbQwZFbJ/143YcXVkyDIHKbht+uexFZf4AV08dGrDX8spsBsfWJ2TtGSVQppe6uO/IU1XohyqKURJVS3x97KnB9ZNMACCG1ZfLxui/3JAMgg9BhuvfXvXkmGYCIUoHn3Q2IKh0gGTgyMudJf+2vQFTbyEgGUu8K3F9D8EwyAO6ILJT+DmLA9YsF0+COyAKhxzAKRNQkXhhJh0XiVoG7QAZcP+LJiLlp4LAcNReOrTnAnoGUG2PvwQyIaBrgso2Us+GncArEMw2QDx+V6tCTQETTAPdwJ5wNf4VUIJ5pgLF0UNx7w3dBDYhnGqA/nGxB6DWsAtH0BjhQ65i4Hx7xHdiAaFrElIRSLQjdh1ZgZaXQ8+MWD/f3v4RWGrFeOtWC0FNwBR5c05SP13eBhKJhNB0S580Cz8ENuH5IZOoC11oymtKsiT6EV+D6S6RY5SwBo+mQzMePg1YOlzOs1zq2GFgllGRNNII46Hp9kmpZuN3khAJHJD9+PWitJmTctXM6oYuqaJJtgccoFHgRa1y7OIACSbYFojDg5rFaFms3HBygMZBiW+AuDgWugj/vw7owRGMgRQXuI1HgWdDQLxRICde986+RKPAuOUlZ10YZTwl2xp4iUeBBNE77RgEU0OQzEgNu5cN3stk1CqBArNnwrXzY9vfd2T0Orls6II7rI96jUeBTVIE32sPJcJKC0K3v9p2sUSiAArEWhG4tFrVW4B0FUOBAyyNuFzKtFXhFARRIW4EPq8dRMqCSUyAaA240BuwrVlYrhVgndzy60yjwKKzALxRIgwIFJBdJoAAKoACgAAoACqAAoAAKAAqgAKAARVGgL3BUBe5QIBEcFfg46wKJK6eooEDaa4Ts9o2xRggFTqPACytFUUCLt7NumflGARRIeteY5f55FDggp9k7LLt9/h0FkuEsJ0h8iP6+J8vHwQkS6SkQTWNA9hwhyzNUOEcoRQVOeZrcq0KBdOBM0R+Cqk8USAjXk6VfIlHgW1AB2zCIk6WTVOA56mzYSoF3hQIp4XzRUhyrhF7lFHizfxYj4ylFBV5jTgUsFHC5d5VVckfE+cbJl5hTAXMF3hUKpIarAt8xGPAl1Lr7enZ6FjSHD8ni6sBXvF0BUwXuPxUK0Bs7ZCT0LKHA27fro2A0HZLxBJHQk/sapqd7ZwFQINHGQAyR0L2bAl9vLwLjn7bAUXG+fj6CBdMiA9gd2gKJNgbUZ+ju2GscBlATTbUqGn735K9IFOgZTIlWRUMnxE+RGKA6BlOiVdHQ50i8x6IAYynZklDY7ZMfsRgwMJaSLQmFnQbuY1GAgtBR6dShp4Gnz1gUoCCUcEko5DQQTSbACqGk8+FwRaFoykFKTQylo1JLvP+HqA6RIxuGvfPhUC3i13gmAbLh45KLjIBfQQqi3/EocGEkHZdFHTUjfonHAHrDR2YUGQLf+4dCjxEZMDOODsxFHTMUiikMUi3jKPHmWIgVo78iMoBU4NjMMqPgc9/9Yw8xGUAqQDKglFLPe6YDX1EZQCpwbEqpgbBjOvDxGZUCpAJ0BnbeR/zxHJUBXLd6dAaxofCWYiqsuGLp8NTqYA68R2YAC4SOTqGO5UBsBqiaMURZdE8HojOAkihl0V0diM8ASqLHp1fHcSA+A1gofQIm2SHhcQPNx6/4DOAQrTPQyo6J91T6AcRBp6EUHhV3ftZKfH1GaABx0DkioVl4WHz7WDP3oKKEOIia0D4JQZRpAHEQNaGVYOhJdo/Yd5wG0BejO3Z7A4FgdfTjRcUKfbGTUPsYHWITwet3tAYsjJ2T0PkZIPcSpaGnOxUvbJk8DYOfEeIeDUUcAynFQYq0BjTqo04SfNx/Rm0A+8VoDWhJYBsOPb3ELQBNAVoDuuHQi01i/PiuYodk+EzkfgfLneFU8PTwreKHZPhUNL7Hyy9tC54entURmEmGT0W/w5i5u988f/fj9eUY458Vcudj2Wfc3N2/3lpE9/jwfpjhrxQnR1AXdakS3b3c3z/+xev9/a+7T3UwGsYMddG04Yq901ExqpkEmAZAG45RPCE145q2WNrkDGwmgcQZGdlMAkwDwCRAUQiYBCgKwTqskmYaoCcATAM0huGMlIzvbdgveWoWRvgmLBE9NQUjfAtOkDs5DWN8HTaLnR36YxuwY5jCaNpwx2oChVEyYgqiidMzzsmFE6dlpJMLJ54R0yNmcVDiXBjr9IVpDsAPYRB9YUIhWgJAKEQYBIRCVIOAUIhqEJwdGmS/wUHSycGRKv9iIQxKDtYK/Qsu2U6QjnFPPZTKKFAPJR0AEoGE04GB0a+UUjOJQLrpAN0BpThBlO5A6rBNJmnYSczxiaTEiTOQCpMSkwpD2g6k3SXmxAhIuyxEMQiypFdKVLx9yLKEj1xngTSk7QAGwF8keS03x4fCP0iwPUBDANJ2AAMgbQcwANJ2AAMgbQcwANJ2AAMgbQcwANJ2AANghQROlWgxANY4/VoJVkXAlgPnXjvNRmHY5NT7B9gfADoOnHYv5cwB6qDFWfcTs08Y0i6OUgyFtAtDIwaACcXZkmKOT4ekE4KZw1LAnBPtpmwIgsCG/izBEP0wsCQfCIKAYIggCNKuDB39yFEqQeBaGWoP3Q6jIQxJZ8WcGQpJTwRMASA3ERwwI5iZAkByIjhcaajJeWsgStewMwAS50BbKmt6AZByNEQMBN7IDxANLayHAJ8UkUsws0EevKcEERdI54okABKWAAEgaQkQAJKWAAFgfwkiSoyXCwJAiOpQJMcNDVSBIBR5Hb5jPNIHgLDxUND9xUtFJxiC0wWbCloWw0EsU0GATTUDKTDExLRvQLTUBEAQX258GfYa/+yIhGjngtZ//MP4h7jpa2+N43ksif/hECFROYprMLd8/uFoGoilBgvDHw6aGhRV6zgdzE3VU/yBY1Nc6sZGhGasCkY/nEeEoqoarcWlQzNWZUHeC6cNjoq+qqq6+Y2xqqqyKIj5AQAAAAAAAAAAAAAAAAAAAAAAAAAAAAAAAAAAAAAAAAAAAAAAAAAAAAAAAAAAAAAAAAAAAAAAAAAAAAAAAAAAAAAAAAAAAAAAAAAAAAAAAAAAAAAAAAAAAAAAAAAAAAAAAAAAAAAAAAAAAAAAAAAAAAAAAAAAAAAAAAAAAGKgbqypqr7gATpRVDfw/6ft33tbVUUn90M6+19SV73AD2mUG0t76RjKtlS3Hqv/P+343tUwlrnMZ8DxhzRVEVYBpZSa23JiOCemgFJKLWMfXgGl1Oz0OyQUUEopLEhQAefRJ6SAUmqpptAKKDWPRETpKaCUWqo8vAJKzfUUWgGlVEN6nKACSqkxD6+AUrPdTCCqABIkqoBSbR5eAaWWPrwCSJCoAvYzQSGr4hReAaVGEuMUFVBzFYECai4iUEDNJYM7QQWUWorwCihVRaCAUg0TQYoKKGVRlSlChyF+FFBzz/hOUQE1dOEVUMMUgQJK1QzwFBVQqgyvgJkD3hQwVBEFzqKAGsMrYDT4/CmgZrrFSSpg+PErQv8GjwqQECSqgFq64AqoNgoFzONCFDiFAkYBgCcF9GujfhXAgTQVMHHAlwKqj0MBHEhTAQMHvCkwT3EogANpKqDvgDcFVBOJAjiQpgLaDvhTQDMU8q+Aoi6UpAK6DnhUQC8UaqJ5FChwMgU0a/MeFdCrCu2ggHZeggLnUkAvGPepgMojUUANDPYkFdBaKOZVgdFBgQ2Bu6K41I3oL0GBKBRYf/FTUfTVOEjWQm4qsLH5oCgu7SwxDTQuc1hW1AtloZQU+L8J5TjrxcCdNwWyLMuyvnHPBtwUyLKs03oYc854P5ECWZZlZSMTAzspkGXd+s9YdlAgy6ZqJh0Io0BXbeJNgSzLR4mijKMCWXaZ3UryAgpk2VQJrlpCAW0Futk+AlUSLz7XmAkK3wqsP4ZxHwW0ngXdAWkFNAyoM68KZFm/mQwu3hVYfRDzXgpsTUc2/0cUcDZgzHwrkE2j4/wvoMDqo+h3UyDrtkpll+MP2a74my6wAtPgYkAm96Uqt1TMvSuQ9Q69CTkFsqk9b5O4uNTNf6f8uRmrIg+jgKMBggpk3eIy/4sokI32hZhGMmwZHXqFjVx9UDgj7+v10bbYXzZhr4CrAZIKbP6Ywr8C0+2paFcFssp+RoxUgV6vBzRc8n0V2C4/DNluCmw5sPhXYGXoFbsqkJWrj6I9mAJ5rdcD/WPIWVwyYq3AdkV+a5mmbNViw4HSvwK59coEYQU23k1xJAWKUZkxG981YauAuwHCCmw4sPhXIGttX7u0AutvpzmOArnVGlrDE8YtFagFlupL166nxXIakFLgYhN7eFEgG+z6Y3EpMI3KDrObTuwUKCU2q4i3b1bbFIt/BQrbf5G8ApNduzoqBS6zssbkphMrBbYN0NmnJ9/B7O2mASkFsngUWN8DkR9AgdxxH1GT+1RAxgAPCqzGZ01SCqyWRuv4Fehn5Yj2SZIWCnQyBvhQYDUGLrwrYDuCfCiw9ijm6BWolQCatzyYK7C9MEjztAIfCnQ2IfA5FegsgsJIFJiENlMPuRcFxAzwosDq/D/5VmC2XCHhRYG1L2kTtQLToITQGoqmCuQOGwT2UGCtMnpJKRdYrwrlESvQzUoMnYTAUAENQcsspAJrVaHBswJdXArc7lPcHIgxKCBpgNZwNFNA0gBPCqytXcr9KlDG0xr7g8W0SxKBArmsARoD0kgBUQN8KVAYR0LnWyCxXb3uIlVALg/QfotGCrSSBvhSYGUaGLwqMEWzTE5jGqgiVUDegM2c2ESB7SUbYxaBAoVpJHS2xdI6P2mIU4FReWBjp5yBAsIGeFNg5dt38ahANFtmtCamn78GoRUolRcGIQVqYQP8KXD7QbYeFags34BPBVY+W2WECnSzHwXWd4tqK1BKG+BPAdPvsYgCneUL8KtAYfa2AiswKF/0AgpsG9BmsSiw8u0rfCmw1pIrwilwOyhc4lOg8mbAajqgqYDIBoHdFCjMCiECCkw2i9L2UKA2SgaCKpArj4yuCnQeDPCowO1vX+NHgdVq9hhSgc4oGQiqgN4hyXX5j/OzuqKvGr0EonBTYDtNsTDApwKjUTLgrMD6MUZ9SAVufw3qyBTQuOik/fl8iE7ngoXBSQE/BvhUoDfqijoqsHGk85IFVWA0ecwhFdgcxmu74vvtKaR0UGB71cZidUqfRwUyowfhpMBUbry7KqwCpcmEGFCB0kGALMuyYkuCxV6B7VUblhd6+lSgMZn+7RXINe66mcIqkJvkwwEVWP+QLBpfo62TZUtbBbwZ4FWByuR/flOBoVlFq4zt8bo9x2SgiEmB9Uyg1QozJrvrfrYU8GeAVwUKkwpltJeuiihgsn41nAKtSNPV6hi9LQVabwZ4VWAyiYB9KqBz6atfBSqDnxZMgdwqkTXMKForBbaXxtlfcqBimf49KqB3nL9XBUwO+AqmQOX6FdFyYLJQYNsAh7tsVZDpf18F9C518apAfgQFFrGlZ6PxYF1VoPZpgF8FKoNX4E8BzVtOvSqQGcSEoRToBFtOg2kktKZA6dUAvwqUUSjQxaDAEL8CF8FAe62NNRkq4NkAvwoUBvNqETYM8q1Aoz8gQinQuDQWDXzqzRQoxd5wCAVMImBfCmhfbedXgVE/LQqlgOy6g8Uss76pwPbi0DGLWIEsAgXUXMSgQBW9AoVsnHH7490YPZ/ZtwEJKKD7ClNXoDJpZDpNA6YFWb8GeFbA4HxPn62xEQW2FWhFWgJ/Y7ZPqApmgGcFDN6m1wUSIwpsKjAI9107ozUSlgr4XNB8LgV0HEhdgZvJsO0/eTGp4NgpYLVFJlEFwm6cPIICk3AcZHi0pZUCs4QBySiw7UDiChTifSeTpYGWs8AFBUyoUMBKAeslmL3J2LJTwH6FdJIKbO2gT1yBUu6vbr1ROQV0138FVGDRT7H8KzDnKHBbgUpcge7WRj+5QMhq7UaKrTG9T4ZfBeqjKiDzz7f/RGxRoIDYJyPQMrkcBZwUWKaoFZgiU2B1D3EgBTIUcFIg8jVCN4d1G0iBJpgCMwp4UkD1h1SgCqTA2uMKs2tsQQFXBVwbZF4VqKJTYAmkQPzb54+rgOtP9KpAbfAxdj9Wt9c52LUMo0BpEMmiwL5NYq8KNAbDWuaWmc2jFZcwCpjMhyiwb5PYqwKzQWVG6tLVrQM3+iAKNAazEgrs2yT2qcDt08kybwpkWbd++mQbRAGTzg4K7Nsk9qlAaSKtmAJbZ4/lARToTD4GKLBvk9inArXJl1hQgfVzNy4BFLiYpCYosG+T2KcCg8m0JanAqgNDAAVak48BCuzbJPaoQG40a4kqsHoKZb6/AkYxLArs2yT2qMDtT/HkXYG18+gvuyvQG30MUOBWsOOnSexRgdaoNi+swDSb1oQ8KmB29yYK3Ap1Bi9NYn8KTGZhm7ACK3PQvLsCs9FTRoFbX66NOycvsSlQmv1UaQVWPhn5zgqUZuVsFPixijFtlfriu3HydjTe7aJAaZg4+VOgMatmo8AtA7auHBviUiA3XKYjrsDto5yqfRXIDUMyFLhpwFqKZ90k9qZAZVjBlVegNvsB3hSoDRNzFLhpwOaa+iImBRbDOERegc7s3+ZLgZUPV4kCWgr8s95ZizeJfSmwkrhMOymQmYWMvhSoTJ8ECqyluRt3cI/xKLCYluU9KGA2ljwpINegSFWB3wo9nXST2JMCK5NAuZsCYwwKVMZPQk6BQkCBIbQC/yl1VsJNYk8KLKazvw8FqggUML56MTYFlMu4voXBn/+h2N/INon9KHBRprP/WRVozcPWMAr0HhQwWBdSGQQ2wk1iLwqsVW/7pBQoLAp4jdiTuBgo4OH5iyhgGGZbNIm9KLCybWvJUlJgWiyeRCOW6dUSCtjfa935UkC2SexDgcKmf+dBgTa4AmtF7NJYAePep8l8MgmWGbc+1oOrAqJNYg8KrH36bp/q6UGBQWRdgsOT6K0qF433RO/HZ2q4sNYlGGics3HJJrEHBVqrzsWOrbG9usPdbPWlapTZcLCYjY126lhvx5oNRoFpQUqwSSyvQGmnp7wCfWAF1vuYk0X0ZDgYa6O1uqN0JNSb6G9ck5VrEosr0FnWbOUVGAOvFG0t31GlhAaj2f3vF/Pg1TIT+UllYwXkmsTSCqxO/mvDWVyB2ynTZRcFVk8zWrv0qbSZOswyEbOwyW4aKIwSQvPO3EWqSSyswPrk32Q7KlAaiiiswGhdsyiESh2N4XtQstNAY1QOtmhOSzWJZRXYWMZX7KmAWRggrcDo8I2y6CWYmTSKKGPZlvv5z1soINUkFlVgctjiL61AZdo5EVVg3YCN17OITAON6Z+/yK05WA+ISxkFVmvOBk1iSQU2DrRdn0+FFVj5RNTeFdj4FGx9zFu7HEJ/fPz8SPOV/8J0Y/pqb2gSUkCoSSyoQLFxtn+d7ajAYFwskFNg60Fs/ZMuAiHuav/U/JnNudw3oM2kFJgWiSaxnAKXjfe+kaPLKrASiMyZZwU2zwPZqrB0Au+1sdBo7Q0Ok9gsWIopINMkllJgarZefJ/tp8BoMQCFFCgG5fYtWE8GNJetjTYW5athhf48sB4Q//zPt9yuINEkFlLgsjX3b/4PJRUYbVQUUSAflXL8Fmwm06XjA7gd2Lci6WU/W8yBtjt2BofYW1KB7S/fdjApp8D6hDRn/hTQEeD2NTe6pY5NB6bRMhnfiCu0YrCpVTZFEVsFBJrEAgoUjcaL3/x0iSmw8RGqvSnQtxrPQW9y3phTx8mlMFdbRmBKDdsTQTXbfQGs9226N4mdKw+XRYl8+oQU2PQx96JAXm7edWlSXty6M3C5/XWbNrNxu7UZf8qXuw6GQliBjSZx61mB7tLovXeNT5+EAlO5GZGNxo9yKDa4VM2idNFrMuWb/5+mvCGAW1K2/Q9pb9rX63wFxkxaAecmsbJ88X1VN7P2i9f49N1U4FLocakHjV+SW35NhNBdcabxY+ax/+3D0pU6oVjvUGX88w+Xv7/Pqbi0eqMhF1dgq0mc2yogik4dr1CBh+AeCmhX1zWfxtz8A80J2dm9P/4l5n95NaN2OcNldGsSR/Pp20eBPKgCBpuZmkCfozzQA3BRwLFJvMOwa7NoFKiykAqYnO7h63Eszr1tF4rMhwJbD6sLrYDm5L+HAqtf4SYmA7aWgHkYhHrNJl9fILfD7CqXyTea8HcPBYosoAKGJzzls48foVHo62ZvQyHzpYBTk/hoCaALdRZQAeOLsC4+foTOQp/S1xOY/Cmw4W0fUIGly6JRYMgCKmBxFZyHH6TXlRgDPAHXU30dmsSRzAE7KLD1BWwiM8BDKNRmEmGFl1KU88HW9k3iWAzwr0CRhVNgsLoOtA9Vk52GvQ1wV2CybhL7HHSNyTYL3wqUWTgFmimzQrZAaTATyafEZeZZAfsmscdBZ3b8TBHYAI8K1JktolG5yVl00g6UmXcFrJvEIQfdjgqUWTAFZuszOWUdMHsfsg6U2Q4K2DaJw5eC9lBA5/V7UqDJsywGB0yvCcjl8gGdCEzinifLJrGvIMg4+i0CG+BJgSpzZAxjgGBOrLXrWOSqM7smcTRzvz8FNNPAJr4pIMuy7e0z/oKxccevocxtf1ZN4jimAJ8K6JZj5BVYykyC0jksX7pQf1lbPhkFrJrEHmrgdmdf+VJAOxKRVmCupkyGzjEkaa1/SO76ULT/tNCdrzZN4mi+fH4UaPS/f02kAmRZNrkEQ7PTXHRxmQgW/a+h1LXH6wtsW/8KOEz9PhQwevuSCiySAmSZ1jE14lPAnxOBdUYwmxzGK6WARZNYNARy+d7IK2D4IZZToO0zeezi8qYQ0K/Z4elLKWDRJJYbcGPn9qClIzLTD7GQAsMlz7wwVYuxAKXQHNSYhwOGT19MgY0K2uBNgbZ0nfllFWjNX76AAstYTplHSqNwqC3k/nI+mkxCo/lfllPAuEks8d2rJSb+QnL82wxENwWWpirzzDt5vehORsIyTmXr8+nLKbB1xmInq8DQVoXQo5ZRYGkr67vJKluKosv2Y/v8srn1Y+PUj4uvr2F+63gomye0et7Ufx6N9Xu/FIXodyavXOl3HYlB6cq6+TEoGpqq9zoZTX3VNj/+4fpSZAA7m7DxffMYkP3rD3e8CgAAAAAAAAAAAAAAAACInP8BeGvKHOzccdAAAAAldEVYdGRhdGU6Y3JlYXRlADIwMjMtMDktMTVUMDA6MTA6MDgrMDA6MDDkOdGdAAAAJXRFWHRkYXRlOm1vZGlmeQAyMDIzLTA5LTE1VDAwOjEwOjA4KzAwOjAwlWRpIQAAABl0RVh0U29mdHdhcmUAQWRvYmUgSW1hZ2VSZWFkeXHJZTwAAAAASUVORK5CYII=;" vertex="1" parent="iN45Id6dDKSgF8Y3VdJW-8">
          <mxGeometry x="20" y="42" width="52" height="40" as="geometry" />
        </mxCell>
        <mxCell id="iN45Id6dDKSgF8Y3VdJW-13" style="edgeStyle=orthogonalEdgeStyle;rounded=0;orthogonalLoop=1;jettySize=auto;html=1;exitX=0;exitY=0.5;exitDx=0;exitDy=0;entryX=1;entryY=0.5;entryDx=0;entryDy=0;" edge="1" parent="1" source="iN45Id6dDKSgF8Y3VdJW-9" target="iN45Id6dDKSgF8Y3VdJW-1">
          <mxGeometry relative="1" as="geometry" />
        </mxCell>
        <mxCell id="iN45Id6dDKSgF8Y3VdJW-14" value="" style="group" vertex="1" connectable="0" parent="1">
          <mxGeometry x="485" y="350" width="90" height="90" as="geometry" />
        </mxCell>
        <mxCell id="iN45Id6dDKSgF8Y3VdJW-15" value="" style="rounded=0;whiteSpace=wrap;html=1;fillColor=none;" vertex="1" parent="iN45Id6dDKSgF8Y3VdJW-14">
          <mxGeometry width="90" height="90" as="geometry" />
        </mxCell>
        <mxCell id="iN45Id6dDKSgF8Y3VdJW-16" value="Extract Engine" style="text;html=1;align=center;verticalAlign=middle;whiteSpace=wrap;rounded=0;" vertex="1" parent="iN45Id6dDKSgF8Y3VdJW-14">
          <mxGeometry x="15" y="10" width="60" height="30" as="geometry" />
        </mxCell>
        <mxCell id="iN45Id6dDKSgF8Y3VdJW-17" value="" style="shape=image;imageAspect=0;aspect=fixed;verticalLabelPosition=bottom;verticalAlign=top;image=data:image/png,iVBORw0KGgoAAAANSUhEUgAABAAAAAFxCAYAAADtW9pAAAAACXBIWXMAAAjbAAAI2wHNrPlDAAAAGXRFWHRTb2Z0d2FyZQB3d3cuaW5rc2NhcGUub3Jnm+48GgAAIABJREFUeJzs3XmclXXd//HX5zoDM4ALCuK+565o7u1ZeVe26F1StmgoOjCDmhTLYMs0dylzRgwLmTOSGlaaSZp2q6n93DK91VxySU1Nc09AwQWYgXOuz++PGU0MheH6nrnOOdf7+XgQEsPn+2Y4MOf6fDdzd0RERERERESktkVpBxARERERERGR8lMDQERERERERCQD1AAQERERERERyQA1AEREREREREQyQA0AERERERERkQxQA0BEREREREQkA9QAEBEREREREckANQBEREREREREMkANABEREREREZEMUANAREREREREJAPUABARERERERHJADUARERERERERDJADQARERERERGRDFADQERERERERCQD1AAQERERERERyQA1AEREREREREQyQA0AERERERERkQxQA0BEREREREQkA9QAEBEREREREckANQBEREREREREMkANABEREREREZEMUANAREREREREJAPUABARERERERHJADUARERERERERDJADQARERERERGRDFADQERERERERCQD1AAQERERERERyQA1AEREREREREQyQA0AERERERERkQxQA0BEREREREQkA9QAEBEREREREckANQBEREREREREMkANABEREREREZEMUANAREREREREJAPUABARERERERHJADUARERERERERDJADQARERERERGRDFADQERERERERCQD1AAQERERERERyQA1AEREREREREQyQA0AERERERERkQxQA0BEREREREQkA9QAEBEREREREckANQBEREREREREMkANABEREREREZEMUANAREREREREJAPUABARERERERHJADUARERERERERDJADQARERERERGRDFADQERERERERCQD1AAQERERERERyQA1AEREREREREQyQA0AERERERERkQxQA0BEREREREQkA9QAEBEREREREckANQBEREREREREMkANABEREREREZEMUANAREREREREJAPUABARERERERHJADUARERERERERDJADQARERERERGRDFADQERERERERCQD1AAQERERERERyQA1AEREREREREQyQA0AERERERERkQxQA0BEREREREQkA9QAEBEREREREckANQBEREREREREMkANABEREREREZEMUANAREREREREJAPUABARERERERHJADUARERERERERDJADQARERERERGRDFADQERERERERCQD1AAQERERERERyQA1AEREREREREQyQA0AERERERERkQxQA0BEREREREQkA9QAEBEREREREckANQBEREREREREMkANABEREREREZEMUANAREREREREJAPUABARERERERHJADUARERERERERDJADQARERERERGRDFADQERERERERCQD1AAQERERERERyQA1AEREREREREQyQA0AERERERERkQxQA0BEREREREQkA9QAEBEREREREckANQBEREREREREMkANABEREREREZEMUANAREREREREJAPUABARERERERHJADUARERERERERDJADQARERERERGRDFADQERERERERCQD1AAQERERERERyQA1AEREREREREQyQA0AERERERERkQxQA0BEREREREQkA9QAEBEREREREckANQBEREREREREMkANABEREREREZEMUANAREREREREJAPUABARERERERHJADUARERERERERDJADQARERERERGRDFADQERERERERCQD1AAQERERERERyYC6tAOIhGRzztyW3Mod8WhbjG1w3xZjY9xH4ozAbOO+D60Hhvb99xLAMVbg/jLYS+AvY7xIbE8R8U/cnob4797Usjid35mIiIiIiEgy5u5pZxBZJ3bOGTvhfjDuBwB7AXsCG5Z3VH8GeBDjPtzuII5v94nTXyrvmCIiIiIiIsmpASBVw87t2IoVfBKLPwn2fmBU2pnAHXgU5yai3LW8bjf65MlL004lIiIiIiLydmoASEWzOfk9yNmRuB8B7JF2njXzHrBbwC8j13O5N7YuSjuRiIiIiIgIqAEgFcjmnrU5pe6xwFFgu6WdJ4Ei5jeC/ZKG7st9bGt32oFERERERCS71ACQimBgFPKfwjke49PU2gGVxss4F4LN9aapf087joiIiIiIZI8aAJIqmz27nrplY4DJwO5p5yk/d4huAD+bpmlXO+gvoIiIiIiIDAg1ACQVNrdtKKXBEyD6NrBJ2nlScjfwP9407Q9pBxERERERkdqnBoAMKGtrG8yohvHgU8A2SztPZfDbMX7gE1puSDuJiIiISAh2fsf6rIhHEOeGE5WGU7INiWw47sPf/B42BFuv9xf4YJxhvf/Nv/8bwG0F5m/csrQcrBt8OcZLOItwFhL5Ijy3CC+9QN3GT3lj48oB/i2LVAU1AGTA2JzTP04U/bjKD/YrI7ueqPRtHz/9obSTZI0V8t998w2IvDuP7/Pmll+nHUNE5O3s3NM3ZWXdpERFcsWfeOOpLwSKVLPs7I4tqIt3JWYbYDuM7cC2xtgEZyQwAhicYsQi8BTwOOb/wKPHsPivDI7u9uOmvpZirrKzrvb/xqODEhXxuNubW34QJpFUmto6aE0qks2ZsTNR9FOi3MfSzlLZ/OPE0Z1WaD+bpXU/9MmTl67510gQzomYb5p2jKpgdjGgBoCIVJ4VuVMwn5aoRqkuAqaGCVT9bP78HIue2gOKB2O2P84ewO7kGI4b2Nt+QeXMK9YBOwI74gY4uEGPx1bIPwzcifEXYrvJm6c+nG7UwGL7JObjE9UwWwL8IEgeqThqAEjZWFtbHaPqJxFF3wMa0s5TJQaDfYthxS9aZ/tEb265Lu1AIiKydmxeWwNLh+4O4BOn3JN2niyx2W0bUNfQlLySj7ezzjrdTzllSfJa1c268k04HcB6YJX0cJ9EBOwB7IFzLOZYIf8kcDVwFd2Db/JJk5anG1GkvNQAkLKwc/J7M6rh58CeaWepTrYtxpXW2X4hdXaKN057Je1EIiLSy9ra6ths8M7EtgfOXpjtDoyGhh2I4hxYFxDgYVTWWl19E7BhgEobUN/TDJweoFZ1c7YAsrA9bntgIjCRhhXLrJC/HPPzmNByo25rklqkBoAEZWAU8ieCnw5Wn3aeqmf2NUr+YZuTP9YnTvtT2nFERLKk92ta+/a47YHZnhh74b47oxp2I+7b3/z2JdAy4GxeWwM0fDNYQedkm9f2Yx/b2h2splSLocBXcfsqhfwT5nY+MT/3E6c+n3YwkVDUAJBg7Cenb8rg3C+AQ/SOKCTbmsivtUJ+Bgu6f+StrXHaiUREapV1nrY1VtcKjAZ2A1uv90ua5gIr1vL6Y4DNg9UzNqW74VigEKymVKMdMP8ROb5nXe3nEZfavfk7z6QdSiSpKO0AUhus0L4fg3O3AoeknaU2WQ74Lps2XGNdbaPSTiMiUrNs0JbAOOAAsrH8uarZ/Pk5sMnBCzuTe2uLUI9bM1b3mBXyZ9vsjq3SDiSShBoAkph15k8AuxnYJu0sNc/5KF5/qxVmjk47ioiISOoW/uNIYKcyVN6Bl54YU4a6Ur3qgYnU+aNWaJ+mBpFUKzUAZJ0ZmHV1fA9jDune9Zoxti2UbrJC/jNpJxEREUmV2ZSy1XZaVnPRncgQsHYWPXGXndOxf9phRPpLDQBZJzZr1hAK7b/B/XtpZ8mo9YD5vasvREREssfO6TgU2K+MQ+xNV/6/ylhfqts+xP5/1tXxPTWKpJqoASD9ZjNnDqNhxe/Ajkg7S8bVYcyxQv60tIOIiIgMuNhbyj6GM63sY0g1q8P9f+jsuNIK7RulHUZkbagBIP1iZ7UNZ1jxD8DH0s4ib5qiJoCIiGSJdbYfwMC8FznE5sw4aADGkWpmfhjYHdZ1+p5pRxFZEzUAZK1ZoX0j6uuvAzs47SzyH6ZYIX9G2iFEREQGhNnAzcxbpFUAsjZ2wnN/7mtOiVQsNQBkrdjMmcPALgPbJ+0s8o6+aV3tP0g7hIiISDlZoWMX4L8HbkCOsHNm7D5g40k12xCz63Q4oFSyurQDSOWzWbOGMKz0e+ADaWeRNXA71QrtS72pRasBRESkNrlPwgZ0Esvw6BSgcQDHrEWvgL0K/hrwau83e+XfP+3LwbpX/SW+DKwHPAe2AcRDIGoA3wAYBGwIbARs3ffjSjCc2K+xwsyPedPk+9MOI/J2agDIu7K2tohR9ReAfSjtLLLWfmRdHf/yCVN/mXaQjLkbfH7aIcovejjtBCKSXTZnxgii6OgBH9j5us2e8R0/afrCAR+72hXjUeX+vNn8+TkWProFNng7zLfDfXuM7YH9cHYHcuUcfzVGQPH3dt6sfX3cpJcHeGyRd6UGgLy7TYZ0gOu0/6pihsddNuf0533iqdennSYzjAd8Qks+7RgiIjUtisYDQ1MYeQh10XjgRymMXd3qRywp9xA+ZkwJeKbv2y1v/TnrbFuPqH5/PDoM/HBg53Ln6Rt5W1b0/NzgCAcfmDFF1kxnAMg7skL7BMxPTjuHrAsbRJT7tZ1zxk5pJxEREQnB5rcNBiamGKHZZs+uT3F8WQfe3Pq6T2i5yZumTvWmabtgpb1wP5vebQhlZp+nq/1b5R9HZO2pASCrZYWOg8Fmpp1DEhlOHP/OZrdtkHYQERGRxBY1fAnYIsUEm1O3/KgUx5cAfMKpD3pzy0l495Y4U4DF5R3QZtjcGbuWdQyRflADQP6DdZ6xGR5fDAxOO4sktjN19ecbWNpBREREEjol7QDgFZBBQvDm1te9edpM8B2BHwPFMg01iFLUUabaIv2mBoCswtraIiz+JWZpdtglKPs8ne1pLpkUERFJxObkPwzsl7DMcwGi7GOdHYcEqCMVwptaFnvTtG9jfiDGPWUa5nM2p+PjZaot0i9qAMiqRtVPAT6SdgwJzJhhhZmj044hIiKyTiImJaxQJOIzwOuJs5gnzSIVyCe03MuL3Qdh3lmWASI/UysypRKoASBvskL7fsD3084h5WD1ULrA5rU1pJ1ERESkP2zuGTsCn0tUxLnMx0+7D7ggQKTP6JDd2uStrUWf0DIR5xQgDlx+bwrtWgUgqdM1gAKAtbUNZlTDecCgtLOUw7BBg9h1+Iiq67q+sOw1nl+6NNTVMXvQXf9d4LuB6omIiJRfsXQyZsnucff4xwBE0U+I4yaSTYJFxPE3gRMTZZKK5c3TfmKdHSsxnxO2ctQI/L+wNUX6Rw0A6bXpkOm47552jHL55l77Rz844IPJ3jwMsIseeyg+6c9/LAUt6vYt62q/1Ce03Bu0roiISBnY3PyGmB2bsMqtPnH6HQA+fspjVshfC3w6YbSxVmj/nje1lPcEeUmNN0/ttEJ+RyDgNX5+uJ17+qZ+/Kkvhqsp0j/aAiDYnPweuE9JO0e51OdyTNjjvVXzWl/S080x119ZGnvDVaXXVqwIXb4Op2BtbWr+iYhI5SsxDlg/UQ3nx6v+2H+aqF6vYbidEKCOVLIF3dOAuwNWHMzK6JiA9UT6rWoeiqSMcvyEGr7y7yvv2S3abOiwqlj+f8NzT/k+888vXvz4w6H3nb2F7cumDXrTIiIiFc3mz8+RfJn9k2yy/RWr/D/NLdcCDyesC8bJNnduTW6dlF7e2lrE7WigO1xVOyxcLZH+UwMg4+ycjiNxPpx2jnI6aa/9K/513l0s8t07/1Q67Kr5xYB7/t+Z8wOb2zay7OOIiIisq4VP/jewfcIqs3zMmFW20zk4xuyEdQG2JF78xQB1pIJ589SHMQoBS77fZs4cFrCeSL9U/IORlI/NmjWEOJ6Rdo5y+tQ2O9heIzap6Nn/hxYv8g9e/qtix713xLGX/9m/z0YU6783UIOJiIj0m3FKwgqL8e6fr/Znou4LgJcT1ofYTk5cQypfHHUAywJVG8zQ4ocC1RLpN+0DzrKG7iaItk07RjmdMnr/ij34z93p/Nu98bTbbyqtKIU962+tGI12zhln+/gpjw384CL9Z3PbhlIcsi3OFlg8ksiG4z4coo3A1wPrXYprPhinDmwZHndj0XI87gZbTORPE/Ms5J7x5in/Svm3VDVsbn5D3Hai5JtjvjkWbY4zBPfhmBn4ULBueq/NegXiIm4vYv485s+DPceInud9TGvwg02kNllX+3vBPpCwylxvbn19dT/jja3LrJA/H5icbAh/nxXa9/OmlpD7xKXCePOUf1ln+/mYBbr5IfoEcE2YWiL9owZARtnMmcMYFgU81bTy7DVipB2yxTYVOfv/7NLX/Lgbry7d9NzTAzbl/58sRxxPB45LL4PIqgyMzvYdIRqN+a6Y7Yn7bsC20LAR5mB9H+l93/PGXyNf5TtwMHvL94Bb36+PsUJ+OXAvxl9w7gS/3ZtanhiQ32gFs8629aD+g2AfwdgXY3ecrXo/j9D7ue/7JBv8x+f/jZ9482P7PveLGmIr5P+F21MYT2P8DeIHiXL388KyJ721tYxnn0jVie1Ekn0FX0mRs9/1I8zn4DYJSDZZ0PtQmPCmAql4kV+MB2oAmO8dpI7IOlADIKuGFU8GG5V2jHL69t4HRWaV9/x/2ZOPxk03X1ta3BPwPJl15l+xuTM6vHH6I2knkez598M++2HRfuD7AftiNvzfD/Nl7ZENAd6P8/43Elmh40E8vpQo/q1POPXBcg5eSezsji2o40jcx2ANB/PW9wfh/ggiYAvMtwDe92YDpxTDqIbXrbPjAfD7gbupi2+p7n+X4q2s0P6JtFO8qdhzp5/U+mraMdaWzT1zJMZXEpb5jZ809dl3+wCf0PJPK+SvAL6QaCTnKJt75hRv/PaiRHWksr244v8Y1fACsHmAajsHqCGyTtQAyCCb2zYUGmp6z9oWw4bZkTvsUlFnXLyyoptT/nx96cLHHqqgWS7LUWQamrmQAWLnnr4pK6PPgX0K+BhmG/X+TIqLYVbhe/auOsi1WiF/H3gnS+su9MmTl6adLDQDo+uMz0B8CjkOwVM9F2g9zN8HvA+AUkTvagG/nsh+z8rua6rpARbss8Bn007xplz9gcBf0o6x1uLi8fQ26BLUiGat3QdGP4U4WQMAGvoytyesIxXMW1tjK+SvIcx7pq1s1qwhPmnS8gC1RPqloh6QZIAU68cCI9KOUU4n7bV/NDhXOdv/b3ruad/nkp8XK+vhv4/xJev88dZpx5DaZvPn56yQ/z0rc8+C/Qz4IrBR2rnWYG+wcxhWetYKHR1WaK/0vGvF2toi6+o4mkL+b3j8vzgfpzLfD2yG2ddwfkNdw0LrzF9nZ89MeiK8VDhra6vDaUpY5kafOOWetflAb5pyM/DXhOOB09R3baHUNLs/UKGIhtJOgWqJ9EslfsGXMur74nRS2jnKaf3Bgxm36+iKeG33lHqv9/vUVZcUn1v6eqVMcb6NDSJaGehQG5HV67uGa9Wl5dVjOPgUsMeskJ9obW3V+HsAwDrz72dUw+24/wLYLe08/TAY41B85WoPdJMasmn94cA2yYrYWf36cLd3Pytg7WzDS//4fIA6UtHicFvDvFTTB3FL5aqIhyQZQC8/cRhmO6Ydo5yO23V0NLy+Ie0YPLz4Jf/QwF/vt26ccbqTVgZAtd84MQI4m1ENd9mcGVW1f9Nmz663rvxZGH8GDkg7zzp6wk+avjDtEFJmnnSSwp5h5PZX9euXLIsuBpJvMQl1QJxUrmIU7mwSY/1gtUT6QQ2ArIn9+LQjlFPOjIl77pvq69rdOe+R++P3XfbL4l8XLazwJ/83bcCw+Mi0Q0jNezztAIHsTRTdZV35L6UdZG3YnBk7U7fsdpxvQsJz1dN1Z9oBpLysMHM02EeSFeFnfSuO1lrvGR92UaJxex1ic/J7BKgjlaonWhyslhoAkhI1ADLEzu3YCvivtHOU0xd22Dnabv0NU3uD++LypX7ENZcVm26+trSsuDKtGOsoHpd2AqlxZrXSAABYH+c3Vsh/N+0g78YKZ3yEKPo/YJ+0syRnd6SdQMrMSkln0FcSFc9dp18Z288Sjg1gREwMUEcq1eTJy4B+NZjema8Xpo5I/6gBkCUr4mPBavqAmm+O3j+11/Tvnnw03ueSnxf/8PQT1TLr/zZ2sJ0zY/e0U0gt82rfArA6P7TOju+kHWJ1elcoxNcCG6edJQh3rQCoYXberI1xvpasCFd446kvrMsv7Ts08O5E4/c62ubmNwxQRyqQ915Z81qYapEaAJIKNQCyxKiK5arr6kObb20HjtpiwGf/X13Rw8Q/XVf68nVXlF7qrvLbXOLoy2lHkBpWWysA/s38R9bZPintGG9l58w4DOdXQH3aWQJZSc/ge9MOIWW0omccMDRRDfdzEv16I8QqgPUoMjZAHalcYd5rxnFNT8pJ5VIDICPsnPzeYLuknaOcJu19wIC/nu948Xk/6NILij97+L7Ku95v3agBIOVjNbkCoJfZGVbIfzrtGAA2Z8ZBxNF8YFDaWYIxHtB92bWr94Yia05Y5lGaWq5PVGFl96+BpQlzgNFs1X3ehry7MDP3FmolgUj/qAGQFTE1fcDbThsOt8O22WHAXs/FOOZHd99W+ugVFxX/8eorVbrkf7V2sK7296YdQmqTN057BajVU9xzwEVW6Ei10WpnnTWcyH5D0pnUSuNo/38tW/Tk54DtEtUwn9u3PHud+UmtrwIXJ8rRa2c62z8ZoI5UGJs1awi9/94HKGa61lRSoQZAZnhN3017yt4HRpENTLP970te8g9e/svi/9x1a1yq9Ov91kn02bQTSE2r3VUAMBz8F9bWlt7X1vqeAljt3S2t/f+1zT3p7H83JZ8XIgpxHGIbABhNQepIZakvhjvfwbUCQNJRl3YAKb/e0/9tt7RzlMvGDUP46nt2K/sbbnfn/L8/EE++7YbS0pXVdsJ/P7h/Cvhh2jGkZj0OvD9QreXAYqD7LT/upnf2ux7YEBhOqNmatXMgoxqagDkDOCYAdk7HocBRAzDUK8DfgL9jvAr++qpvZKONAHDfBPOReLQJ5psD27CuEw85NQBqlc2ZsTNR9ImEZS7xidNfCpHHJ06/wwrt94ONTlbJPmOzO7byk6Y+GyKXVIiouCMe6i2nVgBIOtQAyIIV/ula3ok2cc/3RsMGDS7rGAuWL/MJf7q2dOU/H6/FKf+328+62kb5hNYFaQeRmrS2KwCKwD+AB4GHcZ4mFz+H+9PUsZDl6y/xk07qWVMRm982mAWDt6OO9xBH7wM+ChxEeffHn2bnnv5bP/7UF8s4xiqsrS1iVEO+TOWXAtfi/r9Qut6bv/PMuhSx2bPrqevZBY93xvx9wAeA/Vjze5FX+deKR9ZlTKkCUTSepPvlo7grTJg+Fv0M99kJq+TIxccDPwiQSCpFnNsVC/RWMPaXwxQS6R81ALLA/NBaPYumPpejcfd9yjr7//t/Ph5PuPna0qLuZeUcppJE0PAxwuyDFFmV8fhqdunGwCPgfwH7C2Z/YeWQ+9bmAX9NfEzrCuDRvm9XA1jnGZuBj8MYD7510jFWY0NW1k0CWspQe/U2rf9vnNDnd/wDfCbd9ReEOICv78/z/r5vvwWwmTOHsZ4fgseHAZ9mdfvAjb94a2u1HbS6EHg67RBvynnyg+3KwGbNGkJD4hPz7/Px0/8vRJ43eXwhWAcwJFGdyMbZ/Pk/9DFjAt0bL6kzwp3zYtGjwWqJ9IMaANlwcNoByuXonfeINh0yrCzdjWXFlXz/zltKP33g7mp745mc837UAJByMHuc3rMzFmBcgfM7it239h2+NSC8ecq/gNNsftsZvNQwDue7wBaBR5lgs9tOH7DfV2zjw/V57RmM6YzY/uJyP7j45MlLgSv7vmGdHbsRxYeBfRVn394Pqsbl/3apN03VHvA1aVh5FLBxsiIedvYf8KaWxVbIzweOSVaIrVj05GeA3wcJJhXAPxyo0Ct9X4tEBpwaADXOOtvfg9lmaecoBwNOHr1/WWb//7LgBR97w5Wlx15ZkoUl///J+UDaEaRG2fKHYOiHGbndbWnPivWtDihYof1i4CdgRwcsvyGD6k8AzgxYc7Ws0L4DZh8PVG0+9Yzz46amcjiVN099GHgYONMKM0dD6dtgt6aRRQaCT0hY4DXqowuDRHk752dYwgZAb6FG1ACoCTZ7xibURQcEKvf3QHVE+k0NgFoXRe+jJk+qh8O23dF2HT4i6Ox/MY456/674ta/3FJaGWdv4v9Nxh42N79h37VtIsF4Y+sy4Ja0c7yVN7UsBo6xQv4vwFmEuiHH7WsMQAMAt89hQTL/nKap45JepRaKN02+H/hG2jmkPKzQvh/YgQmrXFiuZpU3T/uzFfIPA0kPUf6UzTlzW5/47adC5JIU5aJPE+wGNVcDQFKjawBrnu+XdoJyOWX0/kFP9n7qtVf80Ct/Uzz1jpuz/fDfK6IU75N2CJGB5E3TZuMcS7gH4Pfa3DN2DFTrnZknPUEdjHsY2T2hUh7+JQss+RaJiPMCBHln5iHq54iKxweoI2kzawxXLLonXC2R/lEDoNY5e6UdoRz23WSUfWSLbYLN/l/02EPxe+fPK976wrN68/sGt5p87Yi8G2+e9gvgtGAFS6Ujg9VaDWtri8CS70n16Ft9WyJEys7OOms48JWEVR708VPvChLoHdX9Egjx9+I4a2vTqtsqZoWOg8HDbY90rg1WS6Sf1ACofXumHaAcJu19UJDX7qLu5X7ktb8rjb3hqtLrK/Xed1VWk68dkTUaucMPgu07Nzs0SJ13MnK9rYENkhWxB71pys1B8oisjcE93wCGJqph8bwgWd6FT5i8APjfAKW2YNP6zwWoI2lxvhew2tN9552IpEINgBpm53dsAWyUdo7Qthy2nn1h+50Sv3b/+MyTvv9v5xV//8/HM7/ef7WMPdKOIJIGHzOmRGTHEmLmzznY5s4dlDzVO6gr7Rygyh8C1BBZK9Z7hm/Sw/+K1MW/CpFnLYTZZuB416/yAAAgAElEQVQ2PkgdGXDWlT8K88PCFdTsv6RLy5FqWbfvEO5aqMrxzdEHRIOidd/+v7y4ku/deUtp9gN3x1rv/662TztAVXE+Z4V8mZejDqAcX/DGaZVzj/kA8/FTHrNC/jwg6T7lYcRL3guU5yo79x0S1zAeCJBEZO10tR+C2a4Jq/zBjz/1xSB51mTkDtex6MlnwLdOWOlQO3vm9n7i5CeD5JIBYeeevime+2nYqq6mq6RKDYBaZmyXdoTQ1h88mGN33XOdZ//vXvgvH3vDlaW/L1msZ/81G2Wdbet5c+vraQepEiP6vtWGlXFD2hFSF9fliYrjSb5a7kDK1wDYgKSdXiu9FCaMyNoIcPif27zkOdZyqDFjStbZPg+zpEvAI3LFE4BTQ+SS8rO5bUMpNVwBbBKw7EusHHZ1wHoi/aYtALVtu7QDhHbCbntHGw7u/3NJyWNm/vXO+CNXXFTUw38/5AZvk3YEkbT0Xdv1x+SV4qTXiL0LWy9xiTinyQAZEHZ2xxY4hycss4hNll8ZJNDaiut+DgTYLmjHlnVLkARjbW11FBt+BRwUuPQv/aSTegLXFOkXfdGvZeab47WzB6Auijhxr/3WqWnVUypx5I672JE77jKgr/mSx3Tce0f880ceqM5zBkq2FfBQ2jFEUuM2H/NPJqxRzgbAkOQ398WbBYkisiY5Px5I9gDsftFA31jhJ05+0gr5G4CkV25uRnHJ4cBvA8SSMrHzO9ZnVMNvgE8HLl2kFHo7gUj/qQFQyzzokqXUjdlhl2irYeuvU0djaN0gtlt/wwHthjzz+qt+/E3Xlv70/DPVvOKgdpa0i6yLOv8jpcRVku53fhe+PHkNUwNAys7a2iJGNYxLXMhzFwSI03/GeXjiBgDgjagBULGs0L4D2KXAPmUof4nOgJBKoC0ANc1q6uHtpHWc/U/DZU8+Gu//2wuKVf7wD2oASMZ547SnMZ5NWGbTsi37dZYGqPLeADVE3t2mDYcCCbeV+f0+cco9QfL0V0P35cDLiesYH7ezZ+qQ3QpjbW2RdXWcDHY/5Xn4X475d8pQV6TfquaBStbJxmkHCOWjW25j+4/avOL3Myzp6eYb119ZOuq6K0qLe7rTjpOcWc28hkTWmfO3hBUiViwpz4qsiFcCVPmYzW1Ldie7yJq4BZj9Z17yIOs49NjWbtxDXD0YkSsdH6COBGBg1pn/HKMabsf9J8Cwsgzk3uETWv5Zltoi/aQGQC1zr5k3dKeMPqDiX6s3PPeU7zP//OKvH3+4Ovf7r1btvIZEEkjaAIC6eNMAOf6T2RMBqmxAPOS4AHVEVsvmnjkSPOnhfyuJ6i4MEmhdWd15gSqNtbY2bcNNkZ3fsb4VOo6lkL8H4/fAAeUbzZ+irqejfPVF+qfiH6okAWNw2hFC2GX4Rvaprbev2Ndqd7HId+/8U+mwq+YXn1+6tNqX/K/KrCZeQyKJmCdvAMRlOpPF48fC1PHTrat9uyC1RN6uVPo6JHxPYlztEyYvCBNo3XjT5Ptx7gpQagtGNnwmQB3pB+tsW8/m5A+3Qvs8evwF8PMpz3L/t3Iib/bG1mVlHkdkran7WNOsJq6ambT3gVFklbn6/+HFL/kx1/9v6b6XFtbWg/+bvD7tBCKpK0VPESX8K+42JEyYt3mx52lGNSwBhiestD7OPJs791BvbFwZIprIWwRY/m/zkscIwPw8sP0T14k4AbgieSB5JzZnxgjMDiCKDsD9o1jDB3snxwb0PeVpPn761QM5oMiaqAFQ26q+ATBqyDC+8p7dKm72393p/Nu9ccvtN5V6SsmPCK9YXhurSEQSsfjVxG8YzRvChFmVt7bGVsjfBByRvJp9hNLii23u3KPUBJBQbM6Mg4iiPROWWUhu+FVBAiWVs19T4kwg6Ra5T1nnaVt783eeCREra+z8jvVZyoZENooo3hRnE4xtgO0wtsPZgSjqPWzR05qjsWtYsLw1pcFF3pEaALWt6t/ANe+xTzSkrrL6GM8tfc2Pu/EPpRufe6pGZ/3fwhjQu5ZFKpL7KyRehWTlW03j9kfMAzQAAPgCpcUX26xZX/dJkwJcMSiZl4vGkfyr5cWV0pTyxmmvWCF/GfD1hKVyRIOOA9oCxKps8eLbrZBf11fBRn3fD6e3E7sBkAP6nmL6yr71n+jKeHf2GIMHfc1bp9bQuVBSK9QAqGm+coCXOQXVkKvj+N33qajZ/8uefDRu/tN1pZe7s/K+2HrSTiCSOqt7FRK+hzMv32qaUmk+ddGZQKhVBl+gYcUDdk5Hk4+f+sdANSWDbObMYQzjqMSF3H8ZIE5AfgFY0gYAOONs/vwf+ZgxNbyUEHD2TTvCgHIeIbaP+7hJya+NFCmDinq4ksC8umdvv7HLntGoIUMrooPx6ooejrvx6tJR112RoYd/wL2qX0MiQZSWJT+8yct3kImfNH0h+PzAZXck9uuskL9Qd5bLOhsWfwlYP1EN5xFvbvlLmECBLOi5AXg6eSHfmpcf/2TyOlI57EEGlz7qJ059Pu0kIu9EDYBaZla1J44acOJe+1bE6/P2F5/zAy+9oPirR/+WwWVc1fsaEskUizuAcswifpVc6e9WyJ+rRoCsg+SH/2G/Sl4jLG9tjbFAqxLi6IQgdaQS3EEud4gff+qLaQcReTfaAlDbFqUdYF19drv32C7DR6Q6+78yLpG/947SaXffFpdSO0AmdS+lHaBqGPN8wrRj046RNQbG7BkjyeVGgo/AbCQeD8H6Zh3dhmC+vO+DXyK2FzF/niE9z/vY1u40s4fkE0590Aod54E3lqH8IGAcudIx1tl+CRad7U1Tby/DOFJDbO6MXSH6QMIyThRfGCRQaJa7AI9PJfley8/a2R1baMa4qjnwE0Z2T/MxrVo5KRVPDYBa5rxcrUcATBq9fy7N8R9Z8pJ/4/orS/cuWpDZJ38A3Ku2iSS1xebOHUT88p7E0b6Y7wn+HrAdge2pixr+feqTs8qBffbm//R+yBs/Xt6AFfIvgz+LRX/D4/vA7sf8YSa0POWVcoxUfxRL3yUXHY6xaZlGGITZ18C/ZoX83WBz6B50sQ4LlNUq5Y5L/NfIuMUntPwzSJ7AfPyUx6zQcRt40iZHHTkfC5weIJYMvCVgx3rT1MvTDiKyttQAqGWRL8KrrwOw/6jN7IObb51KcHdnzt/uiU+9/U+l7lIxjQiVZnHaASSbbNasIQxd+UFiPg5+CLAP2GDsjQeKIP9EbAy2Me6jwb4CgBsU8q8bPIzzABF3Ujf0ocSHAA4AP2n6Qus643g8/j3lPwF2P/DzaVgxy7ryl0B8gU+YfmuZx5QqYXPnDsL9mMSvwpiKW/6/qngeWNIGAMDx1tbW7q2tlf8Pjfybcwl1TPHGqQHOgxAZOGoA1DK3F9KOsC6+tfeBqez9X7B8mTfefE3p6qf+UX0zf2UT6X5iGTA2a9YQ6ns+j/FVGuy/iIOdat9f6wEHYByAc1w1PPy/wSdMudIKHR3g0wZoyA1xToDoBCvkHwUuoGTztJw54+KXP4tZ0pUo3ayoD324ZVjFnkuoa/gJMDRhpe3ZbMjHAd26UR3uhmiSN0+5Je0gIuuiIg5ZkzIxezLtCP21zfrr2xHb7TTgr8vL//lYvPcl5xf18P82yyJ1taXsrLNjN+vKz6VhxYuYXQz2ecJdaZc9TVOng/0mhZF3Bk4j509ZIf87K+Q/bW1tep+RRW7JD/8zrvRTTlkSIE3Z+Emtr+L+uyDFYnQYYMXz+zE7hgXdB3qTHv6lemkFQC2L/alqOwPgm3sdENVFA/d+8bUVPbTcfnPpZw/fVz1TfAPFeNEnT16adgypXdaZfz/GqRiH4dX2r1XlcnDLDT+a0hLAv5xChDrgCOAIRtU/ZV0d51HkPK0KyAabe/rmkEt+tZ1bmFP2y82YB3wteSH/vM2ZMcInTtfhu5XFgWvAf+xNLf8v7TAiIagBUMvq6v9BqSftFGttg8H1HLPLHgP29H/ngud97A1XlR5/ZYlm/VfHvepWkEh1sLn5bSiRx/gy5d+rnkne2LjS5s//GoueWARMTC+JbYv7/5Dj+9aVv5xSPNMnTr8jvTxSdqXo6yR/f7mIkcuvCRGn7Bb03MCoIc+Ab52wUj1R9FVgdohYktijwCXk4gu9cfojaYcRCUlL82qYN57yAlV0jdv43feONhxc/lW/xTjmR3ffVvrI5RcV9fD/buzBtBNIbTEw62r/NiUeAY5CD/9l5WPGlLxp2omYjwPSvvKwDudIouh2K+RvsULHEdoeUKtsbPISfkm1XKfmra0xFv8iUDldJZuuh4DTidjHm6bt4k3TvqeHf6lFWgFQ+x4EPpJ2iDUZFEU077lv2d8MPrrkZR9741Wluxb8Sw/+a+KuBoAEY3NP35xi7gLMDk07S9b4hJbzrTDzLij9Atg77TzAB8E/yKiGx6zQ/mOG9Mzzsa1pNygkAJsz4yCiaPfEhTyqjuX/b7DcBXh8Ksmbmu+1zjP28eYpfw0RS96VAw9jfhPYzcTRn7x5yr/SDiUyENQAqHXGA3jlNwC+/J7doi2HrV/W2cCLHnsonnjLdaWlK1eWc5jaYf5A2hGkNljnGftguT9gbJZ2lqzypsn32/y2A1lYfypm06iMQxZ3AiuwvOH71tl+BnU953hj67K0Q0kCUW5s73NVIo/RNLWqton4+CmPWaHjNvAAVwKWjgW+mbyOvMUrwN9wHsB4AKIHGVz3gI+b9HLawUTSoAZArXPuSTvC2vjm6P3LNvu/sHuZj7/52tKV/3xcs/5rLyYX3Z92CKl+VjjjQ1j8v8CGaWfJur4l1T+wQvsvMPsxzuFpZ+qzOWY/Jm74lnW2T6W55WIP8BQpA8vmtTVAw1EBSv2qKv/83S/ASN4AMPuazZ491U86qXoOcUrPEmAxxmJgMc5C4HnMnqLkT0H0DHHxGT9p+sKUc4pUFDUAap7fVunbbD+x1Xa294hRZQl53TNPeuPN1xSfX/p6OcrXLucBb5z2StoxpLr1nfJ/LTAk7Szyb97U8gRwhBU6Dgb/IfCJtDMB4GyF2UV05SeY+7F9OaVadDccAQwPUOnrVsh/PkCdgWXB/p0bQW7554DfBqqXvjg+mMiK614geh3i3uWbg+KlrIxW0NSypCobRSIVQA2AGudNLU9YV/4FnM3TzvJOThm9fy50zeXFlXzvzltKP33gbl3vty4ibk07glQ3O3vm9uT4HXr4r1jeNPV24NDeLRreBP41YFjauXA+DHafFdoneVPLuWnHkbXkjA1UaadAdarZsdRSA2DQiHu8sVH7L0UqhE7gzYKY29OO8E523WhjO3Sr7YLO/t+14AU/4NILinr4T+S2tANI9bLOtvXIla4ERqWdRdbMm6f81ZumjifHlsDJwMNpZwLWA/uZdea7bO7cQWmHkXdnszu2olJWktQC80/a2R1bpB1DRGqTVgBkgfkfwf477Rir8+29D4rMwjz/F+OYs+6/K279yy2llbGe/ROIofumtENINaufASQ/CXztLKD3tpMnged6f2zP4b4I8+XE1k3kywHI5YxS6Y0lyhsR+WA82hr3bcG2BbYDdgFGDFD2itK37We2wdl0dnyUyJv7zglI7wHcGE9p8U7W2Xa4N7dqL1elqvNjgOCr+TIs1/c5bU87iIjUHjUAssDq/4BX3nW6o4YM48s77hpkFcrTr7/qY2+4qvTnF57VfrDE/C6f0Log7RRSnWxO/sNE1lzGIVYA1+J2BXF0g584+cnQA9jc0zfH6/bEfT+cI4ADqfTDVAJycJqn3gjcaGd3bEEdJ+B+ArBlSpE+BkOus7POOsxPOWVJShnkHVjv341vpJ2j5jjHGuS1z11EQlMDIAN8wqTnrJB/iIGbkVsrJ+61b66hLvlL8KLHHopPvOWPpddXVl6Toyo516YdQaqTtbVFjGroohzby4xncf8pcK43tSwOXv8tvPHUF4AXgD8C7TYnvwcRD5ZzzErlJ059HmiztrbT2LT+cNxOBD464EHM30d9z+9s7tz/0l7iCtM14/0Q7Zx2jBq0M10z3s+E6TqTR0SCUgMgO66gghoAQ+sGccJueyd6SFjUvdybbr4mvuKfj2u9f1C5/007gVSpUUM+D75b4KqLcH7EyO5C3zV2Ay/ufoaoIZWhK4W3thaBS4FLrev0PfG6ieBHM7CHBn6U0pKfAk0DOKasiefGapK6TDw6FnQor4iEpUMAsyJXWafJjt1lz2hEw7ofDn79s//0/X87r6iH/+Ae9eYpf007hFQrnxK2nl3DoNKe3jztJ6k9/Mt/8AmnPuhNU5vIsSXu3wJ7ZiBHt0JH9V0RV6NsbttQ8C+lnaOGfclmzkz/Zg4RqSlqAGSEN057ALwSTnYmMuPk0fuv02uvu1hk8m03lA67an7x+aU6D6oMLkk7gFQnK8wcDbw/WEH3n7Jg+Wf8+FNfDFZTgvLGaa94c8sscsN3xP1YnEcGaOROm922wcCMJe8qHvJFQH8W5bM+w+Ij0w4hIrVFDYBMsflpJwA4fLv3RDtsMLzfB2r97eVF/oHLf1n86QN3x1psWCZeGa8RqUalcLOybmd6c8s3vbVVK3yqgDc2rvTmlnks7N4Dty+C31/mIbckVz+5zGPI2nAfm3aE2hcfm3YCEaktagBkiQ3+OXgp7RiT9j6gX6+72J05D94TH3TZL4oPvLRIz/7lYvyfN0+tiFUiUpU+G6jO5SxcPjVQLRlA3toae/PUy1jQ817cjy3r1gCzk+2ss4av+QPXQVwK8XWm5s9YsjlnbksaB0Jmjn3YCu07pJ1CRGqHGgAZ4hMmPYdZqie8HzBqczt40y3Xevb/mddf9U9eeUlx0q3Xl1aUUu9d1LaY89KOINXJCu0bAQckLuS8SK7uBM38V7feRkDLPLoH7YIxHVhehmE2ZHDP8WWoC9Qlv2XABvRwxHRY6evofeRAMCw6Ou0QIlI79A935kTnpjn6lPcetNavucuefDTe/7cXFG9+/mnN+pffKyzLXZp2CKlWuT0J8fXE/Pve+O1FyfNIJfBJk5b7hGntRNHeGH8KPoB5eR6KPA5wzaAPTV6jwpkfk3aEzHA/2qDfWydFRFZHDYCseXHZ1cDjaQy9/QYb2Oe23XGNr7lXVnQz9oarSkddd0VpcU/3QEQT41yfPHlp2jGkSlkc4orRV1lad2GAOlJhfPyUx3ix+5DeGwMohqtso63r9D3D1esTWfKMXtsrAOycGe8Ddk47R4bsSOGMD6YdQkRqQ83vUZNVeWtrbIX2n4L9dKDHPmX0gVHO3v35/8bnnvLjbry69NzS1zXrP2B8JXXRnLRTSBVz9khexK5VE6p29W3rmGVd+YdwLgcawlSu+xjwYJhab4hXJp5sdavpBgBx7hgI8mX6KrBlIQpVJHPD+SJBZu/9GOCW5HVEJOvUAMiiXM8vKDV8Hxg5UENuVN/A0Tvv8Y5P/93FIj+657bSzL/eGceuZ/+BZb/x46c+m3YKqWa2WeKHAfc7w2SRSuYTpl1rc/JHEfE7QjwUxf4BIHBDO/c6JDyGwmp3C4DNnl1PnX85QKknaZr2OQ/USahUVsjfSpArUn2MzZp1sk+aVI4zNUQkQ7QFIIO8sXUZ+E8GcswJe+wTrTdo8Gp/7uHFL/mHr/hVsePeO/TwP+C8BJZPO4VUvfUTVzB0A0VG+MRpVwCzghQzDgxS562GLlsSoEryvxOVqm7p54GNEtcxv6jWH/4BMPt1oEobUt9zRKBaIpJhagBk1dK6szFeHIihBudyNO2x73+81rzver8DL72g+NdFC2v/TUBFsgu9aerf004hVS9AAyAO8dAl1aLefoAH+Rq0lc2dOyhAnTf52NZuIOkBNFvU8KFtYQ7/M78oSJ1KV1ecD4S5xsgiHbwoIompAZBRPnnyUjw+cyDG+up7dos2GzpslTdCzy19zT911fzipFuvL/Xoer+U+EoG5U5LO4XUAk++39mi1wMEkSrhx019DeOcAKXqWPHqVgHqvF3ShlQD554+KkiSCmJdM0eBfSpAqXt9/PSHAtSpeH78qS8C1weqdqjNPX3zMLVEJKvUAMiyISu6cH+y3MOctNf+q7zOLnvy0Xi/315QvPG5pzTrnyazc/z4yWX/85dMWJG4glt9gBxSTaL4N0Hq1K3cIkidVVjy6yhLtkOAIJXF468S4vwo84zd+GEXByqUo5j7WqBaIpJRagBkmI9t7caiaeUc45PbbG97jdjEAF5d0cPEP11XOuq6K0ovd+sMm1QZL1OKNfsvoQQ4vT9eL3kNqSZ9M8ALEheKy3LifvKDUT3aJ0COCuPfCFAkphiF2hdfHXJ+Gcm3lfQyC/FnICIZpgZAxnnT1MuB/1eu+qfstX8O4I4Xn/cDL72g+LOH70t4tLIE4f59nzj9pbRjSK3w5A0Aj7YOEESqjfFI8hpR+BP3zZ8JUOW9AWpUDCvMHA0kb2oYN/qJU59Pnqh6eOO0V3D+EKjanjbnjH3D1BKRLFIDQMDt2+A9ocvuNWKkfXiLre1Hd99W+ugVFxWfePUVLfmvBO53MXLH89KOITXEoteS14h3CpBEqo2TfKm9x+G3j3iIFQB8JECSyuFxmAPo3DK2/L+PebhVD7lAfxYikklqAAjePPVhnI7QdQ/bZkf70OW/Kv7PXbfGJV3vVymKkGv2MWN08qKE4/E/k9ew9yUPIlXHKSauEeUCbEH5D08EqLGznT1z+wB1UmdtbXWYh9h73t23HD57uuuvBJI3SwGcr4S+/UJEskMNAOm1sCcP/C1kyZl/vTO+Z+ECPflXEvOZ3jzlr2nHkBpjPB6gysE2c2Y59nJLZUt+n7wHeqh6K/MwXw+j0pggddK22eD/AjZLXMe40hunvZI8UPXxSZOWg18eqNwoSks+HaiWiGSMGgACgLe2rsD8OEKc5t1Hs/4V5yGW189IO4TUoJKFaAAMZWjpiwHqSDUxdklcwwn/QNnQ8zAh7m43xhnYmj+wwsU5Lf8PwgIefujaBiAi60QNAHmTT2i5F/fWtHNIWXST4+jeGQiRwBoGPwgkP+Az4pvW1qavSxlhne3vAbZJWMZp8H+EyLNK0bGt3UCIujtT6Dg8QJ3U2FlnDQcP8XtYzMjlVweoU71yG/0/CHDuRa/P2nmzNg5US0QyRG+0ZFULe2YBN6QdQ0Lzqd447YG0U0ht8nGTXgbuT16Ifdl0iO64zoqIsQGqPO/HTQ2/BaDXrYHq/NDa2uoC1Rp49d1fAhqSF7L5PqY12CrDauSNjSuB+YHK1dOz8qhAtUQkQ9QAkFV4a2uMdR8D/lzaWSQQ90u8qaUr7RhS44wbg9Rxn22F9h2C1JKKZV2nbYnbiYkLOQ8FiPMOtf3aQIX2ZJP674aplYYozFLz2DO+/L9PzMXBapm2AYhI/6kBIP/BJ7QuwKIvl+NqQBlwD7KsbnzaISQDnD8GqrQh2DXWedrWgerVPJs9u94K+auts32szc1vmHaeNbF5bQ1QdxGQPGtUxhVr9fV/JMQ5AABm37HOji8EqdXfodva6vq2W/T/13a2vwf8/QFiPM2i7j8HqFP9FnX/GeyZQNUOskJH8nM0RCRT1ACQ1fIJU+8EJqWdQxIwXiYXjfHJk8txRZbIqhZ0/xF4PlC1nbBBt1rhjA8Fqlfbotf3AT6N2c8p8S/rys+3rvb/ttmz69OO9nZ21lnDWd5wOc6Hw1QMNUu/msrjJr2MBdsGUIf5xdbVflygemtk55yxk3XmZzCq4WnMfr5uRexoghxiaL/21tbk54TUgL7PQ7hVADoMUET6SQ0AeUfe1HIuxqy0c8g6WQH+VW+cEvxwLJHV8dbWIjAvYMWtIb7RuvJzreu0LcPVrUFRdOBbftSAcyRul1G37F9WyJ9rXe0fq4TDFa0z/znqe+4FPhmmoj/FhJbyXmvqdn7AaoNwO8+6Oi6y2R1bBaz7Jps1a4h1dRxthfabiOO/Y7QAmwMH9Lch1Hd7wdFBgpW0/H8VUcjPhx1dCX+/RaR6VO+hNDIwJkxrodC+OZgOmqka7lg03idM02GOMsD8PLCphPvaksM5Aeq+YV0dl4JfQEP3zX0ntMu/HfgO//9wYBxu4xjV8LwV8pcSxdfw2qCbB2plkM2cOYz1Sl/H7USMPcNWj85xKO99s7nl8yk1/IQQ2xXe4P4V6jjcCvlf48xjkx3+z8eMWeetBtY1cxRe+gTuh9Fgn8EZvppJ+3pyyw4A1n4ZfuGMDwPbr2uuf/P7/cQWHUL7Fj5+2n1WaL8fbHSAalszcsghwPXJa4lIFqgBIO/Kwa27fjwNKzYHPpJ2HlkbPt0nTNVsiww4b2p5wgod54M3Bi49GPevAF9hecNSK7Rfj9nVxH4PdfaoN04Leg+8tbVFbDxkCwb5HsTsTd2Qfcv9nJnQQWvxMVsAJxFHJzGs1GOF/G1gd+HxQ+SiB7HlD3lj67KkQazQvhGx7UXERzE+zDDehzO0DJ+/Hiw6L3TRt/PG1mXW2X4BZicHLj0UGIcxjkVPLLZC/nac+3r3hseLiexlsMV4XCL2OiJbH2wQ2CjMNwc2w9kV2IveP1uwNazUj/gg/WkAeHxMiMX/uOnr0eq4/RLjjCC1Ij8GNQBEZC2pASBr5JMmLbe5bYdTargS+GDaeeRdmP3QJ0z/cdoxJMNKtJHj6/Q+4JTDMLDP43weMyiBFfIvAI+ALQBeAX8d8+U4b7kezjYAy735Q/fhWN8Tk7kRMxJjU4xtGNWwKfggnL6J1Mp9+O+7B7y/B7zVA4eAH4IZxA40YIX8S8CL4AvBngN7Hec1jGLvobDe1yCw9XofRn0DjDrcN8dsW5xtwTZ4c3NhWT9tdpZPmLygnCO8qS5up5Q7nvK9pjcCPo3xad540Tm8+d/RW5/CE6x5cP/A2n7o/2/v3mP9rus7jr8+v0Npi8wFrUxRJ+JcnEAMiZcAAAz4SURBVGKiThPHVLYYweG8spoZNTNe6jkHamCjPQWSnVSn4wCLJJXCTvyDZU7/cHPihXndnGxzRuNQcWZzzqIBFNuuyqWn5ZzfZ3+ciqgtvX17vqe/z+ORnNCkh8/n3dPT9vye5/v5fsvs5pNSVv3BEe70YMNk/gMdrDN6huX9GatXJBk76Pse3Pll6+YL6uT0PR2sBYw4AYBDUtdN31eu2fyqrFz1ySTP7Hse9qPk3XV84zv6HoO21Qs33lGum3lnkncu4baPWXx70Cujur9vXT7o5x/8wv6BF/pZzq/19+/+vc9JJzdpS5I8cvHtQR+Mn1n5516IPvCfstQftzuzcuk+v+q6y+4s1125JalTS7XnsVHOKkk5pIQwXP3KpD786PesN9fJy7u64/1IqRduvKNsnfnHlLyog+UelrL6/CR/1cFawIhz0xAOWb1oelf2zJ2bki/0PQu/4Ko6PnWcf3HKyFhzxkwO51JjjkI50Pn/UVWTMlnfuPHug79rl4YzSe5c2j0794hcO/PUQ3rP2tGd5V3+/9AG5a+7W8zTAIBDIwBwWOpF07tyz9h5ST7T9yw84O11YuryvoeAn6hr1y6k1Ncn2dX3LCOv1kM5/z9CytV1YuOHl3rXOrHp/5K8Zan37dzYwY/x7Xvqxgs72G1PSv3bDtYZXcPdf5+kqxty/k6ZnfnVjtYCRpgAwGGrl1xyb1bPvSrVP+z9qven1nV1YurP+p4Efl4d37QtGbwsye6+Zxlxz+l7gCVTy025a/dlvW0/MfXxpLy3r/07cSj3Aahjr0sX59JrbtoXTjiAxTP79UMdLTfIfOnmsY3ASBMAOCL1DdNzmdz02pTizHkfSu5Ozfl1ctMNfY8CB1InNtycMnh1kvm+ZxlF5borzkhyat9zLI3yiZy0+/w6Pd3v59Lq3euTenOvMxyVcgg38h28rpOtOn3W/QireV9na5X6R6W7e4IAI0oA4IjVpNbxje9IresW7xDNkqj121nIC+rkpk/0PQocTB3f8LEMhi9PssRnthtQm/nu//syv/oV9Q3Tc30PUt8wPZcTV74iyX/2PcsReuK+S/z3q/zllc9O6pkd7LMrq/Z8vIN1Rt+jnvTZJHd0tNqTc92VjR0LAg6XAMBRq5Obbkgde36SbX3PMvJKbkrJWfWCqW/0PQocqvrWS2/KQn47/o7o1qCM+hf6e1PK+jox9fq6fv2yicz1TRfvTJk/J8ktfc9yRIZjB74KYNjVzf/yoeUQbI4Hde3ahSTv73BFNwMEHpIAQCfq5IZbMjZ3VpJP9T3LiJpPzZ9mfOqVzlRyPKoXTn09Y3lGkuuSDPueZyTUkX4CwJdS6nPr+Mb39D3I/tTxy29PnXt+Uj/W9yyHrZT93gegfHDziUle08keLv8/TGMdPg0gf1i2bFnZ4XrAiBEA6ExdN709E1MvTepkkvv6nmd01NtShi+qk1NXHNLzm2GZquumflQnpiZT8/wkX+x7nuNf/XFGL6ZsT3Jh7pp7bh3f9B99D/NQ6uT0PVnzpFek5NIkx8t3uxcO+DPbV5+XZE0He9yeH+z5XAfrNKNOXPK1JF/taLlTMrb7pR2tBYwgAYBO1aTWiU3vTVl4Xmpn/5g1qtaU3JC7B8+q45f+a9/TQFfq5NS/1Ymp56bkxUnxuX2E6sTUeanzpyd1U1K/1vc8R+n7KfWS3Dt2ep2YurZOTx8XYaOuXbtQx6euSMozUvL5vud5CLen1ndkLGfUiam37fc9ameXjn/gePn9W1ZK7e4qgOIYAHBgJ/Q9AKOpjl92a9m8+bdy6qqJJG9P8rC+Zzqu1Pqd1MGF9YKNn+57FDhW6vjUJ5N8smy96hkpwzcmeW2SR/Q8Vhe+m1puTcnXF1+Yj92aEx7+zWOxUZ28/HtJZpLMLD4VoLwkye8nOTvJcr8MeCEpn04d3pCT9tx4PJ8ZrxMb/yvJ2eX6mXOTXJaaF/Q9U5L/SfLh1NyYR53xhX1nzferzP7FmpS8pJNd68Dl/0difvCBjNWZdPEIxuTF5fqrT63jl9zVwVrAiBEAOGb2Pa5pS5m96qYsLFyTlHP7nmn5q3uSck32rHxXvfhiz09fKqV8NMkvH9Uaw3ypm2HaUyc33JLkbWXLlg0Zu/fslPJ7Sc5L8us9j3Ygd6dkW2q2JfveatmWMrwte1Z9u1500a4+hqoTm/43yZYkW8rWzScnq89J6ktS8rtJntjHTPtxT0o+m1o/kbLw0Tp++e19D9Sln0atmbNSsjbJy5KcsUTbzyfli0m9KcPceFg3i10Y/kZSbjzqCWrdue/PM4epXrjxjnLdzExSntzNivNPTXJ0AaDkG6nlg0c9yimnuCJkKZX6lWRwdL9vpd7b0TQsQ6VWR4pZGuXad70wg7Grkzyt71mWqY9nxdgf1zdf8p2+B4HloLznytMylmcn9TlJfjOLQeAJOTbx+t4sfrH8g6RuT8oPU/ODpN6VwWB7hsMfZqzcmRNO/F5908U7j8H+x1TZ+s7Hp5xwdpKzkjwlix/LAz4OriN7k3wrqV9JGXw5w/rlPGruy3Xt9N5jvO+yUq6deVpKOTslz0ypz0rNmUlO7GDpO5LcmpJbksHNGd73uTo5fU8H6wIwwgQAllSZnV2RhZ1vSs2mlHJa3/MsE/+SDKfrxKU39z0ILHdldnZF6o9Oz0J9XAb1V5KyJsPhmpTBqpThL6UOfi4O1PuS8pNHyP0ope5KsiMLZUdK2ZEThjuTue113XRzNy4tWzefnMHKJ6cOHp/kkclwTVJOXfxxOTmpJ+Wnxwgenp+9NHnf00jqXJIdqYPtKdmR5Pspw9uysOLb2X7P95wF/0VldnZF7r/7tIztfVwyeGxqOS2ppyRlZepwdcpg1QPvXIdzKYPdKdmdOrwztdyZUu/IsG6rF1y6o8dfBgDHKQGAXpQbNq/K7lVvSeqGpDy673n6Uf89ydvrxKbP9D0JAAAw+gQAelU2bz4xp656dZI/SRtHA4ZJ/iHDhffUCy77bN/DAAAA7RAAWBZKUnL9zDkZ5s0p9bykrOh7po5tT/I3GQxm61s3fKvvYQAAgPYIACw7ZetVj05ZeH1SXpPkzL7nOXL1/iSfSfK+zD/sI3X9+j0H+z8AAACOFQGAZa3M/vlTMl/WpuTlSZ6elNL3TAcxl9R/Ts3fZc+ej9SLp4+7u4UDAACjSQDguFFmr3lMFvaek9RzUvK81Dym75myeKb/myn5pwzrp3LCns+3eDdxAABg+RMAOG6V9179xMwPz9r3jPAzU/P0JKcc213rbUm5NaV+NbV8MXvmvlAvmt51bPcEAAA4egIAI6Vc/+7Hps79WurgCRmUJ2Q4PD2lPCKpj8zis61PyeKzrFckOTmpNSmLL+BL5lKzMyU7UuvOpHw/Nd/NWNmWZFv27v7vun76x7394gAAAI6CAAAAAAANGPQ9AAAAAHDsCQAAAADQAAEAAAAAGiAAAAAAQAMEAAAAAGiAAAAAAAANEAAAAACgAQIAAAAANEAAAAAAgAYIAAAAANAAAQAAAAAaIAAAAABAAwQAAAAAaIAAAAAAAA0QAAAAAKABAgAAAAA0QAAAAACABggAAAAA0AABAAAAABogAAAAAEADBAAAAABogAAAAAAADRAAAAAAoAECAAAAADRAAAAAAIAGCAAAAADQAAEAAAAAGiAAAAAAQAMEAAAAAGiAAAAAAAANEAAAAACgAQIAAAAANEAAAAAAgAYIAAAAANAAAQAAAAAaIAAAAABAAwQAAAAAaIAAAAAAAA0QAAAAAKABAgAAAAA0QAAAAACABggAAAAA0AABAAAAABogAAAAAEADBAAAAABogAAAAAAADRAAAAAAoAECAAAAADRAAAAAAIAGCAAAAADQAAEAAAAAGiAAAAAAQAMEAAAAAGiAAAAAAAANEAAAAACgAQIAAAAANEAAAAAAgAYIAAAAANAAAQAAAAAaIAAAAABAAwQAAAAAaIAAAAAAAA0QAAAAAKABAgAAAAA0QAAAAACABggAAAAA0AABAAAAABogAAAAAEADBAAAAABogAAAAAAADRAAAAAAoAECAAAAADRAAAAAAIAGCAAAAADQAAEAAAAAGiAAAAAAQAMEAAAAAGiAAAAAAAANEAAAAACgAQIAAAAANEAAAAAAgAYIAAAAANAAAQAAAAAaIAAAAABAAwQAAAAAaIAAAAAAAA0QAAAAAKABAgAAAAA0QAAAAACABggAAAAA0AABAAAAABogAAAAAEADBAAAAABogAAAAAAADRAAAAAAoAECAAAAADRAAAAAAIAGCAAAAADQAAEAAAAAGiAAAAAAQAMEAAAAAGiAAAAAAAANEAAAAACgAQIAAAAANEAAAAAAgAYIAAAAANAAAQAAAAAaIAAAAABAAwQAAAAAaIAAAAAAAA0QAAAAAKAB/w/iRyfuW9D9FwAAAABJRU5ErkJggg==;clipPath=inset(21.3% 9.67% 24.07% 9.67%);" vertex="1" parent="iN45Id6dDKSgF8Y3VdJW-14">
          <mxGeometry x="4" y="52" width="82.01" height="20" as="geometry" />
        </mxCell>
        <mxCell id="iN45Id6dDKSgF8Y3VdJW-18" style="edgeStyle=orthogonalEdgeStyle;rounded=0;orthogonalLoop=1;jettySize=auto;html=1;exitX=1;exitY=0.5;exitDx=0;exitDy=0;entryX=0.5;entryY=0;entryDx=0;entryDy=0;" edge="1" parent="1" source="iN45Id6dDKSgF8Y3VdJW-15" target="iN45Id6dDKSgF8Y3VdJW-35">
          <mxGeometry relative="1" as="geometry" />
        </mxCell>
        <mxCell id="iN45Id6dDKSgF8Y3VdJW-24" value="" style="group" vertex="1" connectable="0" parent="1">
          <mxGeometry x="485" y="159" width="90" height="90" as="geometry" />
        </mxCell>
        <mxCell id="iN45Id6dDKSgF8Y3VdJW-25" value="" style="rounded=0;whiteSpace=wrap;html=1;fillColor=none;" vertex="1" parent="iN45Id6dDKSgF8Y3VdJW-24">
          <mxGeometry width="90" height="90" as="geometry" />
        </mxCell>
        <mxCell id="iN45Id6dDKSgF8Y3VdJW-26" value="Embrapa" style="text;html=1;align=center;verticalAlign=middle;whiteSpace=wrap;rounded=0;" vertex="1" parent="iN45Id6dDKSgF8Y3VdJW-24">
          <mxGeometry x="15" y="10" width="60" height="30" as="geometry" />
        </mxCell>
        <mxCell id="iN45Id6dDKSgF8Y3VdJW-30" value="" style="shape=image;imageAspect=0;aspect=fixed;verticalLabelPosition=bottom;verticalAlign=top;image=data:image/png,iVBORw0KGgoAAAANSUhEUgAAAgAAAAIACAYAAAD0eNT6AAAABHNCSVQICAgIfAhkiAAAAAlwSFlzAAASDgAAEg4BoQ+gowAAABl0RVh0U29mdHdhcmUAd3d3Lmlua3NjYXBlLm9yZ5vuPBoAAHjfSURBVHja7Z0HdFTH2fc/pznJm7ypbxLTMWAbgwu24957w0iiCBBNIHrvBoMxqFAkei+md1AXokpISKigLiEJ9bLqvUurXe39ZsgSE0JRuffOzO7/nvM7J8extXOnPf8785T/J0nS/wMA8M0Tg1b9nvAs4XXCR4SBBGuCLWE6YRHhB8I6wjbCAcIpgjfBjxBKiCekEwoIVYRmI1XGf0b/vzjjv+tn/G9PEvYb/+Y6428sNP6mrbENXxM+NLatL+F3GDMA+AedAAB74/4zQiejAbU2GlhqcL0IsYRKgiQY5YQYggdhC2E+YSjhNcI/CI9h7AGAAADA1A38bwhPEz4h2BFWEQ4SrhIyjF/hkpnRREgznjQcMJ4sjDeebvQh/BpzBwAIAABEMfS/JLxImEDYQQgjlJihcZcDA6GIcN14gjCW0J/wc8w1ACAAAGBt7AcYv+h3Em4Yv2phvJWl3igKNhPGGP0ifoY5CQAEAABKGPtfEV4mTCLsJkQStDDG3FBHCCJsIow2OiJCFAAAAQBAm4z944RXCJMJewhRMPZCUku4RthIsCE8A1EAAAQAAHcb/McILxG+M35FNsN4miw1hHOEGYTemP8AAgCdAMzP6P+FMIJwyOhoBuNontAohK2Erwi/xdoAEAAAmGacPY0/X2H0zG+B8QP3CUu8RJhHfQiwbgAEAADiGv2/GR3CjhPKYOBAG8kxOnxa0CyMWFMAAgAAfg3+zwlvExyMXvoGGDEgE83GpE2LCS9gvQEIAAD4yLBH7/LPCJouF4hJvrE+AvUd+AXWIoAAAEA9r/13CfsI1TBGgDHFxlDDAVifAAIAAGUMf2/CSkImjA7gFFptcQHhCaxZAAEAQMeM/h+N2feCYVyAQOgJFwgj6TUV1jKAAACgdUb/F8a7VVrLvhHGBJhA8qEfCe+hBDKAAADg/oafVtHbgMQ8wITJMpaC7oM1DyAAgLkb/X8Q5hPiYByAmRFCmEL4E/YCAAEAzMnwf2LMya6HIQDIQLjqNOEN7A0AAgCY8t0+dYqKwaYPwH2hzq7fwFcAQAAAUzH8vyPMJmRjgwegVSQT7GhpauwhAAIAiGj4/05wJFRgQwegXRQSltBwWOwpAAIAiGD4nybsMd5tYhMHoOPUGiNkumGPARAAgEfD/ybBA0V4AFAMHeEoChIBCADAS15+Wi71OjZnAFTlIuFj7EMAAgCobfgfJ0wk3MJGDABToo0VMVGVEEAAAEUN/28J3yJbHwDcQaNsZhB+hb0KQAAAOQ3/zwjjCHnYaAHgmnTCEOxbAAIAyGH8P0LyHgCEg/rlvI49DEAAgPYY/meN6XqxmQIgLrSqZk/saQACALQ2gc8u5OkXgoaBi/dfczrid03t3159xP/awMUHAsn/rsc4cI+W4IKEQgACADzI8P+G8J2xfjk2TY7pYmlfMmOje2B5dX0lGTvpQnhKrNptoL9Jf7uypqFyzmbPwC6WDoUYG+4pN6bl/iX2PAABAO7E8o8haLBB8k2vYavTNp0OCtXq9M3SXQ9LAXDnada16Ha4h4T0Gb4mCWPFPWkEK+x/AJ1g3sb/A2McMTZFjuk+xDHbPTAhTnrAw4MA+I/2hN2K7zl0dTrGjnuCCK9hL4QAAOZl+PsSvLEBck/zxLVngpq0umbpIQ9vAuDOicDMjR7UN6ER48g1NHX3CUIP7I0QAMC0Df/fCDuMOcWx+XHMs6OcE25mFmVLrXh4FAB3npTcUs1zY9YjjJR/aPGudXAUhAAApmn8JxGqsdHxTScL++o1R/1DDAap1Q/PAuDOs/lMUGhnC3uUhuafUoIN9kwIAGAahr874TI2Nv55e+r28MKymnKpjY8IAoA+ZVX1FR/O2hWCsRYCT8IT2EMhAIC43v1TjLXEzfiLelXlx3N2B3SxcijhuJ36FT9evC618xFFANx51hz1p1nqmnkdj65WDpkDbDf6mvvaIdATmzHYTyEAgFjGvyfB34w3rvo3p2wLOnIxKlir0zd8v+9iFMdH/hW+ocnxUgce0QQAfa5EpiV0trAv43VcdnmERjQ0NWdsOHXN9dlRzleMd+Tmup5oRtDO2FshAAD/X/3TCXXm6DFPvtrCtrtdD6xr1FbfMTQ3knM1vH5t9hzqlJGeV5YvdfARUQDQJ6eoMr+X9epbnJ4c1ZKxKbjT1srahqQVP14829t6zTUzzZJZRRiPfRYCAPBp/HsRAswthKmvjXO042E///Lq+tJ7DUxtg7a5x1CnXB7b/uqkLRG1DU0NkgyPqAKAPuQrm57WhPI4Rk+NWJvcrG/R39vmgrKa6DlbvFx7DHGKMEMhcIHQFXsuBADg56t/ljnlZO9kYV86fMVRv1RNafrDjMvn8/dG8tj+8atPBxkMkkGS6RFZANCHRjxMdXG9aoxJ52qsbFYdD35I01uiU/OvfTpvr5fxvtxcRACNJpqI/RcCALA1/n2M2bzMJTY+aqdHaKBWp298lFHZ7Rkax+M1xV6v8BuSzI/oAuDOc/hCZBiHd+0Gj2s34x7V9katrsDxkJ9nz6FOkWYkBGh0UXfsxRAAQF3D/zPCXFoNzgy+9suHLDvsl5RVnNpaQ5KmKS0h/x1vfhC6oxejoiQFHlMRAPQ5czXuhrF6HTdj19nSvrSovKaila/QEpGsCfp4zu5zxntzUxcBNFJiKj2JxN4MAQCUN/5PE66b+sby9Mh1sVvOBgc0Nevq22JAmnV6wzMj16XyZvwP+kZESAo9piQA6HP8cnQ4b46bL9puiDG08dKmvrG5YOX+S949hjrFmoEQoFFHPbFHQwAA5b76F5h4bvWW1yZtuR4cn9Vu4zLG4eQN3mL893iFhUsKPqYmAOhz8HxkKG8pq+dv8w5u5+u0XAi75f/cmPXXePRzkBF66jYDpwEQAED+HP6mHNff+OWCHwNSckszOmI0PIMSb3G2wbbscAtR1PibqgCgzz6f8BDOQu6ar8dnpXTkneLTCyLenb7jgonnFbhI+Av2bggA0HHj/wYhz0Tv9yvGOZ3yL66oLe6osSB/o7aLpX05T85jm04HhUkqPKYqAOiz0yP0Ok8ioNtgR01tQ1N9R9+roKw6Zciywz7kb1aaqAjIIfwTezgEAGi/8Z/Jc8rU9tLFyiFvyS7fgPpGbZ1chuLjObt5yvZncD4eECKp9JiyAKDPljPBwfQ0hZfxtfru0DW53o2IiYJZmzy8O1vYm6LIp6cck7GXQwCAthn+/yEcM7UNgXw9ZW8+ExSk07fo5DQQPiFJKTy958r9l65LKj6mLgDos+aoP0/hri0hCdm35Hw/siaqVx/x9+li6ZBpgkLgIOE32NshAMCjjf9ThART++InG/g1uQ2/Mf5a32OIEzdfTxZLDgZLKj/mIADoM3T5kUBexrmX9ZpUMp9b5H5H8jdrvt930ccETwRiCE9ij4cAAA82/lbGLFsmseg7W9oXLd93MYDY6CaljMLEtWe48frvP2Z9nO4+qWMhAOR59C0G/QvjNnCTaGfBdh/FxF5Ts65i3lYv704W9sUmJAKov8PX2OshAMB/Gv6fE9aZkHNf2fxt3v6N2uZ6JQ1CQkZhIS8+EtQ5rLy6vlJi8JiLAKBPZW1DVffBjtmczPWGzILyQiXft76xuWTSurPenUwn1TCN0nGgYc3Y+yEAYPwHrfo74appGP5V1ZOdXf1rG5pqlDYENClL/9EuXFSSI5tzXWxaQYbE6DEnAUCfm5lFGWSu1fAw9i+N3xSjxjtX1zXm26w87k1+s8ZEhMAlwl9hAyAAzNn4v0nIN4VSvMOWH/GvrGkoV8sIuJwI4CW7muHoxahIieFjbgKAPqf94yJ4iQzY4xWm2viXVtVlf7Fgny9vSZIQKggBANpm/GeZQojfANuN4ck5xelqbv5FFbV1nS3sufCVmLbeLYiFAWzSG6SC2mYpoaRR2nE1TXXP8S3+6dlBOXVSUmmjVFSnk3QtBtX7YM4WrwBOfF3KKmsb6tR897j0gqi+Ns6hJiACtAgVhAAwtxC/E6Iv3O6DHTPPXI0LY2H8Pp6zO5qHPnhr6rZwg0J2r6apRUokxt0/q1Y6k1Ql7Y4qk5yCi6UFl/MlW69cadjZ7H8zwSNL9axy072yau9ugzVhordG+tavQHIJKZEOxJZLXinVUlhevZRX0yzpFeqnd2fs4KIuxteL9ocyWAotB30jLnexMonQQYQKQgCYRSGfRNHv+Rft8PFr1um1LIy/9/WkNB764clhq9PqG7UNHX2fRp1BSitvkvyIoT9IjOaqa0W3DendxvVR8CAAHsVIt5zb4mVTeKnkmlwl3civlwpqdVJHBVSjtrmxl/VqHnxBDH5RaSks1oRWp6+Zut7tnAn4B9CrrF6wFRAApmj83xc8xK/ls3l7A0oq64olRk9DUzON+efBZ6IpNi0/vT3GPr648fYX/ZrrxdJ037zbX87DOogIAuBB2LjnSIuuFEi7Isukq0QE0WuNNkeDZBZm8lAkq+dQpywijPWs1kdBWU3Wu9N3XBG84BANFXwXNgMCwNTi+4Ut/vH0yHVxEcmaRInxM2uTBxcx4At3+LQqFWxZg066nlsn7Y8pv23khrt23GCamgC4H3beGmldSInkmVItpZQ1Sc2t8C9Ysts3kJO5Ecp6nQTHZ93oZb0mTuTiYAQL2A4IAFMw/pM4q2jWlvC2mh/2X/I3GKQW1ptacWVtQycL+zrWfdJvtEtsi+H+B9eFtTrpfHqNtCmsVJp6TiMpZSBNXQD81ymBW460/GqhdCyhQrpZ0kgTAt0vLNTQf4xLNPsrMvsqtR0C7+scYDA0L9juc8FYoldEEUD3TDvYEAgAkY3/MmG9+8dvDNUUV2kkTh7r749GcuD/UJNdWFFwp03U850e6R+MrZBmX8hXzeCbmwC4l7GeudL60JLbDpIVjT+duOcWV+ZTHxXW82S0/YnrvKybjPzyVCJawwU+DVgKWwIBIJrhf4ywRcj0vRb2pTvdQwIkjp60vLJKHkImN58Jul7eoJf8Mmsl55ASaYxHDjOjb84C4N7og8VXCqSTNyul1PImafPZYB6KBjUS8VzG0RJqWXc84DIRR6JmE9xM91TYFggAEYz/L0UN83tvxs7A8ur6Uomz58PZu2OY982Cw3H0Hp8HowcB8JC+8M6VPlx+lnmkzefz94bxto6KK2rzXp245ZqgIuA43VthYyAAeI/xvyhgtb5ct8CEEInDJzwpt4CDRC/FS67k63g0eBAA/83Ucxp916GrWRfRaUnIKMzlcU0dPB8ZQOZ0oYAigO6tv4OtgQDg0fj/lSDcXdtXC3/0q2vUVkucPi+N35jEuo+czt/K5tXYQQDcn6U+qczDRcnXdhSv66qqrrHsg1m7/AUUATdQQwACgDfj341wS6SFRL2VD52PDJU4fryCE5lnOPt62bHQezPvQQDwLwBGuOVIA384zbxUtH9U+i2e19huz7BLAlYapHttd9geCAAejH8/Qp5IC+gZm3XJWYUVhTxvTC0Gg/TUiLVZrB0i1wUXNfNs6CAAHgy9tqFjyHIO9bVxTpQ4f3KLK5P6DF8TIpgIoHtuf9ggCACWxv+NJwRTz2MdT0Y06xlUbmn7l0ky675acjLiJu9GDgLg4cw7FZ3Ceh4dvxwTw/t6MxgMdWRvOGEsziPKfkb33rdgiyAAWBj/Lwn1wjj6WTpUuV+7mSEJ8DRpdVL3IY5FTE9JRq9Poql6IQDEFgDjvXKlZ8dtZupHQlME61sMBhHWXkBMhkdnC3uRrjMbCF/DJkEAqGn8R4tUj/ul8ZsyNCVVjZIgz4ofL7FOY9ricCW7XAQDBwHwaL67mE3zSLSwnFMuJwLCRFl/9U3NSQPGbzwpkAige/E42CYIADWM/wyBim0Y5mz2TNfpW0TZe6Tq+iZ9Z0t7ptncvlp5JlqpvP0QAGz42sEjlnGobVGTVtcsifPUOx3xowl4SgUSAvNhoyAAlDT+40Qx/l2tHCrPh90qkQR7vttzgelG3dnSoXL+xTydSMYNAuDRzPDV6LtYOVaynFurj/hfF209JucUu3WxtI8SSARMg62CAFDC+A8WpajPS+M3pRaUVWtF22y0zXqp22BHpl8c045GpYtk2CAAWs+UYzFMo0q6D3HMeVAhKc59clIG2G50FeXUk17RwmZBAMhp/D8TxDvWMH2De4wATv73fTafCbrJNGRr/NYMXvL7QwAoUFXQPUd61m4709wSh85H3pDEfBrnbfU6IkhZcz3KCUMAyGX83xLB27+zpX3ZuZDkFEE3l9tx/72sV2uY1nL3zawUzahBALSNuT6ZVSzn2FMj1iZKAj9+UWmXOlvYi5D3hK6Jj2HDIAA6YvwHEKp4n+z9R7vEFpbVlIu8sZzyi01l2YcfLTkeYy2gQYMAaDsfLzvFNMrkYnhKvMhrtaSyLvOZketESHteR3gTtgwCoD3G/2lCCecTvMXW6dQV8vWslwR/+o12YSkAmpf75TUMgwAwCwHw7SVNE8vy0i+N3xgp+nrVt7Q0Wa84ekkAEUAdP1+ETYMAaIvx707Q8D65uw92TJ2+wc3vgG/E9YSMwlStTt8k4mbiH5XOtK8H2rvFiGrMIADaxzdOXvEs51xsWn66iGu1qVnXGJdWkLrPOzxksrPr1a5WDrkCiABaGfJp2DYIgNYY/78T0gStma3vNtgx6xW7zeE2K48HrD8RGBQYm3GzsrahiudN5bVJWxNY3hUuuZzXBAFgXgJg3gVNM0uHtg9n7eI6JLCytrE8MDYzzuVEwLURPxzzf3nCpnCyt2SLEgl1H3JRQAgC4FHG/0+EeEEn+KOcBEv6jXaJ/XrRj0FLd5+/5n4tITq7sKKQdVBSfHoB02uWwWt94kQ2ZBAA7Wfw+gsso050ucWV+ax9bzUlVTmewYnh3+0570/2hqvPjnKO7mxhX2yKe6Dxw+4fsHUQAPcz/r8jhJnoxH9oLu3e1mtS3p2xI3Sqi2vQjz43bsSm5Wc1aXU6NXagz+fvjWb57gsu5TVDAJinAJjpq9E9YWHfwGr+DVl2OFCNNabTtzQmZhUlHzofGTRjo/uV92bsDCRrnoqfGjPc7+gH3p9g8yAA7jb+jxP8zHAxPNTBsKuVQ37/MS5xn87dc52Kg61ng0P9otIS80qqSuWobZJTVFnNsqbCsA0X4kU3YhAAHWSLH7Oqk50GraqrrGmolMPIF1fUVgfHZ93a7RkWOnuz59UvFuwLfH7s+ohugx0zWTo8cgr90PsdbB8EADX+vyB4YFG0GW33IY7ZL4zbEP3Vwh+D5mzxDNzjFRZ6PSErqbSyrlUhiSNXHotgGSI054JGBwFg3gJgik+uvpOlQx2reTh9g9vV1qyV8up6Q+QtTcnRi1FJS3efjxi87HD4Pydujnly2OosIiQasR+1GX/CryEAzNv4P0Y4gsWgCPU9hzqlvTxh0w2LJQcDFu88F3D4QlRoVEpecnVdY2V2aa22k8UqZsevI7f6JZrEFywEQIcZseMasxDUzhb2RC9rG6pqG6X4jMLmswHx+Y6HriSNtj8R9870HTefHrE2m/w79dhPFMGLfgBCAJivANiORcDo+NPCoYHhpltLi8NAAEAAUOy8c1u6WDnWspqP3YauacKewIzjhJ9BAJif8Z+HyW+ejNoZmGwqxgsCQKY6AXtC0rE2zBZnCADzMv4fCRzPCjry9W/lUD31nKYFAgAC4G7GeeYYug1bU4M1YraMgAAwD+Pfg1CGCW+mVw+WDrqnx28veWHGj5rXF5/I+nClZ8ZXLpczBu8Izhq5PyJ33LH4QrvTyaUT3dKrJ3pkNkzwzG4e7Z7TYu3KtQBohAAw3ueTcbIlxnySd45umnd243SvzJpp7qnlk08nFo4/GqOx2RuWOXhLQNoXa3xT3lt2NvWfcw+l95u0K6fXqI3FnSzsdVgjZgu9khwAAWDaxv+3hFhMdtAeug5ZIz1ps6H+GbudpS/OPJD3xrensj609878av2VrME7rmePPBCZN+5YQtGEM7fK7dzSa+yogCBf57Ye2c1jPbL1o4iQGOGKE4C7ocKK9MvtL3A7r1w9NdxTvXO0t423d1bddK+M6tYa8K5DVsNZDnQEmunwrxAApisATmKSA+ZY2EudBztJXYetlbqPcGl+cvTGuqdst1X0nbSr+PnpP+a/NPtQ7msLT2S/tfRM1vs/eGR+4uSb8aXzpcxvNl3NHLw9KMt6d2gOPa0Yczgmj55YDN0dqno+9qHbAtPGH43VjD0YmU2NsvXO4AyrzVfTBrpcSv3c6VzKRz94pLyz9HTq6wuOpb08+2DG81P2ZD1rtyO3z5hNhT1HupR1Hbq6tpOlgxbzAXAYHvgLCADTM/6LMLkBAAA8gk0QAKZl/D+lme0wsQEAALSCMRAApmH8exEqMKEBAAC0EupY+woEgNjG/38ICZjMAAAA2oiG8DcIAHEFwBlMYgAAAO3kGuGXEADiGf+lmLwAAAA6yHYIALGM/5dw+gMAACATEyAAxDD+fQiVmLAAAABkguaseB0CgG/j/3tCIiYrAAAAmcknPAEBwKfxf4zgjkkKAABAIUIIv4IAgNMfAAAA82M3BABfxn8AoZmjCdI8bPmRwFcmbA7rauVAY0kNWDQAANBqDJ0s7DP7j3EJ+HrRfl/O9neKBQQAH8b/cd6S/aw7HhAh3fXU1DfVBERnxDscunJt4OL9156xWRffyWIVao8DAMCgVWW9rFeHfTJnj8+yvRc8r0Sm+ZE9M41snS139lD7g1cCOGtzMeH/IADYC4C1PE2MIcsOh0utfLIKKwpP+sVGztzoce2dadvDegx1yiR/Q48NAQBggjR2tXKIe3XilgtTnF3dj1+O8dWUVEWRrbCuNfsl+XjiTQS4QgCwNf5v8RTv/+K4DQk6fYtB6sDTpNXpbiTlZmw+ExQ2/IejwS+M2xDbxdK+HJsHAECc4/tVmf1GufiRDyL3TaeDPGLT8q/pW1ryOrI3kr1V12+0SzRn7zoKAoBdnv90XiZC9yGOmvLq+npJoaeoorbG+3pS4pJdvqGfztsb1mf42jTyu03YbAAADCl9ctjq6x/N3u25dPd518sRqRdrG7SJZMtqVmIfJHtsebfBjrkcvT/NOdMZAkB9AbCDl0nQycK+LiGjMF9S+SGKWLqZWVS8zyc8ZsKa06GvTdoSQxZHITYlAIDcx/ddLB1iX7Hb7Dtx7Zmzxy5Fe+UWV4aRbahS7X0vLr0grdOgVXUc9c0FCAB1jf+nPB13nfaPS5Q4emrqm/RRt/LyDvpGxM3b6hX2xYJ94f3HuCR2tXIoxUYGAHgATZ0t7JP72jhf/Xz+Xs8F231cT/nFeqdpSq+3tBhyyNZi4GWPIwLkBmfRVVMgANQx/n984l9lGrkY+AXbvCMkgZ66Rq0+Ji1fc+RCVAxZ4NcHrjgZ/fqCoxm9bNaXIFwRANNPadtt6Jr0V2YfiPpiyZGLC7f7uJ+8EuubqikNJUY+jycj/6hn5kaPQI76lZ5IPAkBoLwAOMzLoH80e3e0JPBTWq+TppzTSMPOZt9mtHuONN0np3mGR1rlhKMxGsuNV9LeXHg8rffojYVPoLgSAKLQ3N16bcY/5xyM+cblYvSEw1HJsz3T8uecz621885tubPeF10pkBqaW0TewqR3pm0P5ajfgwg/gwBQzvhb8jLYT49cl9ao1elFXTg12hZp7sX8fxv/RzGKiIOpt8VBOhEHsRqrzf5pb317MvWpsVsKnrCwR+giAOqi6zHcOfPVuYdjB7lcjJ1wODpllmdawSzf3LrxXj8Z+UexMrBIam4xCCsAGrXNjb2Hr7nF0bgsgABQxvj/jVDCwyB3sXIo1ZRUVYu6aJr0Buk7/8JWG/9HMdItR5rindM83TOj8q3FJ1CMCQAFeHPxyZszPdOKZp7LrR/nmWuQa/1uCC2RDOJqACm3uLK4s6V9CSfjRCOznoUAkF8AuPNyhxYcn5Uj6mIhtl9aHVwsm/G/l5dn7r+JzRoA+Xl94YkUpdbtvphyoa8CAmMykp/4V8leHsYqkvALCAD5jP8YXhbhdreQBJEXyvaIMsWM/wSv3BaOFiEAJkVnK0etjVuOQan1ezapSmgRsPH0tTCOxusHCAB5jH8XQhUPgzrW4WSUyAvkWEKFYsafMsM9tYBJBsZpe7M+W3M+751lZ/MGzD5U/IzdjqoeI9frOg92guEAHaW+k6VDbi+b9been7In7u3Fx6O+cPSOep7MORbtmeKeVq7kGr6cWSu0CBi+4uh1Xnw0CC9DAHTM+D9GuMTDgPYf7ZKiF9hZ5lxajaLGn/LVWt94JqGY5zJLH+yfkC3ZemS3TPTI0k5yS6uzO51cOfZIbMnwvWEFgzZd1Xzi6JP75ren8l6Ysb/4qXHbarpbO+s7WdjD8Jmg0xwZ16KeI5zT+03amfD6/CMxn6z0iLbaeCVm9L7Qm5OOx6bOcE3Ome2VUTTHN7tylq+mYeo5jW6sx/3v2ie4ptWyeI9BG/1vKbmGh7tmS+H59cLuc2SPNvS1WceLHxJtx68hANovAKbxkukvI7+8UtRFcT23TrJW2PjTjaPH8HX56h+LOpTK6RB1V0ikwc4zWz/JI7Nxsltajd2pxPIxh6KLhu0KyRu4/krOR6u8cl5beFzz3NS9Rb3HbKruMcJZ23XIGol8LcLYKuh/Q08DO1s5FvWwXpfdd8L2pH/OORT3wfeuNNwtdsSu4ITxR6JTpp5JzJrpmVY4+1x2xUzf3Pop5zTNdI7IuQasyXzvZr1O9eiXPmM3Fygt5G3cc6Sk0kZhRUB6XllhJwtuMgW6QAC0z/h3eoKTdI/bXK8Le+8fX9x420tf6U1j5rkcJmP16Ur3aKXfrT3GgYZNjvPIMUzwzNFP9MrWTfbK1k7xzGyY6pFRO8UtrXqya0rFpNNJpXYnEoptj8YWjDkYqRm5Nyxn2I7gLMvNVzO+dr6U8ZmTT/oHK9zT3156Ov3V+UczBsw8kNV/8u7cp8dvy+81amNp9+HOlV2GrG4gApVFAic9McS13YatLes5cn1B77Fbsvva7Uh7ftq+Wy/POZz4+qITN99d5hr/sb1X/Bdrz8d/s9EvYci2wMQRu0OSR++PSLE9EpNmdyI+c/LppJypril50z3SimZ4ZpTO8M6qmOGTXTPdJ6duqk9u42Sf3GY7r1w9MeAt9P7bmqNxfu8HjzwWc36iV06T0u9G+lvKqdKK6w9w6lo4JwKA+kW9DgHQdgFwiIcBfG/GzhhRF0FGhVYa65GrymZoezAyjcX4zHK/peFNAKjNePdM1ZM0rbpWlGfu/T7uRGIFizk/7khsthrvN9lHI5XU64QVAW9O2XaDExFA2/EYBEDrjf+rPKSl7WrlUFJeXS/kWVhhrU6a6K1RbTN8ZfYBFvdujZO8NS0QAOoLAMeg4hJz73cbt2xDZytH1felNxafvKXWO86+kC/VNImZLZDs3dVdLB2KOREBYyAAWi8AQngo8nMuNDlNxIlfp22RZp7PU20jZBX+9/r8w3HmboQgANjyyvyjxer7vTg2KhkOeC9L/QuFzRboFZwYx0mNE+of9T8QAI82/iN5UGw2K4/fEHHC02W6RsFEPw8I/2NSgnjyibgMGCEIAKanAAejmWSgm+KeXq7me+6JFjdR0NDlR4I4OQVwgAB4uPH/LSGX9UD1tl6T0aTVCXnu5ZZcpfomOHDdhQQWJzTTfTVaGCEIAJaMdc9mUgfDYvPVZLXfNSinTkgBQPZy7ZPDVqdxIAAaCd0hAB4sAFbwkMs5Lq0gT8SJnlDSeDscT22P9x4jnFUvz9zPbkcyDBAEAA88O2l3jerhgOO2qu78OtojR9JUNwspAmJS89OMefpZ25dTEAAPzvhXz3qAlu29IOTRf0WjXlWnv7vC/5iM2eh9YbdgfCAAeGDwjmAmV2ATvXJUPwGjFUQbdWL6Ayzace4aJ1cBb0MA/LcAOMZ6YAbYbowXsSoWLfCz/Gohk83P9lAUm/C/czm1MD4QADwwwT2TSf0L22Nx2Szed1N4qZACgOzthufGrI/mQABEEX4GAfCT8X+DeaENC/uq/NLqChEn9qG4CnZe0HMOqn7//+RIF421KwwPBAA/PDl6o+oi4M0lp5JYve+F9BohRUBeSVVhJwv7Sg5EgC0EwE/5/plnbTp0PjJWxAkdllfPzvDQ8D8Le9Xv1Sw3+d2E0YEA4InP111UvRBW58FO9SNVDAf8zxobOVJ6hZiZAvd5h/MQZk6vjX4PATBo1WjWg/HZvL3hIk7kgtpmaaxnLrNNb6ZHahGL8ZrhlVkOowMBwNU1wNlUJr4wUzwymK2F6b55Uq1WzCRBH8zaxUNo4GqzFgA0MYIxQQLLbH+FtQ1NDcKFtugN0oLL+Uw3vW9cLqp+/N91yOoqNWobQABAALS1GFbXoWtUTzhjuSUgieV705wjIroE1tY30SyBBYwFAD097WnOAsCetQo74BsRLaKC3RZRyrzgTU8G4X8f23vh+B8CgEveXuaqelbAp2y3ZbN+b5p7RMRnj1fYdQ5OAc6apQCgCRGMiRGYdf4LYzfEizhxL2fWMt/sWIX/TXW9VQhjAwHAZXGg4zerWKwJOwbhgPeeftwsEbN8cL/RLjxEBbxnjgLgFONO18VnFGpEm7C0wp8NB0fg4w9Hpas9Zp0sHLRjPXJaYGwgAHhklFu2oZOlg+p72fjj8cxPAWgOEpqLRLQnLq0gldoCxrYohlVYICvj/zZr1TV8xdEQ0SYrLcgx52I+F5vdP+ceuql68Z+Fx5H9DwKAawbMPqR6iNlbS89wcS3mFFQs5CmA1XeHAjg4BbAzCwFgDPuLZNnZXSzty6rrGoVz/Dt5s5KLTc7WM9fAIvyPfOnkwMhAAPDMyP2R5arvZ4Od6liFA95LoID1AogtqOpsYV/KWABQ/5H/NQcB8A1rtbXlbHCEaJM0p0orjeAk+c0sr3QmFdAmeOXoYGQgAHjG1iOrhYlvjGdmJRfhkF65UnWTeFcB608G8pAmeKU5CIBQlp3c18Y5SbR0v7QU97d+Bfzcde4NTVZ73PpP2YvSvxAAQvDMhB0NqtfGOBCVxsv7i5gqmKYJfmrE2gTGAqCC8DuTFQDU25FxB7fcSM7NFG1yeqVUc7XBvbHwaLzaYzd4exCK/0AACMGXzpdUP05+d7lrAk99EFUg3A2rFJaYk0htBGMbNd+UBcAFlp07cPH+UNEmZVGdThrlzk/imxFuOVIXK0fV7zknu6XB4EAAiHENcDKxVu3x6DHSpYinPph6TiM1NIuXJfDz+ftYXwXQxHiPm5wAIC81gHWxn7KqeuEqWKwKLOJqc5t5LreBxfiN88jRw7hAAIjAWPdsAyMfmWae+mFfdLlwAqCsqq6cg2JBk0xRADCN+3c87Bcm2mT0y6rlbnObdiYpV+2xe3r8dnj/QwAIRa8xm1WPLZ/smsJVkixrQnJpk3Ai4If9l1iHBdIcKz83GQFAXqY3y7uV3sPXpOlbxHL9o0k1bBkW+nkQg9ZfUv3+/0vni0kwKhAAIvHBSk/V/QCstgZylydj9oV8qVkvltc1sRX6J4etvsVYBAw3JQGwh2VnBkRnpIqmQl1CS7jc2PpN3KH6wph4KikfRgUCQCRGH45RPS3wgJkHUnjsi+MJlcKdAvhFpsUyFgCxJiEAyIs8Yax6xKQjP5q9W7hSv+F59Xw6N9EEQINWac0t1zkEAARA28ckS6+6n5OVY+MIV/4qZdL8JVmVWuFEwHszdgQzFgFfmoIAcGbVgZ0sVtUXltcIJT/rmlukST4aLje12T5Zlep7N6+HoYEAEJLuw51Vdwac4pVdx2Nf0DwmLYLlXykoqykifVrHUAAECS0AyAv8kVDDqgPHOJwULt//zsgyfg3Noag0tcfw/RUeuP+HABCS1xefVD1c1vZYXDav/eGZUi3cKcDIlcdYOwS+I7IAWMbs63/QqoaSyjqhZlxSaSPfjk3Lz6ruADjuSGw2jAkEgIgM3xuuugD4xPEct4KZ5jMprtMJJQBKKmvLSL/WMxQAvkIKANLw3xBKWHXcyB+OCZf0Z6l/IbebmfXtI811GtVDmzg90oQAgAB4FHZu6ar7y/QZt0XDc59suSFemuChy4+wTg70oogCYCbDDmssLK+pEmmShXHq+Pfv+P9zuc2qVzkbsrpuuCsMCQSAoCcAZO52Geyk+v431iOnhecPCdEcAgvKauiHbCNDe3ZSKAFAGvwLQjarDiOKTaivf+ocM+diPteb2Uz31AK1x/G1BceTYUggAETmhZkHVE8LPMU9vYznPnEKKhbuFMBy6UGWpwB0ffcWSQCMYdhZ2rySqgqRJteVzFruNzLr7dcS1R7LEfvC02BEIABExnJLYJnaYzN8Tyj36yaxpFEoAaApqSpiEQJ9F3uEEACkoY8REll1FFFqQqX81eoN0mROw/7u5qWZ+2+qXuPcI6MSRgQCQGQmnElRvXbG64tOcF85k/o7ifZ8vWg/y7wAVHx0EkEADGLYSbrswgqhvv7db1Vxv4lR791Olg6qhnN2srDXkd81wIhAAIiMjVs2ncuqjk3XoWtqrAXoG+r3JNKTVVhRSG0MQ/u2XgQBEMSqg4hCuyFU0h9tC5f5/u9l1rkc1e8xn5+2D8f/EAAmwTN2O1V3IJvoldPEe79QvyfBygRIn8/fe52hAKD78J+5FQCkcc8w7Bx9el6ZUDEmR+MrhNjAJp+Iz1K9sMmWQDgAQgCYBJ+vu6h6OLTdqUQh6mdQ/yeRnjRNaT61NQzt3GyeBcBaVh1DlFmESBOprEEv2bjnCLGBfeHko3oCoMmuqcUwHhAApoDtiZuqn6B97XJZCAFN/Z+0gh0DfDxndyhDARDDpQCg9YsJBazCJFJyS0pEmkQ8p/y9lz5jNqWrntLUM0cP4wEBYAqMdc9WvSZAv8m7s0TpH+oHJdKTnFOiYVneXs7EQHIKgK8ZVvyLEmkC5dU0S6IkuJnonatXe7L3GbdVA8MBAWBK9Bq9Ua+yE22LKE601A+qVtsilAh4b8bOMIYCYBOPAsCVUWcYbmYWCpVZwjmkRJiNa5ZXRqnq1zlrzifCaEAAmBLv/+Ch+jqa4plZLUr/HIkXKnhLis8ozKW2h5HNo3Ppl9wIANKYvxKaWXQGUWIxIk2clLImoTau0fvCbqnuwHQyEScAEAAmxehD0VVqj9HoA1HCXANQfyjqFyXS8/a07REMTwEseRIAc1h1xMoDl25cCE+JFYU1l9Pz55/LrBSFATN+TFJ7TMefuJlNvl4qQesYfSRO9apz81wTs6d4pGtB6yACQPW68q8vOpFh55mlE4W1VzKr/KPSc0XB6bBfAkMB4MWTAIhjXC0JAAAAMBdoQqK/MxcApBEvYzAAAAAAVZnHgwDYhoEAAAAAVCWBqQAgDXicUIGBAAAAAFTnZZYCwBoDAAAAADBhG0sBcBEDAAAAADCBRgA9rroAID/alXE6RAAAAMDcGcpCACxDxwMAAABMOaeqACA/+BghHR0PAAAAMIXWmXhCTQHwHjodAAAA4IJFagqAg+hwAAAAgAuSVBEA5Id+T6hDhwMAAADc8JoaAgBf/wAAAABfHFdUANB7BnQyAAAAwCUzFBEA5A9/g7h/AAAAgFtolcCPZRUA5A8+R6hF5wIAAABcU0l4ShYBQP7Q3wjZ6FQAAABACFIIf+yQAHjiX9X+gtGZAAAAgFBcIvy8IwJgMzoRAAAAEJJN7RIA5D982uhQgE4EAAAAxMNAGNAeAeCBzgMAAACE5nKbBAD5D95BpwEAAAAmwaetEgBP/KvSXzg6DAAAADAJYqhtb40AsEZnAQAAACbFqIcKAPIv/IqQiY4CAAAATAqaz+fxhwmAWegkAAAAwCSZ/zABEIkOAgAAAEyS9PsKAPJ/dEPnAAAAACZNv/sJAK6O/7tYrKz4YvK0sG+/twrfs/GDuPM/DsjwP/R8LgAAAMAr1Fbt3vBBHLVdn02afqOzxcpKzgTAd/cTAFd5aNwbY+fFkE7M0gf8ryQF/h4AAAAQFt3VP0iXD7yY9ero+fGcCIAb/yEAyD/4K0HPslG9hy5LJ4Y/AxMGAACAKXJx/4upTw5ZnsFYAND0wJ3vFgC2LBv0wYSZUQ1X/qzDBAEAAGDK1F/5s/Zd29msHe6n3i0AvFg1ZNy8MTcwKQAAAJgTY+aODWEoAC7cFgDkf/yW0MiiEW+OnRtrwEQAAABgZlDb99a4uTcYCQAt4fdUAPRn0YDuVis0NZf/qsVEAAAAYI40XPlzY4/B37PKvvsqFQCfsvjxw1vfjscEAAAAYM6c2PFmFCMBYMHEAbCv9dJkDDwAAADwe+lZ6yU3WTgCUgGwTO0f3ubycTgGHQAAAPi9tN3lo1AGAmAVFQA7Vf5RffmFv9Vi0AEAAIDfSxUX/lbNIBfPXtVDAPtaL72JAQcAAAB+4hnrpQkqCwAf1SsAfmw3IxiDDQAAAPwEtY0qC4AoKgAK1fzR8fNHB2CwAQAAgJ+gtlFlAVBABUCLmj/6w6pvAjHYAAAAwE9Q26i2P97/U9vz0MHh62sYbAAAAOAnqG1U2x5DAAAAAAAQABAAAAAAAAQABAAAAAAAAQABAAAAAEAAQAAAAAAAEAAQAAAAAAAEAAQAAAAAAAEAAQAAAABAAGDAAQAAAAgAAAAAAAIAAgAAAACAAIAA4IH9m9+TFi0fLCu33Hqq+g6hx/rK2v6gI/1UbX/s6T6yj4HLms/+4zeSXJ8k/+xzWXHb/aqq/aQP+F9p/drPZGv/ie1vqr7etjh/Ivs4FPn+454N9yvZ51PJ+X+o2k90bsnZ/hyvLqq2//yPL8k+Bmd2vg4BAAEgL3s2vi97X9jbf63qO0xaaCNr+8fOG6Nq+xcsGyL7GCxfOeg/fqPw3BNSJ5l/o6/1Ukl39Q+q9RMVZnK2v+fg76X6K39Wrf3xZ3rLPs7PWi/5rzGYtcRa9t85uOUdVdfEm+Pmytr+zes+UbX9X06eKvsYuKssuCEAzEAAKGEY3hg7T7X2N/n9Seo1ZLms7e9BDEPdlb+o0v4W8lX73IhvZZ+PESee+a/fspg2SfbfuXakv2pjveR7S9nb7733FdXav9rpS9nbT8Xjvb9z5eALsv/O0JkTVOunZNeesrf/s0nTVWt/vk8n2ffUniruSRAAZuYDMEgBw5B4tpcqbb+wf4Ai4+mlkmEIOfas7G1/ZdQCyXDf6553Zf+tb7+3UqWf6Pu8aLNI9vZPXTxCtXX2ju0c2dsfdB8B1nz1D7dPZ+T8na6WP0iVF/9PlX6i11dKrOlcb3WuAfZtek/2tk9caAMfAAgA5fwA5O4P59Wfq9J2JY47KVMWjVSl/ct+sJC97StXDbzvb9F73C4WK2X9rRdHLr6v2JAbeqKhxDg/NXSZ1Oz/R8Xbn+LWQ/a205Mj6hdxv9+b991Q2X/v5I43VFkTH9rNVGSsd2/4QJX2W02fKPRJFQSAmQmAYt9/SJ1lNgzvj5+leLvpl87Tw75TZDz7EMOgVdgwUMP50qiFsrc95lSfB/7m0Jl2qlw3yA0VNUqtXXpkrnT7N677VNXTl8DDz8n+e2PmjlW8n7I8uyk2zt9Mnax4+8su/F12kU2vOBv9/gQBAAGgHENmyG8Y0j26K9rmq4eeV3RMLx9Q1jBEnXxK9ja/Pubh/hdHtr4t+2/+sOobxefna2PmKzbOc8nXstLt/9huhuztptdHD/o96hjYb/gSWX+vu9UKxe+ht7l8rNg404+ceyMm5ObYtreEPY2EADBjAXBYAcNAQ56UbPPC5YMVHVOlDYO9w9eyt9nR8auH/mb5hb/dvs+V8zepcVaynxLO9FJ0nKmhfNBRuhxke3WVvc306qXlEW1epMD68NzzT+G859WMZhg521b2NtOQQggACABFUcIwKOl5q5T3/L0hVkoaBhotIXebb7bC+XKEApsUNdJK9dMaBbzn7yX4qHK5H3as/1D29lLfkUf9Ln0nuX93soLOaEp4z6sZzVB96a9SN6sVsvuoaFXwUYEAQCZAafis8bL3i8a7s2LJf9QYV6UMQ9LZJ2Vv61vj5rbqt0/ueFP2317r9IVQ3vP3snSFhWLt/3rKFCZ+F1QkvzBysay/23vIstuht6J4z98vmqHi4t8Uab/rrtdkb+/MJdbIBAgBoA40M5oonrdKeM+raRholITcbV23unVGuOri/8n+pfLe+NmK9FOqew9VxnmAzSJFohmUyLPx8qiFrW4rnb9y99WlAy8qMtaW0yepMtZUACvR/gkLRgnnhwQBAAHwn4ZB5msAmmNACe/5lxXwnlfTMHwwYZbsbW1LCubRc8fJ/vtp7vI7fSrhPf8gIk8+LUSIbVucLsOOy39SNmfpMNn7qfT832WPRFIzmqHB78/Sk4PlTUhGI5yaBT/+hwAQjFFz5DUMdFEXy+x5G33qKVXHlnrry9n+DA/5Q53a+gVO84rL3QYl0q1+MnGGauOsRAprJaJr6Pxvi1geIHMCJSVSQCsRnfKwaIbay/JGM5zb97ICQmuoZAo2BQJAIE4rYBgObX1H5gn1lapjS7315Wz/Vmf5Q51okZy2tKGGbIDdZb4GkNvpkxZwUXOc5U5hTR1r5Y4Jb0/ExfcrB3GfAloJx9SH4SFzNMP0b4fL3kYa5gwBAAGgKkoYhmEye96+MXauyoZhrqzt/3zSNC5yLtjOH8210+fODR9Kaq9j6pwpV/uPK+BTQ8VvW9tBrzZ4TgF923te5qtHNVPr0mN6uROS3a/IEwQABIAqjJs3hts84kp4z7fKMLjKYxjyfDrL3raP7Ga0qy30K0juttDqkjx7zz8KWl5XrvbbzJH/q5ZWFGyPz8w/Ry/gNgW0EqeOambX81cgIRnNcWIq9gQCQDBo2Ule84jTDZqFAKAFSngtv9zehEu0FK7cjktyOX0WKeA93xqocyavMeEdOYlaZS9/KmW5UkDL/cGhdoIdJcp5B6lYZRMCAALgP6DpPmn5SR49b5Xwnm8NtEAJr5UXaaa59rZn0kIb2Z0+adGhjnvPv8tknCmZHt24jAmnCZHa257Y0324TAFNRWgPmfea1jLj2+GyJCTrP1zehGQPK/IEAQABoAoTZTYMcnjeZnp0Y2YUKLRQCW9Fl6g/QUfa5KOA9zJNK82j93xrofnoO9r+8Qr4V3T0GorWieAtBTQtu81qnG+H2XXwnl2Jct5LvreUTMmWQAAIiLcCC7OjnrdKeM+3he3rP+pQ+2k0hNxtomlmO9Imeg9Ks7vJ2SaaUZI37/m2QPPR8xYT/q5txxMtOTnKn1K5oymgJy8ayXRN+3fQ016JhGQ0yykEAAQAU6hhoI4ycvbRpA563n4xeRrTzYI6pXWk/dYyp1qmd+TUqbCjYz1t8QhZ20U9uqs64PSphPd8W/u1wKcTV6cqcjgn0joRPKWApjnuadltlmNN7+870qdyJyR70WbRI4s8QQBAAKjCVJkNQ0c8b5Xwnm+PYaCpXdvTfhoFIXexpY4Kkjtc2D9A9r6int28JKNqDzQvPS+CikJTIssx1rReBC8poGlKYdbjTO/v23vfHnNKfr+K1hR5ggCAAFAF6iUrdz9RY8OL93x7oM5p7Wn/qZ1vcBtyp1Ugjpl6drc3D4Xc3vPtwWr6xHbHhD8l81fthxNmyramab0IXlJAz14yjIs1Te/x29N+Wnqb18gKCAAIAFkMg9ybWXurW1lMm8TFZkGd09rTfhoFwctpxP2YRcZFzvbRKBLq4d3WdrgpEILaHqgPQtmFv7e5/VcOviB7WzbJmGKZ1ovgIQU0TXJDUwrzMNbftfOr+02ZT1PaUuQJAgACQBVmymwY2uN5S8PKOjN0CrvXMLS1nGitAtkVLWQusqSE4aKOpDxUVGsvx7a91eb2z/1uKJdhiXfz/nh5Q2nbkwI68PBz3IzzS+0wvMmu8guplasGShIEAAQAT9BylKxzXB9WsVBIa6Blk9vSfk8FMu619yrigUfXCnyRUR8S1t7zHYFm8mtL++ldMk3hKmcbaDEkudc0rRvBOgX04uVWXK3pthb8UqIP21LkCQIAAkAVqGF4RmbD0FbPW7m95zsKLaXLMtlOF5mS7dzLPJm/Xun1kbYN5UyVqKjWoWgGqxW3M/q1tv1BR/pxmZPgXmjdCJb+KNTL/YWRi7ka67ZWgqTpt3nLqQABAAGgCHIfa9JMV60NdalSwHtezaRGTQqEUw6daafIOCtxLEtPkFh6z3cUmtGvte2nCVzk/n1aEVGJsZbbgLXlSir8eF/uxrktlSCzPLtyUeQJAgACQBUCFDAMrfW8VcJ7Xs2kRkqE2B2RIdPeg46w5U5rSsUjK+95OaA+Ca0tuENjuHlKSPQwaP0IVimglShPLAeJZ1uX1IgmBOMtoRIEAASAYlCP3X7D5b3bbG2861hGhULkSmokt3c9PQ2hmfKUGmu572bpvGlNnLUSTohyQH0SqG/Co9pPw7fk/m1aDlmpcVbiK7a1KaBfGbWAy7F2Xt26ZEtyV6mk0QSmajsgAEyERcsHq+55S4sSsSoU8iho+tymRyQ1ov4TcsfXj5htq+g4Xz8qf27z4KP9VPc/kBPfVlSNox7ccod55ncgG2FroN77aqeAVqIokVzQ6IhHtb9QgSqVHSnyBAEAAaAKdBNX2/NWCe95Obn4iKRGVxWoE35yx5uKjrMSDlpLV1g+8upB7hMmOZneiqpx1IlLzt8cOHWy4mta7qNsmgL6UU6TSiTPkRPqIKl2lcqOFnmCAIAAUBxqGJ4fIa9hsHd4uOftZJm95+WGZjJ7WPsXynxqQr3SO5Jjv7UsXSFvgZMBNoseetqjhLhUM3cFvb/lKRVxa6Ghe3K3+8wjUkDLnYpYbqhvxMPaTx1weSvyBAEAAaAK9EtOXs/buQ/1npe7Sp3cKWZp3LzuAYaBCiYa7cAy/LC9KOGlHXnyadXmFXVIkztx1MOqxtEjXLnbXyRjlkc177MflgJaieQ5cq/phyU1ognA5K5S6bLmMwgACAAxCFPAMCSdvf/x10UFvOeVKCd87Uj/+7aflvRU++tKLujX+ksyVzl7UJy1Et7zltMnyZ46+mG5K+hXnNztV2tNy11j42EpoOVOnkONMU2TrFZSoxMKVKlsbx0FCAAIANWhm/UAmTfrB3nezlIiBbH/H2XfrL/93kqVOuE090BNK3MPyMGKVd+oEmdNTwbkXosHt7wj7d/8niq5K2iVPrnbf2DLu6qNsxJObQ9KAf2h3UzZ82HQr3K584Ts3vDBfdtPT+B4LfIEAQABoApyx/B+MGGWKtkH5yz9Vzw6rasu5999ceTi/7rfNihQJ9x2/mhVx5k6aKoRZy239zz9Kiw9/3epyFf++hH3y12xcd2nirRfzbEeJPNpyf1SQCsRdngnHwaNjJHz7w66T1IjJep5yFnkCQIAAkAVlPhiy7in2IkSiYfu1B9Q4ovt3hKeNKc3q8RDcvLq6PmKn/bI7T1vfVcoGj1KVzp3Bc3VL+9X7QTVx1nu05L7pYDe7iJvxAH96r9TlItGxsjtg1Hs+59JjTwUiEjK8uwGAQABIB7/HC1vIg96N69kzgFaoOVuZz166qBkFS+a1lPuZDTtKa3bUWiUhpKnPUp4zx+/q1CT3IaNnurc3X6aplfu9h9tRwXCjlKswGnJvSmgv5oyVbF8GDQyppvM1wCHtr7zH+2fKHNE0qcTp0vmYi8gAEwM6tAlZ999PmmaouGGNBzv7vZvWCvvse3rY/7zfptGN7DIOig38Wd6y75O7i5tu9bpC9nj0O8Ok1TCsMWc6vPvv08z9Sn1Vas2Q2bIG952dwroAp9OsvsZ3JsPY9Qcee/nh911EqNEPQ96IgIBAAEgJHGn5TcMeT6dFfOep1XalK6GdtN4v02jGuT+2z77XmY21nKLmbur28ntkHm/MEmr6RNl/Q2ayEapEDqlszw+DPrFq1QKaJrTQOkqjad3vi67GKs0ikkl6nnkeneBAIAAEBfq1S1n/90pJ7pcZidDeppwv1z0cldDW7f6C0WcDGkuhMZHpBxWErlj3L+Y/K/THhr+pEaYpNyZ294y5m0vUsB7Xuksjw+j7MLfZY9xv5MCWm4Rdj+hRwWB3DkBTu54Q5GIJCWLPEEAQACowmqZDcMdz1u5vedpidb7tX+zzPHDd/KIy+1fMO0+HtVqIveJxp0c93LHb9OaEfcLk1TiGoAmtJFbWNzvq1ZtqAOlvCmgLW5HNMjd/w/KhzFm7lhZf4f+PSUiknY9IMwQAgACQBhoSJfcnreXDrwo+7jQK4X7V0PrJvtvKdH+C4+oN6AG79jOkT3NLXWCkvNvjn9ImKTcX6A0oY3cKWGpsWE9zsdlTnRDc4bQCoFq5cM4u+s12X+LXr+JVuQJAgACQBXeHievYZD7659mmGt5SClauY2Q3O2nyYvuDadigdzXGkrkg/d8SJgkTawjd1KjLip91apJpQLe9Grmw6Cx+nJXD5W7/d+oUOQJAgACQBVoXDfPhT2oP8HD2k8d0nhuP7175GGclcidICfUQ7vB78FhkiXn5b8GEDnL48OwmWPL9Vg/Kh8GFQg8t1+NIk8QABAAqpDixrdheFgBGqXiuOXkysEXuBlrmraU136avGjkI9s/eMZEbtuvdpbHh3Fq5xvc9lNr8mG4736V2/bfLvJ0T4IhCAAIAKGR2+lNLl4ZteChJWjvQHMQ8Nh+WmnwYSVo1UaJoitycf7Hlx7ZflofQNSvWjVRwptezXwYdVf+crsgEY/tp74o5mgjIABMGLlzocvFKvuBrWr/jvUfctn+eXclUuEBJZwmlUo7+6BrgC4cXgM8rHoeK8bOG8PlWLc2H4bdglFctp+KUAgACACTgmZ243Gx3Z2x7WHQ0p88tj/w8HPcjbXcTpNq+0nIne1ODiYyyvL4MFxl9qZXOx+G595XuGs/iyJPEAAQAKogd0EUuVPzPgq585R3lP7Dv71v8iLWyF3QRW0/Cbmz3cnBg0rnskQJb3olKgw+COoQSv0FeGo/iyJPEAAQAKrAmzf93elaWwOt/81T+xcvt+JynGn6UpH9JOgXGE/XAKyzPD6MCZwdo7c1H8ZkmYv3iFjkCQIAAkAVePOmv3mfuvMPI1+BYiUd4frRZ7kda55OS+YvG9Lm9sudwEetr1q14ekYvT35MORO4CNqkScIAAgAVaA53nlYbHdytbeVgVMnc9H+F0YufmjyItbs4ui05NqR/syL3oie5VGEY/T25MOgJyv0hIWH9o9kWOQJAgACQBXkLo3a0aI8bWXvxve5aD/Nn87zOBdwclry3Ij2+UkoUfRGyegFlvByjN7efBhTFo3kov0sizxBAEAAqAIvx+i33Hq2q/1KVHdrD+HH+3I/1t9wcFryoCJPrbsGmMC8/TM5yfL4MM5xcIz+TAfyYdD8EKzbz0ORJwgACABVYH2MfqciX3uxmDaJaftfGrWwVcmLWPOjzPXd5Szy1BrkLlDTHi4feIH7cW7y+5PUZyjbY/SO5MPgof08FHmCAIAAUIV9jA0DrdLWkfbv38y2/StWfSPEOCtRYretVeY6IpRYXwM8w1mWx4cx/dvhTNdEQAfzYbBuP61QCAEAAWAWFDE2DOke3YU2bFEnnxJmrFnm1v/+EUWeeL8GmLN0qDDjrESJ69bSb/gSSddBoXRx/wBm7ae5FGo5KfIEAQABoApy115vLR/ZzRDasL06er5Q48zSm14OoXSE4TXA1UPPCzPOzf5/vB2Gx6KfFi0f3OH2axm2n6ciTxAAEACqwKroyhbnT4Ruv73D10KNM6tjdLmEUvmFvzFpvxxftWoze8kwJmsi+Gg/WdpPwwjNvcgTBAAEgCqwyraW7dVV6PbHn+kt3Fhbzxovqb/OvpKt/cMYXAMslOGrVm38Dj4vdD4M6nDJY+liCAAIAJNE7Y2VlvSVs/1q3w+/MXaukON8fPubqm+sCWd6ydZ+mp5V7fYHHekn3DhTh0WadlnUfBi0/WpfA0zisMgTBAAEgCqovbHSkr5ytl/t++HVTl8KOc6VF/9P6mb5A/dZHh92DdBVxfY/P2Ixl0WeWgNNuyxyPgzqeMlj6WIIAAgAk4PmvVZrY6XJe/J8OgttGJLOPinsWNvMseU+yyMv1xgdSV7EGlqeWpQwz/vhf0i9awyeizxBAEAAqALNf61Gv389ZYrQ99vv2M4RepxP7XyD+yyPD+OYiqdVHUlexBp6ckHLVIsS5nkvOhWvMXgu8gQBAAGgCid3qGMY9mx8X+j7bZc1nws9zjTNaXerFYr30wcTZgl9WvUi+aptEfT4/w60TLUaayLy5NNCX2PwXOQJAgACQDXD0E1hw0CP/wvPPSH0/Xaqew/hx3rsvDGK99PGdZ8q1v7hKpz2LFfgq1ZtaJlqpfvpn6MXCH2NIUKRJwgACABVoHmwlexzmrtf5GuMDyfMNIlxdtv9quLrK9Ojm2LtV+MaIOLEM8KPMz3BoOF5iubDsFcuHwa9BqB5GHgrXQwBAAFgkrjuek3RPt+/+V2FrzGUvQbYtO4Tkxjnuit/kXoO/l6xfvp04nShnVZfFqTIU2ug4XlKrom408rmw6B5GMy9yBMEAASAKtA82D0UMgw0Z3/J+X8IfY2R5dnNZMbabsEoxfppu8tHird/hIKnPStXDTSZcabhecrlw5inePtpHgYUeYIAgABQiQkKGYahM+1Uaf/oueOE/KpVG6+9ryi2tjTenRVvv5JOnzGn+pjMONOTDFq2WtR8GDSa4bkRykQzzP1uKPZ8CABwN54KGQaarEeN9p/e+bqwX7Vq0uD3Z6nXkOXChHnez+lTiWuA18bMN7k1TctWi5wP49vvlYlm6GjpYggACACTgxoGGuomN3TDVqP9NZf/okj7ixSKXmAJFUty95OaqXO3uXx8uwKdnLiaYD34DI9uso+zmoI4xa2H7O1fv/Yz4Yo8QQBAAAAAAAAQABAAAAAAAAQABAAAAAAAAQABAAAAAEAAQAAAAAAAEAAQAAAAAAAEAAAAAAABAAEAAAAAQABAAAAAAAAQABAAAAAAAAQABAAAAAAAAQABAAAAAEAAtEUA6NX8wR9WDQzAYAMAAAA/sdrxS3+VBUALFQAFav7ohAWj/DHYAAAAwE/MWTrMV2UBUEgFQKSaP/rJxBm4AgAAAADuYtC0yRdUFgCRVAB4qfmjfa2XRmOwAQAAgJ94fsS3wSoLAC8qAHar/KPamst/KceAAwAAAL+XGv3+VEFsY53KtngnFQAr1PY83L3xAzgCAgAAAITDW9++qrYdJiyjAmCi2j/cb/iSUAw6AAAA8HvpuRHfXmcgAGypAPiawQ9L7rtfxSkAAAAAs8Zn38ssjD/lUyoAXmLx4z2svk/U+v+xGhMAAACAOUJsYH3Pwd8nMhIA/akA+BWhhkUD3rGdfZl0ggETAQAAgJlheH/CrCuMjH8j4bf/T5JuZwM8w6gR0tTFI7wxEQAAAJgTxPb5sLK7NASQ2v47AmA0w4ZIn06cfkF39Q/1mBQAAABMGWLr6j6dNN2Xpc2lDoB3C4A/q10T4F76DF0WHXny6UhMEAAAAKYIsXFhxNZFMDb+1Nb/9d8CwCgCAhg36nZxgrdt51yJPvVUBOksPSYMAAAAwdHFne4dSmzbedYf2kau3rH7dwuAeRw07N90sViZ/fWUKZdW2Q+8cGLHm343TjwTQjrxBgAAAMArEcRWndj+5hViu84PnDrlPLFlmTzZVsKs+wmA3pw1EgAAAADy0u2/BIBRBNxE5wAAAAAmSeTdNv9eATAGHQQAAACYJLMeJgB+hlMAAAAAwOSgvgi/eqAAMIoAC3QUAAAAYFJY32vv/0sAGEVAGDoLAAAAMAnCCY+1VgB8gA4DAAAATIJ37mfr7ysAjCLgEjoNAAAAEBqPB9n5hwmAVwgGdB4AAAAgJDrC020WAEYR4IgOBAAAAIRk88Ns/KMEAA0L9EUnAgAAAEIRTHi83QLAKAL+SEhHZwIAAABCkE3426Ps+yMFgFEE9CfUoVMBAAAArqklPNca294qAWAUAUPRsQAAAAC3tBC+aa1db7UAMIqAtehgAAAAgEsWtcWmt1UA/JyQhE4GAAAAuOJgW+x5mwWAUQTMQUcDAAAA3FBP+L0aAuDPhEZ0OAAAAMAFh9tqy9slAIwi4Ag6HAAAAOCCD9UUAO+gwwEAAAAuYv4fU00AGEVAMjoeAAAAYMqq9trxjgiAueh4AAAAgCm9WAiAvxCa0PkAAAAAE66114Z3SAAYRcAxDAAAAADAhPEsBcB7GAAAAABAjNh/2QSAUQTcwkAAAAAA/Mf+yy0A5mEgAAAAAP5j/+UWAHAGBAAAAASI/ZdVABhFwHFWHTFjo7vb2YB4L1FYc+FW5EzP9HxReGnWAdXzPYw+FF03xSNdC1rHPNfEbLXHaOyhqOLZ3hmgldgdj0tVe4wGzPgxaf65zEpRWHM5Pf9CeEqsKKw8cOmGiLH/SgiA91l1xBtTtoZJAj3lDXpplHuONOxsthCMORCRwUAAVInSPzzgGFRcovYYjXfPbEHft54JJxPzVV9H+8JuidRHKWVNIm3l0nszdsaIGPsvuwAwioAURh1hiEsvyBBp4hxLqBBmUc7wyqxSe0zf/8GjFEYDAsCU+GLtBdVP0mZ5ZQizjpxDSoQy/jczC4up7REx9l8pATCflRp6Z/qOEJEmT11zi2TrlSvEwhzrkUMneYua49lr9EY9jAYEgCnxlO12jcpj1DLRO1eIdTTcNVvKq2kWSgB8NHt3lKix/0oJgL8StIw6pCU5uzhLpAnkmVItzOb1rN2OTNXvmN2zDTAcEACmwDiPHL3a49NnzKZ0UfpnZ2SZUMY/JbekRO2PIjlj/xURAEYRcIKVKvpg1q5gkSaRVm+QppzTCLFABzpfTFJ7PG1P3KyF8YAAMAUmu6aqPj5fOPnEi9A3Nu45UlmDXigB8Pn8vREix/4rKQA+YNgx+lRNaY5IE8kvs1aMDexUYp7a4/n5uoslMB4QAKaA1dZA1ZOlTT4RnylC3xyNrxDK+KfnlZVSWyNy7L9iAsAoAmJZdc4nc/cEiTSZWgySNPdiPveLdKp3TqPaY/mM3c5GGA8IAFPg+ek/pqvuAHguh/sTNFvPXKlO2yKUAPh60X6WoX/pcsT+Ky0AhjDsIF1WQblGpAkVnlcvhJNOl8FONWqOZScLe8nGDcYDAkBsRrnnGDpZOuhUXTuWDjUihBq736oSyvhnF1ZUUBvD0L5NkdteKyEAfkZIYtVJXy78MVAS7FnqX8j9Yn19wTHVjzEnnElpgBGBABCZKR4ZlWqPzUsz99/k/lrRR3PbD0qkx3LpwTCGxr+Q8GvuBYBRBNgw7CitprgqX6SJlVjSyP1GNnJPSJraY2m5JbAMRgQCQGRG7AtXfd1Ybw/kXgBcyawVyvjnlVRVMIxyoyxWwlYrJQB+Tkhj1VmDvj0QINopgFNwMdcLdrpHepna4/jCzAOIBIAAEJrXFh5XPQHQTPfUAp77ZM7F/Nv+TyI9Q5cfCWVo/Gkytv8VRgAYRcB4hh3WWFBWXSjU/VKVVrLmOZWpV67qca9dBjvd9j+AIYEAEJHbvjNDVtepPTbTzuVqee6XsLx6oYx/YXkNNcCNDO3ZaqXstJIC4JfGikVMOm3wd4evinYKsOVGKdcbWp8xm1UPB7RzS9fCmEAACBn/75WtuvHvbr1Ow/OHBPV3Eu0Z+cMxll//VHj8XTgBYBQBUxl2XH1xRW2xSBOtuE7HdaGgzxy9VT/OHL43vBzGBAJAyAyAR2KzVE+ItvxsHM99klTaKJTxL6msq+40aFUDQzu2Q0kbrbQAeJyQz6rzhq846i+a2uQ5RbDdsbhctcfw9cUnIQAgAITk/RXuiaqPy6HIVKT8le8Z43AyhGVyO8KTwgoAowiYw7AD60TzBaDOMd/6FfDpCOjN4EhzuDNqAkAACEmPEetVH5fZPlkVPPbFJB/N7SJogt39V3ayuJ17n5X9Oq60fVZDAPyGUMyqE9+dviNINNWZVamVRnDo/DbSLYcmGWlU39hkoTogBIBQTPTKYREyprX1zOVSMIcL5vhHn49m7w5naPwpLwgvAIwiYBHLjrwckRoj2uQ7nlDJ5cb20qwDqWqP3+jDMVUwKhAAQgmAU0mqO8w+a7cjmce+cAktEc74B0RnpDI2/r5q2Ga1BMDvCOWsOvPJYatv6VsMQpWcatYbpNkX+KsTMHTbNdUXxgcrPUthVCAAROLLdRdVv/8f5HKRuwqANN9/RaNY1f6IrTD0Hr4mjbEAeMdkBIBRBCxn2aHL910ULjlQcmkTd7kBprmlqG5seo3ZrINRgQAQiadst6keAj3tTFIOb/3gl1Ur3Ne/42G/MMbG/7padllNAfBHY0YjJp3aycK+srSyTjg31H3R5Xw583jnMimGMdY9G86AEABCYOuZw6Rc7Ezf3Hqe+mFVYJFwxr+sqr6ms4V9FWMBMNDkBIBRBDiw7NjP5u0VrlBQQ3OLNPWchqsNrucIF9WdOm1PJiItMASAGAWA3FJVXx9drBzLR7jxk0OE5jMpqtMJJwAGLt4fytj4J8hd8pcnAfAXGprHsHMNIQnZN0WblFEFDVxtcB+scFM9IdCXzpfgBwABIASDt11TfX28Pv8oVwmAvFKqhTP+N5JzM0lftjAWAKPVtMmqCgCjCHBm2cF9hq+9aTBIBtEm56ZwftIEjzsUpXqGs2cm7EBpYAgAIeg/eU+62uMxak9IEi/vT/OYiFbsh9gEqa+NcxJj40/9Rn5h6gLg70+wTa0orTt29ZpoAqC6SU8L8vCREMgrq4bFuNl6ZMHoQABwjZ1XTjOLtTHLK72Yi/LHrtlSTpVWuK//LWeDIxgbf8oMte2x6gLAKAJWsezozhb2ZVW1jVWiTdLAnDouNjkbtxxaqa9W7XEbuT8SaYEhALhm/LH4HAZ7WtN4r1wuxuPkzUrhjH91XWNDF0v7MsbGn14/PG4uAuC3hFyWHW6x5KBwDoH0cQoq5mKje2/ZWdXvOQfMPlQJIwMBwDOvLzyu+jHyP+ccTODh3edczJeaW4S7XaU1Y0I4+PofzMIWMxEARhFgzbjD9dGp+SmiTVaaVGOiN/uogIknEjSqh3JaOkij3BAOCAHAJ2M9clrIHFU9BfD4Q1FpPJwKZlSId/Qfn1FI9zEdY1sUyMoOMxMARhEQyLLj+9o4x4l4CnCzpFEazrhWwGTvXCZ3neOO30RaYAgAPsP/XFMKmdz/n8thHv9/ObNWxK1UemHshnjGxp9GHbxkrgLgBWPJQ2YDsN3t+nURJ65bchXzDe+Z8dtUjwZ4e5lrMYwNBACPfOLgrXr6354jnHOtGX8MbIsoFdL4H/CNiObg6H8/SxvMVAAYRcAOlgPQxdK+uKq2sUa0yUtv2tYEs/UHGLrt2i21x6vr0DWG4a4wNhAA/FXK7DZkteoZ5AY6X2Ca/3/B5XypSS/evX9tQ1NDVyuHQsbGnzpS/8PcBcBfWBYKMpYMDhVRwdZqW6TpvnnMFv8Mr4xKFuM14WxqPYwOBABPTPfKrGCS/tcjtZCZz4NnrlRQ2yzk1/9n8/aGc/D1v5S1/WUuAIwiYDrrwdjudl1IEZBeob399cHK8aezlaPq4YCfr7tYAKMDAcATlpv9WSSRaZrAMPwvLK9eSON/6HxkLAfGn16f/hoC4F8C4OcEps4YnSxW1WQXVhSIOKEvpNcw2/je/e6M6hvfk6M3amF0IAB4gVbs7DVqg+pRMa/MZhf+dyiuQkjjn19aXcFBsR/KMB5sLxcCwCgC3mc9KM+Oco5vMRgMIk5sVqmCJ55IYJLPYYJ7JkQABAAfx/8+OfUs1sD4Q5GpLN53+dVCScBr/9vpfgfYboznwPgH8WJ3uREARhFwmvXgzNnsGSyiAGjUGaS5F/PNJhxw8I7gQhgfCAAeGP3jjVRG4X91qgt+b83tXCQiPsv2XrjBgfE3EF6BALi/AOjGuk4AoTksMSdNxAmuqW6WRnuo7w/wjK364YDPTtpdA+MDAcADz03Zo3o0TI/h6zRqR8PQ30soaRTS+MelFeRRnwkOBMBBnmwuVwLAKAJWsB6kHkOcshuamptEnOhBDOoFDN0WeIvFOI11z9bDAEEAcJAQy6B2/3+97rzq4X8094iIT5NW19Lbek0GB8a/jtAJAuDhAuA3xrKITAdr4OIDIZKgz57ocnXDAT0zmIRA2RyMLoERggBgyaQTCUz2qhnu6ob/0ZwjBkH3Q5uVx3k4+qcs483ecicAjCJgCA8DdsovNlbECU8Lciz1L1RtcxjlziYc8JX5R5EVEAKAKW8uOp7AYG/Sqhn+N/N8nlSnbRHS+J8LTU5jcUJzH2iVyN9AALReBPizHrTOlvZlReU1Qp571TS1SLMvqOcU+M7S06qnQSWiQ7JBcSAIAEaM88w1dLKwb1S771+efeCmmk5/hbU6IY1/eXV9Y1crhxJOvv6H82hneRYAz7GuE3D7K9Nuc7SoVwEl9Tppso86lQMnnohnEg447kRihbkaoBGu2dIYj1yDc0hJNgQAg/A/t5QCFnPe9mCEKuF/Yz1yhazwd+d5b8bOGE6M/3Ve7Sy3AsAoArbwMID2B6+Ei7oIcqq09EvFZMMB3/vBI4+XZDD0KsSWfBVO8tHop53TNM/01TTN9tXUzzmfWzPHN7tyjk9W6RzvjKJZHql5M1yTs6edvpkx+Xhs6vhDkclj9oXeHLHzWvzgzX6xA9edj/7cwTPqg+Vno95adDz6ldkHYp6fsieu7/itN3uPWn+r27A1GZ0tHWjimVJjPnH1hbKFvaHLYKeG7sOdK3uN2lj69Pht+f0n784dMHN/1qvzj2a8veRU+gcr3NI/c/RJ/9r5Yrrl5qsZw3YEZY3cG5Yz5mCkxvZobIHdiYSiSaeTSie7plRMcUurnuqRUTvFM7Nhsld20ySvbN0Ezxz9OI8cA+1XHus/fObgzSSmXI3wP5pdNL64UVjjv831egInxl/PU9ifaALgfwjpHAxiY2JWUZ6oiyGptFGycVc+PPBp262qf4l2s16nl7MaGv2qpver0301WmK4a+eeyy6f7ZmWP/1MYuaEw1HJI3cGxVMD/f6yM1Evz9wf+/S4LTe7DVlNwyBpYRGaYUzLycZjcnSydJC6DFkt9RjhrO01ZlN1/6l7il5bcFzz0UrPnIHrr+QM2xWiGXMoutDuVGL5ZLfUmsmemY12ntm6Me45BmsF0mB3HeJUpnYfdB++Ll9pMUT76npunbDGPyO/vLKThX0dJ/PWiWcby7UAMIqAt4w1k5kOZJ/ha1KbdfoWURdFeH694l9RQ7ayCQec4JpWe79NjN7RTj2n0c0+r6mfS7/AvTMK6Zf3pGMxKaP3hiRYbrgc/fEP7lGvzTsc/azd9vge1mupw1ARQQeDa2LiwcL+tlh8atzWmhdm7C9+89uTeZ84+OQO2uSvGbEnrGDskdgSu9PJlZPc0uomemRpx3tkt9i4PXiuz/JmU/znq7W+iof/nUurEdb461sMUv/RLimczLs4wq8gADouAtbwMKADF+2/IQn8XM6sNclwwOen7c36wtE76q3Fx6Oen7I7tpfN+mSy4VOfhHoYP9BRR9MeI1x0z0zYUTVg9qHid747m/fZ6vN5A2buZxX+p2ghrGMJFSJvcdJYh5NRnMwdeiX6Au+2VRQB8CujmmI+sCt+vBQp8gI5m1SldDhgHQwHAOKF/22PKBPa+G93C0ngaKy+E8G2CiEAjCLgeU7uV/VewYm3RF4o+2LKlQwHTMJGDYAC4X8z9ysW/rc6uFjIAj93nuD4rByO/G/CaYVbCAD5RcBiTu4Tq2/llBSLulhoVawNoSUyhgvlSFM8M5snnkqsfn3hsRxs1gDIz1uLTyRO98yonOKd00y99OVav9/5F0pNAlt/TUlVdRcrh1JOxonWsnlaFJsqmgD4GSGYh4HuOdQpt6KmoUnURUOzBa4MLGp90hNi5Kd6ZmonnUqsHL47pPDjVZ55z0/bW9p12Fo9NmcAVA/D1D81dkvBW9+eTLXa7J824WisZoZHeuVUn5zmUW2I+KEVRGu0wvo2S41anf7pkevSOBqb2SLZVKEEgFEE9DIWVWA+2C+N33RT4MAAqaG5RVp0peDfm8F4zxzDNK/MpkmnblYM33W94OOVnprnpu4p6Tp0DYw8AOLQ0nv0xsI3Fx5Ps9x4hYiDGCIO0iqnE3Ew+i5xMOWcRiqt10kiPx/N3h3NUb9fJTwGAaC8CJjEy6APX3E0SpTFQsVKZkF5vU9IUobTEb8Ym1XHI9+auSfpuSm7i7sMdkLoGwCmj6GXzfqS1xcczRi44mT0gu0+149ciIqJScvX1DVq9SIZ/wXbvCM46tcaQg/RbKmQAsAoAnx5GXyXE4HxPN3vZxdW1BIjn7b6iH+Uzcrj4a9P2hr35LDVGmNoCjZBAMB96WrlUNp/jEviFwv2hc/b6hV20DciLupWXl5NfRNX4uC0f1wiJ0V+7mAnoh0VWQA8QSjnZPB1lyNSs9VeBGVV9fR3s1YdvBz1zeIDEc+Ock7pZGGP2HcAgPxZNwc7Fr42aUvMhDWnQ/f5hMfczCwqZnEFmpBRmM9Rpj/KOVHtqLACwCgChnGTMMTSvpKmoFTkrr6pWYpI1pTtcAu5OdbhZOQrdptvEqVehk0JAMCYpj7D16Z9Om9v2JJdvqHe15MSiypqFUslWF5dX999iKOGo/enH6FPQACwEwHHeJkMva3X5NTUN7Xbq4amsUzTlDadvBKTMWeLZ+z7M3fG9xq2Oo+HVMgAANBauljal78wbkPs8B+OBm8+ExR2Iyk3o0mr65DHoY5skC+O25DA2bsOF9l+moIA+BMhj5cJ8eaUbYkthkfH1BaV10gXw1OKVh24nPjNtwfinx3lktnJwr4JmwcAwETR9xjqlPnOtO1hMzd6XDvpFxuZVVhR2FoBMGTZ4XDO3ue06PZTeAFgFAGf8jQx7NacibszaWsbtFJ4Um7dNtfr6WMdTia8Yrc5tauVQzU2AwAAoInVVtU8Y7MufuDi/dccDl25FhCdEV9T3/Qf1wjrjgdEcNZuWv3zLxAA/IiA7TxNkNcmbUl7ctjqYixwAABoe7gi+VDSvDJhc9iw5UcCOYxgGmgKdtOUBMBvCYlYOAAAABRki6nYTZMRAEYR0IdQiQkKAABAAQIIv4AA4FcEfAGveQAAADJDC539nynZS5MTAEYRsASTFQAAgEw0El42NVtpkgLAKAJOY9ICAACQgVGmaCdNWQD8DyEOExcAAEAH2GCqdtJkBYBRBPR8gp96AQAAAMTCj/BzCABxRcDHNAMVJjIAAIA2kGUKyX7MWgAYRcA8TGYAAACthFZVfdHUbaNZCACjCDiKSQ0AAKAVDDcHu2hOAuA3hChMbAAAAA9hnbnYRbMRAEYR0I1QggkOeKGTpYO269DVtT1HupT1GbOp8Fm7HbnPT9mT9fLsgxmvLziW9s7S06kf/eCR8rnTuZSBLpdSrTZfTbPeGZxhszcsc+zByOzxR2M1Q7cFpqnd7qE7grPob9M22OwNzbTeEZRutdk/jbSRtNUnhbaZtp2+A30X+k59J+zI7U3esecIlzL6zvTdMQcAZ1w0Zac/sxYARhHwHkGHiQ7aQ9chq+t7jdpY3G/Srpx/zj2U/t6ys6lfrPFNGbwlII0a5fFHYzSTTycWTnNPLZ/ulVE93Surbpp3duNU7xztJO8cnZ1Xrn6cZ45hlHuOZO2aLQ0723HIb9Sq3Q8TPLKa5Gg77YPRpC9sPXMNtG8me+fqaF+RPmuY7p1VR/uQ9iXtU9K3ubSPB2+5mvbFat9U2vf/nHs4vd+knTl0TLoOdqrDHAUdIIPwZ3Oyh2YnAIwiYAYmu5l+cVvY61pvwDNrqPGmhtuWGO3hMhlsuSHtFFYAyM0It3+JCSok6NjdHsP/EBChdwREyr8ExKF/Cwg6N7BGzBYqHp8zN1tolgLAKAL2Y9Kb4Rf80NU19AucR+NljicAvDDRO7ely2DHaqwRs2WoOdpBcxYAjxPCMfHND5s9IekQABAAdzNqV1AK1obZ4mCudtBsBYBRBPyDkI4FwOJLfE0jq9/uYuVYS7/4IAAgAChTfDQtnS0datldSzk0YE9gxl5ztoFmLQCMIqAHIQ8LQXZqewxxSh0wfmPYN98euLpwu4//Qd+IkBvJuUmVNQ0VlXXaxs4W9swiMkbsCEyBAIAAuO03sO1qMjvjv6ohu7RWW13XWBmVkpd8+EJU6OKd5wIslhwMeHnCphs9hzqlGZPSYE+Rn1OEn0EAQAT0JZRiQbSJhm6DHdOeG7s+7Iv5+/xmb/K4tNszLOB6QnZ0aVVdPulXg/SIZ8ZGd3+G4Xd1U8/l6iEAzFsAzPDV6J+wsGcWPTBy5bEIqRVPaWVd+fWErKQ9XmGhc7Z4Bn618MegF8ZtiO4+xDGb/B2EU7adc4RfmrvtgwD4SQS8RIAT0E80d7F0SO87yjn0o9m7L09xdvXdejb4SkBMRlhheU0G6TOt1MGnqraxotOgVcyOXodtvpIEAWDmJwCbLicyXGO6nKLK6o6uoxaDQcorqSr1i0pLJGs0dKqLa9Cnc/dc7z/GJa6rlUM++Z0W7Gf/QSBNDAe7BwFwrwh4h37ZmtliqHly2Or4t6dt96dG/kefG1cSMgujdfqWckmFx/r7I1dYnmLMPq/RQQCYpwCYQ8ae5Xr/fP7eaDXWWJNWp4tNy88ia/sGFQfvztgR2tt6TYoZ7nWUSML/wt5BADxIBHxOv35NMP69qK+Nc+QXC/Zd+XaX7yX3azeDNcVVqeSdmyWGT35ptYblEeZgF98ECADzFACDXc4nsFyT8ekFJSzXnsEgSdmFFYXu1xKil+4+f+3rRT8G9RvtEtvZ0t5Us6XS056/ws5BADxKBAx9QswSwvpugx2zXxq/KWz4iqN+644HXA2IyYiqrG0oljh+Ppq9+yrDPmtaeFGjhQAwLwGwgIw5HXtW8+61SVsTeF6TZM+oCozNuLn+RGCQzcrjAa/YbQ4ne0vWE+KWVs8kdIJ9gwBorQgYTzBwHUpn5ZA72dn16j7v8OuxaQW3mpp1DZKAT1J2cRLLe8qBjh6xEADmJQC+cfKKZ7l2/aPSNSKuVa1O35SQUZh6wDfi+vQNbn7dBzumCmD8CwhPwq5BALRVBMzlfXJbrzh6Sd/S0iQJ/rw8YVMQS4fH7y5rGiEAzEMALL6kaWJ5zddvtEuq6Ou1xWDQ2zqduiKAg2EZoR/sGQRAe0XAD7yLgGdGrgsvqazLFHlDCYzNYJqV8eOlJ2KtIQDMQgB8vOw006//U36xQguAwrKa8v6jXWJFcHAm/BN2DAKgoyJgI++TvbOFfZ5fVNolkTeWp0euu8GyDxecy6yEADBtATDXJ5NpqG8v69UaGrYn6nMuJDmls6V9mQDGn2YafR/2CwJADgHwmCDFg5rmbfU6QtrcKOLmQr6M/Fn2X9/xWzNpaVoIANMUACPdcqR+E3dmsZxjm88E3RRxbepbDNL0De4xvPtF3bnSI3wF2wUBIKcI+DnhjAgerwNsN7o2aXUpAu4zuu5DHFkmZpGmHo3OgAAwTQEw+VhsDsu51W2wY6m2WS/coiwoq9a+NH6TCM5+ktEnYThsFgSAEiLgV4QLIiyELpb2Uck5xW6ibTabTgedZ3qVYuVYKVpyIAiARzPtnEbfZbBTFcu59d2eC7GircfzYbdKulo5VAoU7jcJtgoCQEkR8FtjKkkRFkOp0xG/zaTd9eIcNbbUdbFyYFqh8atVbjHWEAAmJQC+dvRk6vjX2dK+urq+SZjPf52+RZqz2TNdkCP/O1/+U2GjIADUEAG/IXiJoooHjN94sr6pOUmUzWe723Vf1pvJ8kvZFRAApiEAll7MrmIdrrbix0txoqw/TUlV40vjN2UI9NVPkzoNhW2CAFBTBPyCcECURdLZwv5WQEyGhyB7UHPPoU5Mw4z6jt2UZOetgQAQXADYeuZK/Wy33GI5l7oPcSxq0uqEWHju125mdLF0qBLI+NNQvw9hkyAAWEUHrBNJKY91PHnCYDDU8b4ReQbdvMK6v+afiroFASC2AJh/KiaN9Tza7RmWzL3i1rcYyN4QIVh632JaxRW2CAKAtRBYINBdmdRn+JqQ3OJK3q8EDH1HOQczPjUp/c4vXwcBIKYA+PZKvp6OIcs59NSItVm8x/1nFVYUPmOzLlnA3P69YX8gAHgRAWNpfW9hqgMOWlVBvky4ThwUlpgTwvru9usVp8Np/DgEgFgCYAQZs4ErzzD/ovUKTuQ6Q+eh85GhnSzsqwQz/vR68B+wOxAAvImAgaLV2P5g1i7/qrrGMl43qFcnbrnMuo++O5eaBwEglgBY6pNayHrevDR+I7enbHWN2uqvFv7oJ2BVvwDCH2BvIAB4FQFvE0SKm6UhSoUHz0cG8LhRpeeVxRu9fNlVXRziVDz1nEYPASCGACBj1dJ16GrmNe3Dk3ILeFxTboEJIV2sHHIFNP5uhF/DzkAA8C4CnjOWoBRqgZGv7WvFFbV5vG1YX8zf58O6bz5cfjZxgncuBADnAoCOERkr5vfZH87eHcPbOiqvri99b8bOQAENP2UPzcYK+wIBIIoI6EFIFW2hdbJYVbHueMBl8g4tvGxcpVV1NCa5mnXfbD4bHJRa3iSdvFkpLb5SIFlDADB/dzoGdCzomNCx2XQm6DoPuejT8soqeTL+O91DAlg7RHYAB9gUCAARRcDfCFEiLrp+o13CM/LLuSlbOtbxpCcH4qg6t7gy/06bKhr1kn9WrbQ+tEQa65kLAaAStK9pn9O+p2Nw58kurCggY1TDep5Yf380kpd1oymu0gwYvzFUUMNPI6tmwpZAAIgsAn5P8Bd0AdYt2O5zocVgaGa9kdU3Nhd1srBn7tjVf4xLtMEg/VdcF62WdrOkUTqWUCEtv1oo2agYOWDqAoD2Je1T2re0j2lf3/uQOWrox0GNejJH64oraxuYx9AapJYf9l/y7zSIvSDqQHY/FPWBADAJEfA44aygC1HqZb0mLjg+6wbrTW3Jbl9PHvqDtCPwkYlViJFKKWuSPFOqpXUhJZKSWQVNTQDQvqJ9RvuO9mFzy6Pj6Bfu8LnGw9yYtcmD+dd/RLIm8emR6+JE3W8IdD5/AtsBAWBKIuBnhN0CL0rDu9N3XCkoq8litbHRQkE9hjjFc9AXjQmZhW2O7y6obZauZtVKuyLLpEVXCiQb9xyzFwC0D2hf0D6hfUP7qK1PbFo+LVrTxHpekLmZ39DErt5vSWVd8Wfz9gawzp3RQfIJr8BmQACYqhCYI1LCoPvl3p663u2cVqevYbHJBcdnBZE26Nmfiqy+1ahtbuzgMS0xeDrpRn695JpcJW0KL5UWXM6X2pp4SAQBQN+Jvht9R/qu9J3pu3c0SV59o7bhyWGr03hYG97Xk9JYrIlmnV67aIePH/VREXhfuRPj/3fYCQgAUxcB7xAKRV6sXawcMg/6RjCJFuAhLJDy7owd1xU56SBGMa+mWQrLq5e8UqqlA7HlkktIifStX4E00VvzX9EHPAgA2ibaNtpG2lbaZtp2+g70XfQKZMOl4uGtqdvCeZgLH8/ZHc3C+J+5GhfWfbBjpuCGn+JMC6zBPkAAmIsIeIIQLPrC7WvjHBqXXhCl5qZX26At7Gxhn8/D+8/Z4qV6AiVdi0EqqtNJSaWNUlBOnbTFPz1b7fdefyU9l/42bQNti65F/Xz309a7BXFSabO6qKJW1QJbyTnF6QNsN4abgOGnTopDYBMgAMxRBPySsNkEFrHuiwX7fEur6rLV2gD3eIWd5+TdW077x0WwdPq6EJ6iuvc7/U2W73z0YlQkLwW4XE4EqNYXlTUN5cOWH6FRRc0msG8kEZ6BLYAAMHchMJJQbwpq3mblce/qusZ8NSKdnh+7ngvPbxp7fjOzKAMCQJ0nNq0go9OgVXU8jH3/0S631Cj2V9vQVDPZ2dXfBO7573CK8Dvs/xAA4Kf0wWmmsLhppcFJ68561zc2lyi5KWYXViQbQ4aYv3P3wY7ZlbUNVRAAyj7l1fWV3QY7ajiZ680JGYWFSr5vo7a5fv42b2L47ctMxPBTB+i52PMhAMB/i4A/EDxNZKHTpCjF87Z6eTc16yqU2iBnbfLw4eV9Xxi3IVLfYtBDACjk+6Bv0fcfs56b+PaJa88olhtDq9M3Ld93MaCzpX2RqewHRsfnd7DXQwCAB4uAxwhLBY/lvddJKu/7fRd9yAYue+igvqWlocdQp5u8vOvQ5UcCIQCUeSyWHOTGabbHEKe8RmKlFRA5ujVH/a91sXLIMyHDT6EOm09gj4cAAK0TAp8QykxpE+hi6ZC5+og/FQLVcm6aQXGZoTwJJrKBB0EAyPus3H/pOk9z2SckKUVuw7/5TFBQt8GO2SZm+CkbEeIHAQDaLgK6EyJMbUOgJwKzNnl41zY0yVYv/csF+y5w9I4tW84EB0MAyPM4Hw8I4cXj3xjzL1vYa32jtm7Jbt+rJvjFf7uWCMEaezkEAOhYHYG9Jrg5UCqHLDvsU1BW3eGvqZr6ptIulg45HL2bfqdH6HUIgI49m04HhfFk/LtY2pcXV9TWdvS9yN8oHud0ijr3VZjo2r5FeBZ7OAQAkEcI2PGQ71whmt6dvuNCXHpBh5yqAmMybnAWH63f5xMeAgHQvmeHW0g4Z74wBs+gxFsdeaeU3NKMLxf8SFPeNproWqacplVQsW9DAAB5RcALhFgT3jgMz41Zf+1C2C1/qZ0phqdvcL/IW9jTwfORoRAAbXv2eIWF81Dz4W7GOJxst0ANjs+KfW3Sluum5Nx7H0px5A8BAJTPHviDiWQCe7CX9VCn2JX7L9FcAm3yEzAYJH3/0S68+U00H78cHQ4B0LrnoG9EBG8Fs54ZuS61Wde2igZNzbr6LWeDA54euc6URfvdX/3/hz0aAgCoIwReNPHTgDtUfTxn97mIZE1Qa08FCstraK2AUs7eQ3vmatwNCICHP0cvRkXxZvw7WdjXpWlKW53UKimrOHXIssN+5L8rN4P1WYJc/hAAAKcBitNzqFOk4yE/z0at7pGnAq4B8eE8OY/d8XU4fCEyDALg/s9er/AbPM7l3Z6hcY9qu1anb9zpERr47CjnKHNYi0ZOEv6KvRgCAOA0QE0qPp231ys6Nf/aw04FrFccDeDRz2Gqi+tVOfPHiy4ASF8Yxq8+HcTjXPt8/t7Ih7U9VVOaPnzFUfq1X2pG649mJ7TC3gsBAHAawDojW8ScLV6uBWU1/1WPvVnX0txn+JokHtv95pRtoQ1NzfXmLgBqG5oaXp20JYJTP5Tc2gZt871tLq+uL3U87Off18Y5msNTJqU5TvgL9lwIAIDTAJ7Q97Zec23FjxfPVtY2JN3ZrNPyyjSdLPgoGHQvvaxX38opqsw3VwGQnleW33OoUwan86n5RnKu5k5b6xq11dvdrgcOsN0YZm4i+648/oOwx0IAAJwGcJ9X4NlRzlc2nLrmSr6yM3Z6hN7gOCti2ZXItARzEwC+ocnxPCfB+X7fxSitTt9w5GJU8JtTtgWZSLnu9nKE8GfsrRAAAKcBolFLvtp8u1o5ZHLcxuY1R/2vm4sAWPHjxeu8xfj/R7Y/K4eSj+fsDuhksarSzNdOAWEg9lIIAIDTAKAwH87aFVJWVV9hqgKgsKym/O2p28Mx1kJwiPAn7KEQAACnAUC9K4GKzWeCQk1JANCIhzVH/UM6WdhXY4y5h/pkfIU9EwIAmJ4I+AVhujFlJzY7jnluzPqYlNxSjegC4GZmUfazo5wTMKb8F+YizCf8CnslBAAwbSHwB8JaEy4uZCo0ztzoca1Z16ITTQA0aXXNE9eeCcLVE/fQ8dkEJz8IAGB+QqA74YQZxjILlgFxdfqFsFvxoggA98CEuO5DHLMxdtzjSuiNvRACAJi3EHiNEIwNkW9oUqMd7iEh954I8CAAtDp986bTQaG9hq1Ow1hxD3XEfBt7H0AngLuFwGBCOjZIvuli6VA4Z7NnYGVNQyVrAVBeXV85Y6N7YBdL+xKMDffQU5kRhMew3wEIAHA/EfArwlyabx8bJvfUD1x8IHD1Ef9rav+20xG/awMX779m5glyhKmoSVhEeBx7HIAAAK0RAn8mbIQTFwDCQssqb0XFPgABANorBHobnYWwoQIgDh6Ep7GHAQgAIIcQeJtwAxsrAFwTSXgPexaAAAByi4DHCCMJt7DRAsAVVJwPgYMfgAAAaggBC0IINl4AmOJLeB/7EoAAAKyuBryRTAgAVZ37DhOewx4EIAAAD0LgWcIBRA0AoFxpa8IGQlfsOQACAPAoBLoQXAg12LABkIUiwlKU5wUQAEAUIfBHwhJCITZwANpFKmES4dfYUwAEABBRCDxOmEhIwYYOQKsII1gRfoY9BEAAAFMQAj8zbmph2OAB+C+oE60P4V3sFwACAJiyGHjPuNm1YOMHZk4lYRehH/YGAAEAzEkIdCIsJCTAEAAzQk84RxiG+30AAQAgBgatGkDYRCiGgQAmChW6Cwj/wJoHEAAA/LcQ+AXha8JpQhOMBhCcUsJmwktY3wACAIC2hRLSMKjrMCRAILQEN8Igwi+xlgEEAAAdEwO9CCsJmTAwgFMiCDMIf8GaBRAAAChTiOgdwl5CNYwOYEw+YR28+AEEAADqioFfE4YTXCEGgIrQU6gdhM8IP8daBBAAALB3HqQnA06EaFQnBDLSSLhAmEN4GusNQAAAwLcg+AdhLOEEoRxGDLQjD/8WwheE32BNAQgAAMRNQ/w64QdjKmJkIAT3Um/MTjmdOpxi3QAIAABMUxD8hTCCcMhYahUG0DxJImwgfEKLVmFtAAgAAMwvquAlY731a4RmGEaTpYzgQZhM6I75DyAA0AkA3BtZ8CphKmEfIYagg/EUjgrCZcIawhBCD8xvACAAAIAoMC2qCP7GePxhuMMHAAIAAIgC06OGEEBYb/Tj6EOvcTAnAYAAAIAnURCNBEXthkZqaAiBhI0EG8IzMPYAQAAAIJIwoEWNnicMNIaZrSWcJIQYU8maY1giTa6TYrynp2JpOWEM4X1CTxTRAQACAABzEAi/JDxpNH5jjcaQ1jq4RLhFaBDUCY9ei3gaE+rMNzrj0ROSv+NLHgAIAABA60TC/xnDFalI+NJoTMcYQ9rmEr4jOBqPy3cRDhPOEnyNd+Y3CAmEDEKh8WpCZwx7pE50BYR0QjwhlOBH8CacIhwgbDM62dFkSouMJxm2BGvjycZHxmRLzxJ+jzEDgH/+P0nkeZ9JeDr5AAAAAElFTkSuQmCC;" vertex="1" parent="iN45Id6dDKSgF8Y3VdJW-24">
          <mxGeometry x="25" y="40" width="40" height="40" as="geometry" />
        </mxCell>
        <mxCell id="iN45Id6dDKSgF8Y3VdJW-28" style="edgeStyle=orthogonalEdgeStyle;rounded=0;orthogonalLoop=1;jettySize=auto;html=1;exitX=0.5;exitY=1;exitDx=0;exitDy=0;entryX=0.5;entryY=0;entryDx=0;entryDy=0;" edge="1" parent="1" source="iN45Id6dDKSgF8Y3VdJW-25" target="iN45Id6dDKSgF8Y3VdJW-15">
          <mxGeometry relative="1" as="geometry" />
        </mxCell>
        <mxCell id="iN45Id6dDKSgF8Y3VdJW-34" value="" style="group" vertex="1" connectable="0" parent="1">
          <mxGeometry x="677" y="480" width="90" height="90" as="geometry" />
        </mxCell>
        <mxCell id="iN45Id6dDKSgF8Y3VdJW-35" value="" style="rounded=0;whiteSpace=wrap;html=1;fillColor=none;" vertex="1" parent="iN45Id6dDKSgF8Y3VdJW-34">
          <mxGeometry width="90" height="90" as="geometry" />
        </mxCell>
        <mxCell id="iN45Id6dDKSgF8Y3VdJW-36" value="Storage" style="text;html=1;align=center;verticalAlign=middle;whiteSpace=wrap;rounded=0;" vertex="1" parent="iN45Id6dDKSgF8Y3VdJW-34">
          <mxGeometry x="14" y="10" width="60" height="30" as="geometry" />
        </mxCell>
        <mxCell id="iN45Id6dDKSgF8Y3VdJW-33" value="" style="aspect=fixed;sketch=0;html=1;dashed=0;whitespace=wrap;verticalLabelPosition=bottom;verticalAlign=top;fillColor=#2875E2;strokeColor=#ffffff;points=[[0.005,0.63,0],[0.1,0.2,0],[0.9,0.2,0],[0.5,0,0],[0.995,0.63,0],[0.72,0.99,0],[0.5,1,0],[0.28,0.99,0]];shape=mxgraph.kubernetes.icon2;kubernetesLabel=1;prIcon=pv" vertex="1" parent="iN45Id6dDKSgF8Y3VdJW-34">
          <mxGeometry x="47" y="46" width="39.58" height="38" as="geometry" />
        </mxCell>
        <mxCell id="iN45Id6dDKSgF8Y3VdJW-32" value="" style="aspect=fixed;sketch=0;html=1;dashed=0;whitespace=wrap;verticalLabelPosition=bottom;verticalAlign=top;fillColor=#2875E2;strokeColor=#ffffff;points=[[0.005,0.63,0],[0.1,0.2,0],[0.9,0.2,0],[0.5,0,0],[0.995,0.63,0],[0.72,0.99,0],[0.5,1,0],[0.28,0.99,0]];shape=mxgraph.kubernetes.icon2;kubernetesLabel=1;prIcon=pvc" vertex="1" parent="iN45Id6dDKSgF8Y3VdJW-34">
          <mxGeometry x="6.37" y="45" width="40.63" height="39" as="geometry" />
        </mxCell>
        <mxCell id="iN45Id6dDKSgF8Y3VdJW-38" style="edgeStyle=orthogonalEdgeStyle;rounded=0;orthogonalLoop=1;jettySize=auto;html=1;exitX=0;exitY=0.5;exitDx=0;exitDy=0;entryX=1;entryY=0.5;entryDx=0;entryDy=0;startArrow=classic;startFill=1;" edge="1" parent="1" source="iN45Id6dDKSgF8Y3VdJW-35" target="iN45Id6dDKSgF8Y3VdJW-9">
          <mxGeometry relative="1" as="geometry" />
        </mxCell>
        <mxCell id="iN45Id6dDKSgF8Y3VdJW-40" value="" style="image;aspect=fixed;html=1;points=[];align=center;fontSize=12;image=img/lib/azure2/azure_stack/User_Subscriptions.svg;" vertex="1" parent="1">
          <mxGeometry x="60" y="497" width="49.45" height="48" as="geometry" />
        </mxCell>
        <mxCell id="iN45Id6dDKSgF8Y3VdJW-43" value="" style="group" vertex="1" connectable="0" parent="1">
          <mxGeometry x="196" y="480" width="90" height="90" as="geometry" />
        </mxCell>
        <mxCell id="iN45Id6dDKSgF8Y3VdJW-44" value="" style="rounded=0;whiteSpace=wrap;html=1;fillColor=none;" vertex="1" parent="iN45Id6dDKSgF8Y3VdJW-43">
          <mxGeometry width="90" height="90" as="geometry" />
        </mxCell>
        <mxCell id="iN45Id6dDKSgF8Y3VdJW-45" value="Load Balancer" style="text;html=1;align=center;verticalAlign=middle;whiteSpace=wrap;rounded=0;" vertex="1" parent="iN45Id6dDKSgF8Y3VdJW-43">
          <mxGeometry x="14" y="10" width="60" height="30" as="geometry" />
        </mxCell>
        <mxCell id="iN45Id6dDKSgF8Y3VdJW-42" value="" style="aspect=fixed;sketch=0;html=1;dashed=0;whitespace=wrap;verticalLabelPosition=bottom;verticalAlign=top;fillColor=#2875E2;strokeColor=#ffffff;points=[[0.005,0.63,0],[0.1,0.2,0],[0.9,0.2,0],[0.5,0,0],[0.995,0.63,0],[0.72,0.99,0],[0.5,1,0],[0.28,0.99,0]];shape=mxgraph.kubernetes.icon2;kubernetesLabel=1;prIcon=svc" vertex="1" parent="iN45Id6dDKSgF8Y3VdJW-43">
          <mxGeometry x="19" y="40" width="50" height="48" as="geometry" />
        </mxCell>
        <mxCell id="iN45Id6dDKSgF8Y3VdJW-48" style="edgeStyle=orthogonalEdgeStyle;rounded=0;orthogonalLoop=1;jettySize=auto;html=1;exitX=0;exitY=0.5;exitDx=0;exitDy=0;entryX=1;entryY=0.5;entryDx=0;entryDy=0;" edge="1" parent="1" source="iN45Id6dDKSgF8Y3VdJW-1" target="iN45Id6dDKSgF8Y3VdJW-44">
          <mxGeometry relative="1" as="geometry" />
        </mxCell>
        <mxCell id="iN45Id6dDKSgF8Y3VdJW-49" style="edgeStyle=orthogonalEdgeStyle;rounded=0;orthogonalLoop=1;jettySize=auto;html=1;exitX=0;exitY=0.5;exitDx=0;exitDy=0;entryX=0.953;entryY=0.579;entryDx=0;entryDy=0;entryPerimeter=0;" edge="1" parent="1" source="iN45Id6dDKSgF8Y3VdJW-44" target="iN45Id6dDKSgF8Y3VdJW-40">
          <mxGeometry relative="1" as="geometry" />
        </mxCell>
        <mxCell id="iN45Id6dDKSgF8Y3VdJW-51" value="Kubernetes" style="sketch=0;html=1;verticalAlign=top;labelPosition=center;verticalLabelPosition=bottom;align=center;spacingTop=-6;fontSize=11;fontStyle=1;fontColor=#999999;shape=image;aspect=fixed;imageAspect=0;image=data:image/svg+xml,PHN2ZyB4bWxucz0iaHR0cDovL3d3dy53My5vcmcvMjAwMC9zdmciIHhtbG5zOnY9Imh0dHBzOi8vdmVjdGEuaW8vbmFubyIgd2lkdGg9IjcwMi44NDYzMTM0NzY1NjI1IiBoZWlnaHQ9IjY4MS45NjcxMDIwNTA3ODEyIiB2aWV3Qm94PSIxMC4wMDEwMjYxNTM1NjQ0NTMgMTAuMDAwOTMzNjQ3MTU1NzYyIDcwMi44NDYzMTM0NzY1NjI1IDY4MS45NjcxMDIwNTA3ODEyIj4mI3hhOwk8c3R5bGUgdHlwZT0idGV4dC9jc3MiPiYjeGE7CS5zdDB7ZmlsbDojMzI2Y2U1O30mI3hhOwkuc3Qxe2ZpbGw6I2ZmZjt9JiN4YTsJPC9zdHlsZT4mI3hhOwk8cGF0aCBjbGFzcz0ic3QwIiBkPSJNMzU4Ljk4NyAxMC4wNmMtNi4yMTMuMzEzLTEyLjMwMSAxLjg1NC0xNy45MDYgNC41MzFMOTYuNzM3IDEzMS4zNDJjLTEyLjgxMSA2LjExOC0yMi4xMTYgMTcuNjg5LTI1LjI4MSAzMS40MzhsLTYwLjI4MSAyNjIuMjVjLTIuODEyIDEyLjIwNy0uNTI0IDI1LjAyNCA2LjM0NCAzNS41MzFhNDYuMzUgNDYuMzUgMCAwIDAgMi42NTYgMy42ODhsMTY5LjEyNSAyMTAuMjgxYzguODY4IDExLjAyMiAyMi4zMTMgMTcuNDQgMzYuNTMxIDE3LjQzOGwyNzEuMjE5LS4wNjJjMTQuMjEyLjAxIDI3LjY1Ny02LjM5NiAzNi41MzEtMTcuNDA2bDE2OS4wNjMtMjEwLjMxM2M4Ljg3My0xMS4wMjggMTIuMTk3LTI1LjQ2NCA5LjAzMS0zOS4yMTlsLTYwLjM3NS0yNjIuMjVjLTMuMTY1LTEzLjc0OC0xMi40Ny0yNS4zMTktMjUuMjgxLTMxLjQzN0wzODEuNjQzIDE0LjU5MmMtNy4wNS0zLjM2OC0xNC44NDEtNC45MjYtMjIuNjU2LTQuNTMxeiIvPiYjeGE7CTxwYXRoIGNsYXNzPSJzdDEgc3QyIiBkPSJNMzYxLjQwOCA5OS4zMDhjLTguMDc3LjAwMS0xNC42MjYgNy4yNzYtMTQuNjI1IDE2LjI1IDAgLjEzOC4wMjguMjY5LjAzMS40MDYtLjAxMiAxLjIxOS0uMDcxIDIuNjg4LS4wMzEgMy43NS4xOTMgNS4xNzYgMS4zMjEgOS4xMzcgMiAxMy45MDYgMS4yMyAxMC4yMDcgMi4yNjEgMTguNjY3IDEuNjI1IDI2LjUzMS0uNjE5IDIuOTY1LTIuODAzIDUuNjc3LTQuNzUgNy41NjNsLS4zNDQgNi4xODhjLTguNzc3LjcyNy0xNy42MTIgMi4wNTktMjYuNDM3IDQuMDYzLTM3Ljk3NSA4LjYyMi03MC42NyAyOC4xODMtOTUuNTYyIDU0LjU5NC0xLjYxNS0xLjEwMi00LjQ0MS0zLjEyOS01LjI4MS0zLjc1LTIuNjExLjM1My01LjI1IDEuMTU4LTguNjg3LS44NDQtNi41NDUtNC40MDYtMTIuNTA2LTEwLjQ4Ny0xOS43MTktMTcuODEyLTMuMzA1LTMuNTA0LTUuNjk4LTYuODQxLTkuNjI1LTEwLjIxOS0uODkyLS43NjctMi4yNTMtMS44MDUtMy4yNS0yLjU5NC0zLjA3LTIuNDQ4LTYuNjkxLTMuNzI0LTEwLjE4Ny0zLjg0NC00LjQ5Ni0uMTU0LTguODI0IDEuNjA0LTExLjY1NiA1LjE1Ni01LjAzNSA2LjMxNS0zLjQyMyAxNS45NjggMy41OTQgMjEuNTYzLjA3MS4wNTcuMTQ3LjEwMS4yMTkuMTU2Ljk2NC43ODIgMi4xNDUgMS43ODMgMy4wMzEgMi40MzggNC4xNjcgMy4wNzcgNy45NzMgNC42NTEgMTIuMTI1IDcuMDk0IDguNzQ3IDUuNDAyIDE1Ljk5OCA5Ljg4MSAyMS43NSAxNS4yODEgMi4yNDYgMi4zOTQgMi42MzkgNi42MTMgMi45MzggOC40MzhsNC42ODggNC4xODhjLTI1LjA5MyAzNy43NjQtMzYuNzA3IDg0LjQwOS0yOS44NDQgMTMxLjkzOGwtNi4xMjUgMS43ODFjLTEuNjE0IDIuMDg1LTMuODk1IDUuMzY1LTYuMjgxIDYuMzQ0LTcuNTI1IDIuMzctMTUuOTk0IDMuMjQxLTI2LjIxOSA0LjMxMy00LjguMzk5LTguOTQyLjE2MS0xNC4wMzEgMS4xMjUtMS4xMi4yMTItMi42ODEuNjE5LTMuOTA2LjkwNi0uMDQzLjAwOS0uMDgyLjAyMi0uMTI1LjAzMS0uMDY3LjAxNS0uMTU1LjA0OC0uMjE5LjA2My04LjYyIDIuMDgzLTE0LjE1OCAxMC4wMDYtMTIuMzc1IDE3LjgxM3MxMC4yMDMgMTIuNTU3IDE4Ljg3NSAxMC42ODhjLjA2My0uMDE0LjE1NC0uMDE3LjIxOS0uMDMxLjA5OC0uMDIyLjE4NC0uMDcuMjgxLS4wOTQgMS4yMDktLjI2NSAyLjcyNC0uNTYxIDMuNzgxLS44NDQgNS4wMDMtMS4zNCA4LjYyNy0zLjMwOCAxMy4xMjUtNS4wMzEgOS42NzctMy40NzEgMTcuNjkyLTYuMzcgMjUuNS03LjUgMy4yNjEtLjI1NSA2LjY5NyAyLjAxMiA4LjQwNiAyLjk2OWw2LjM3NS0xLjA5NGMxNC42NyA0NS40ODMgNDUuNDE0IDgyLjI0NSA4NC4zNDQgMTA1LjMxMmwtMi42NTYgNi4zNzVjLjk1NyAyLjQ3NSAyLjAxMyA1LjgyNSAxLjMgOC4yNjktMi44MzkgNy4zNjEtNy43MDEgMTUuMTMxLTEzLjIzOCAyMy43OTMtMi42ODEgNC4wMDItNS40MjUgNy4xMDgtNy44NDQgMTEuNjg4LS41NzkgMS4wOTYtMS4zMTYgMi43NzktMS44NzUgMy45MzgtMy43NTkgOC4wNDItMS4wMDIgMTcuMzA1IDYuMjE5IDIwLjc4MSA3LjI2NiAzLjQ5OCAxNi4yODQtLjE5MSAyMC4xODctOC4yNS4wMDYtLjAxMS4wMjYtLjAyLjAzMS0uMDMxcy0uMDA0LS4wMjMgMC0uMDMxYy41NTYtMS4xNDMgMS4zNDQtMi42NDQgMS44MTMtMy43MTkgMi4wNzItNC43NDcgMi43NjItOC44MTUgNC4yMTktMTMuNDA2IDMuODctOS43MiA1Ljk5Ni0xOS45MTkgMTEuMzIzLTI2LjI3NCAxLjQ1OS0xLjc0IDMuODM3LTIuNDA5IDYuMzAyLTMuMDdsMy4zMTMtNmMzMy45MzggMTMuMDI3IDcxLjkyNyAxNi41MjIgMTA5Ljg3NSA3LjkwNmExODkuNzcgMTg5Ljc3IDAgMCAwIDI1LjA5NC03LjU2MmwzLjEyNSA1LjYyNWMyLjUwNi44MTUgNS4yNCAxLjIzNiA3LjQ2OSA0LjUzMSAzLjk4NSA2LjgwOSA2LjcxMSAxNC44NjQgMTAuMDMxIDI0LjU5NCAxLjQ1NyA0LjU5MSAyLjE3OCA4LjY1OSA0LjI1IDEzLjQwNi40NzIgMS4wODIgMS4yNTYgMi42MDUgMS44MTMgMy43NSAzLjg5NSA4LjA4NSAxMi45NDIgMTEuNzg3IDIwLjIxOSA4LjI4MSA3LjIxOS0zLjQ3OCA5Ljk4LTEyLjc0IDYuMjE5LTIwLjc4MWwtMS45MDYtMy45MzdjLTIuNDE5LTQuNTgtNS4xNjMtNy42NTQtNy44NDQtMTEuNjU2LTUuNTM3LTguNjYyLTEwLjEzLTE1Ljg1OC0xMi45NjktMjMuMjE5LTEuMTg3LTMuNzk3LjItNi4xNTggMS4xMjUtOC42MjUtLjU1NC0uNjM1LTEuNzM5LTQuMjItMi40MzctNS45MDYgNDAuNDU3LTIzLjg4OCA3MC4yOTktNjIuMDIxIDg0LjMxMy0xMDYuMDYyIDEuODkyLjI5NyA1LjE4Mi44NzkgNi4yNSAxLjA5NCAyLjItMS40NTEgNC4yMjItMy4zNDQgOC4xODgtMy4wMzEgNy44MDggMS4xMjkgMTUuODIzIDQuMDMgMjUuNSA3LjUgNC40OTggMS43MjMgOC4xMjIgMy43MjMgMTMuMTI1IDUuMDYzIDEuMDU3LjI4MyAyLjU3Mi41NDcgMy43ODEuODEzLjA5Ny4wMjQuMTgzLjA3MS4yODEuMDk0LjA2NS4wMTUuMTU2LjAxNy4yMTkuMDMxIDguNjcyIDEuODY3IDE3LjA5NC0yLjg3OSAxOC44NzUtMTAuNjg3cy0zLjc1NC0xNS43MzItMTIuMzc1LTE3LjgxMmMtMS4yNTQtLjI4NS0zLjAzMi0uNzY5LTQuMjUtMS01LjA4OS0uOTY0LTkuMjMxLS43MjYtMTQuMDMxLTEuMTI1LTEwLjIyNS0xLjA3MS0xOC42OTMtMS45NDMtMjYuMjE5LTQuMzEyLTMuMDY4LTEuMTktNS4yNTEtNC44NDEtNi4zMTMtNi4zNDRsLTUuOTA2LTEuNzE5YzMuMDYyLTIyLjE1NCAyLjIzNy00NS4yMTEtMy4wNjItNjguMjgxLTUuMzQ4LTIzLjI4NS0xNC44LTQ0LjU4MS0yNy40MDYtNjMuMzQ0bDUuMTg4LTQuNjU2Yy4yMzctMi42MjQuMDMzLTUuMzc2IDIuNzUtOC4yODEgNS43NTEtNS40MDEgMTMuMDAzLTkuODc5IDIxLjc1LTE1LjI4MSA0LjE1Mi0yLjQ0MyA3Ljk5LTQuMDE3IDEyLjE1Ni03LjA5NC45NDItLjY5NiAyLjIyOS0xLjc5OCAzLjIxOS0yLjU5NCA3LjAxNS01LjU5NiA4LjYzMS0xNS4yNDggMy41OTQtMjEuNTYycy0xNC43OTctNi45MDktMjEuODEyLTEuMzEyYy0uOTk5Ljc5MS0yLjM1NCAxLjgyMy0zLjI1IDIuNTk0LTMuOTI3IDMuMzc4LTYuMzUxIDYuNzE0LTkuNjU2IDEwLjIxOS03LjIxMiA3LjMyNi0xMy4xNzQgMTMuNDM4LTE5LjcxOSAxNy44NDQtMi44MzYgMS42NTEtNi45OSAxLjA4LTguODc1Ljk2OWwtNS41NjIgMy45NjljLTMxLjcxOS0zMy4yNjEtNzQuOTA1LTU0LjUyNS0xMjEuNDA2LTU4LjY1NmwtLjM0NC02LjUzMWMtMS45MDQtMS44MjItNC4yMDMtMy4zNzctNC43ODEtNy4zMTItLjYzNi03Ljg2NC40MjYtMTYuMzI1IDEuNjU2LTI2LjUzMS42NzktNC43NjkgMS44MDctOC43MyAyLTEzLjkwNi4wNDQtMS4xNzctLjAyNi0yLjg4NC0uMDMxLTQuMTU2LS4wMDEtOC45NzQtNi41NDgtMTYuMjUxLTE0LjYyNS0xNi4yNXptLTE4LjMxMiAxMTMuNDM4bC00LjM0NCA3Ni43MTktLjMxMi4xNTZjLS4yOTEgNi44NjMtNS45NCAxMi4zNDQtMTIuODc1IDEyLjM0NGExMi44MiAxMi44MiAwIDAgMS03LjU5NC0yLjQ2OWwtLjEyNS4wNjMtNjIuOTA2LTQ0LjU5NGMxOS4zMzQtMTkuMDExIDQ0LjA2My0zMy4wNiA3Mi41NjItMzkuNTMxIDUuMjA2LTEuMTgyIDEwLjQxLTIuMDU5IDE1LjU5NC0yLjY4N3ptMzYuNjU2IDBjMzMuMjczIDQuMDkyIDY0LjA0NSAxOS4xNTkgODcuNjI1IDQyLjI1bC02Mi41IDQ0LjMxMy0uMjE5LS4wOTRhMTIuOTEgMTIuOTEgMCAwIDEtMTcuNjg3LTIuMzc1Yy0xLjc3MS0yLjIyMS0yLjcwMS00LjgzMi0yLjgxMi03LjQ2OWwtLjA2Mi0uMDMxek0yMzIuMTI2IDI4My42Mmw1Ny40MzcgNTEuMzc1LS4wNjIuMzEzYTEyLjg4IDEyLjg4IDAgMCAxIDEuNjI1IDE3Ljc1IDEyLjg5IDEyLjg5IDAgMCAxLTYuNjg3IDQuNDA2bC0uMDYyLjI1LTczLjYyNSAyMS4yNWMtMy43NDctMzQuMjY1IDQuMzI5LTY3LjU3NCAyMS4zNzUtOTUuMzQ0em0yNTguMTU2LjAzMWM4LjUzNCAxMy44MzMgMTQuOTk3IDI5LjI4MiAxOC44NDQgNDYuMDMxIDMuODAxIDE2LjU0OCA0Ljc1NSAzMy4wNjcgMy4xODggNDkuMDMxbC03NC0yMS4zMTItLjA2Mi0uMzEyYy02LjYyNy0xLjgxMS0xMC42OTktOC41NTItOS4xNTYtMTUuMzEyLjYzMi0yLjc3IDIuMTAyLTUuMTEzIDQuMDk0LTYuODQ0bC0uMDMxLS4xNTYgNTcuMTI1LTUxLjEyNXptLTE0MC42NTYgNTUuMzEzaDIzLjUzMWwxNC42MjUgMTguMjgxLTUuMjUgMjIuODEzLTIxLjEyNSAxMC4xNTYtMjEuMTg3LTEwLjE4Ny01LjI1LTIyLjgxMnptNzUuNDM4IDYyLjU2M2ExMi44MyAxMi44MyAwIDAgMSAyLjk2OS4yMTlsLjEyNS0uMTU2IDc2LjE1NiAxMi44NzVjLTExLjE0NiAzMS4zMTMtMzIuNDczIDU4LjQ0LTYwLjk2OSA3Ni41OTRsLTI5LjU2Mi03MS40MDYuMDk0LS4xMjVjLTIuNzE2LTYuMzEuMDAyLTEzLjcxIDYuMjUtMTYuNzE5IDEuNi0uNzcgMy4yNzEtMS4xOTcgNC45MzgtMS4yODF6bS0xMjcuOTA2LjMxM2ExMi45IDEyLjkgMCAwIDEgMTIuMzc1IDEwLjAzMSAxMi43NyAxMi43NyAwIDAgMS0uNzE5IDcuOTM4bC4yMTkuMjgxLTI5LjI1IDcwLjY4OGMtMjcuMzQ3LTE3LjU0OS00OS4xMjktNDMuODI0LTYwLjc4MS03Ni4wNjJsNzUuNS0xMi44MTIuMTI1LjE1NmMuODQ1LS4xNTUgMS43MDEtLjIzIDIuNTMxLS4yMTl6bTYzLjc4MSAzMC45NjljMi4wMjQtLjA3NCA0LjA3OS4zNDEgNi4wMzEgMS4yODEgMi41NiAxLjIzMyA0LjUzNyAzLjE3MyA1Ljc4MSA1LjVoLjI4MWwzNy4yMTkgNjcuMjVjLTQuODMgMS42MTktOS43OTYgMy4wMDMtMTQuODc1IDQuMTU2LTI4LjQ2NSA2LjQ2My01Ni44MzkgNC41MDUtODIuNTMxLTQuMjVsMzcuMTI1LTY3LjEyNWguMDYzYTEyLjkxIDEyLjkxIDAgMCAxIDEwLjkwNi02LjgxMnoiIHN0cm9rZT0ibm9uZSIgc3Ryb2tlLXdpZHRoPSIuMjUiLz4mI3hhOzwvc3ZnPg==;" vertex="1" parent="1">
          <mxGeometry x="200" y="290" width="42" height="40" as="geometry" />
        </mxCell>
        <mxCell id="iN45Id6dDKSgF8Y3VdJW-52" value="&lt;font style=&quot;font-size: 10px;&quot;&gt;01&lt;/font&gt;" style="ellipse;whiteSpace=wrap;html=1;aspect=fixed;fillColor=none;" vertex="1" parent="1">
          <mxGeometry x="537" y="320" width="20" height="20" as="geometry" />
        </mxCell>
        <mxCell id="iN45Id6dDKSgF8Y3VdJW-53" value="&lt;font style=&quot;font-size: 10px;&quot;&gt;02&lt;/font&gt;" style="ellipse;whiteSpace=wrap;html=1;aspect=fixed;fillColor=none;" vertex="1" parent="1">
          <mxGeometry x="730" y="450" width="20" height="20" as="geometry" />
        </mxCell>
        <mxCell id="iN45Id6dDKSgF8Y3VdJW-54" value="&lt;font style=&quot;font-size: 10px;&quot;&gt;03&lt;/font&gt;" style="ellipse;whiteSpace=wrap;html=1;aspect=fixed;fillColor=none;" vertex="1" parent="1">
          <mxGeometry x="650" y="497" width="20" height="20" as="geometry" />
        </mxCell>
        <mxCell id="iN45Id6dDKSgF8Y3VdJW-55" value="&lt;font style=&quot;font-size: 10px;&quot;&gt;04&lt;/font&gt;" style="ellipse;whiteSpace=wrap;html=1;aspect=fixed;fillColor=none;" vertex="1" parent="1">
          <mxGeometry x="585" y="497" width="20" height="20" as="geometry" />
        </mxCell>
        <mxCell id="iN45Id6dDKSgF8Y3VdJW-56" value="&lt;font style=&quot;font-size: 10px;&quot;&gt;05&lt;/font&gt;" style="ellipse;whiteSpace=wrap;html=1;aspect=fixed;fillColor=none;" vertex="1" parent="1">
          <mxGeometry x="440" y="497" width="20" height="20" as="geometry" />
        </mxCell>
        <mxCell id="iN45Id6dDKSgF8Y3VdJW-57" value="&lt;font style=&quot;font-size: 10px;&quot;&gt;06&lt;/font&gt;" style="ellipse;whiteSpace=wrap;html=1;aspect=fixed;fillColor=none;" vertex="1" parent="1">
          <mxGeometry x="290" y="497" width="20" height="20" as="geometry" />
        </mxCell>
        <mxCell id="iN45Id6dDKSgF8Y3VdJW-58" value="&lt;font style=&quot;font-size: 10px;&quot;&gt;07&lt;/font&gt;" style="ellipse;whiteSpace=wrap;html=1;aspect=fixed;fillColor=none;" vertex="1" parent="1">
          <mxGeometry x="120" y="497" width="20" height="20" as="geometry" />
        </mxCell>
      </root>
    </mxGraphModel>
  </diagram>
</mxfile>
